<mxfile host="www.draw.io" modified="2019-12-10T00:43:02.303Z" agent="Mozilla/5.0 (Windows NT 10.0; WOW64) AppleWebKit/537.36 (KHTML, like Gecko) Chrome/63.0.3237.0 Safari/537.36" etag="EWQj_ioJL47xLwimycg4" version="12.3.8" type="github" pages="4">
  <diagram id="0H-zC2-0R3sZy4OjrHl7" name="第 1 页">
    <mxGraphModel dx="1048" dy="438" grid="1" gridSize="10" guides="1" tooltips="1" connect="1" arrows="1" fold="1" page="1" pageScale="1" pageWidth="827" pageHeight="1169" math="0" shadow="0">
      <root>
        <mxCell id="0"/>
        <mxCell id="1" parent="0"/>
        <mxCell id="Smt2OXMbTNINIB3azjr3-1" value="" style="rounded=1;whiteSpace=wrap;html=1;" parent="1" vertex="1">
          <mxGeometry x="90" y="125" width="150" height="240" as="geometry"/>
        </mxCell>
        <mxCell id="USfqKV91AmZVGDaE69Cv-1" style="edgeStyle=orthogonalEdgeStyle;rounded=0;orthogonalLoop=1;jettySize=auto;html=1;" edge="1" parent="1" source="Smt2OXMbTNINIB3azjr3-2" target="Smt2OXMbTNINIB3azjr3-22">
          <mxGeometry relative="1" as="geometry">
            <Array as="points">
              <mxPoint x="540" y="400"/>
              <mxPoint x="235" y="400"/>
            </Array>
          </mxGeometry>
        </mxCell>
        <mxCell id="Smt2OXMbTNINIB3azjr3-2" value="" style="rounded=1;whiteSpace=wrap;html=1;" parent="1" vertex="1">
          <mxGeometry x="465" y="125" width="150" height="240" as="geometry"/>
        </mxCell>
        <mxCell id="Smt2OXMbTNINIB3azjr3-3" value="kiplehome" style="text;html=1;strokeColor=none;fillColor=none;align=center;verticalAlign=middle;whiteSpace=wrap;rounded=0;" parent="1" vertex="1">
          <mxGeometry x="110" y="95" width="100" height="20" as="geometry"/>
        </mxCell>
        <mxCell id="Smt2OXMbTNINIB3azjr3-4" value="kiplepark" style="text;html=1;strokeColor=none;fillColor=none;align=center;verticalAlign=middle;whiteSpace=wrap;rounded=0;" parent="1" vertex="1">
          <mxGeometry x="490" y="95" width="100" height="20" as="geometry"/>
        </mxCell>
        <mxCell id="Smt2OXMbTNINIB3azjr3-6" value="VMS" style="rounded=1;whiteSpace=wrap;html=1;" parent="1" vertex="1">
          <mxGeometry x="105" y="195" width="120" height="30" as="geometry"/>
        </mxCell>
        <mxCell id="Smt2OXMbTNINIB3azjr3-7" value="Bill Payment" style="rounded=1;whiteSpace=wrap;html=1;" parent="1" vertex="1">
          <mxGeometry x="105" y="255" width="120" height="30" as="geometry"/>
        </mxCell>
        <mxCell id="Smt2OXMbTNINIB3azjr3-9" value="Attendence" style="rounded=1;whiteSpace=wrap;html=1;" parent="1" vertex="1">
          <mxGeometry x="105" y="305" width="120" height="30" as="geometry"/>
        </mxCell>
        <mxCell id="Smt2OXMbTNINIB3azjr3-12" value="valet" style="rounded=1;whiteSpace=wrap;html=1;" parent="1" vertex="1">
          <mxGeometry x="480" y="145" width="120" height="30" as="geometry"/>
        </mxCell>
        <mxCell id="Smt2OXMbTNINIB3azjr3-13" value="LPR" style="rounded=1;whiteSpace=wrap;html=1;" parent="1" vertex="1">
          <mxGeometry x="480" y="205" width="120" height="30" as="geometry"/>
        </mxCell>
        <mxCell id="Smt2OXMbTNINIB3azjr3-14" value="SEASON" style="rounded=1;whiteSpace=wrap;html=1;" parent="1" vertex="1">
          <mxGeometry x="480" y="255" width="120" height="30" as="geometry"/>
        </mxCell>
        <mxCell id="Smt2OXMbTNINIB3azjr3-17" value="CLOUD PARKING" style="rounded=1;whiteSpace=wrap;html=1;" parent="1" vertex="1">
          <mxGeometry x="480" y="305" width="120" height="30" as="geometry"/>
        </mxCell>
        <mxCell id="Smt2OXMbTNINIB3azjr3-18" value="" style="rounded=1;whiteSpace=wrap;html=1;" parent="1" vertex="1">
          <mxGeometry x="90" y="470" width="530" height="340" as="geometry"/>
        </mxCell>
        <mxCell id="Smt2OXMbTNINIB3azjr3-20" value="API GATEWAY" style="rounded=1;whiteSpace=wrap;html=1;" parent="1" vertex="1">
          <mxGeometry x="165" y="490" width="415" height="30" as="geometry"/>
        </mxCell>
        <mxCell id="Smt2OXMbTNINIB3azjr3-21" value="" style="rounded=1;whiteSpace=wrap;html=1;" parent="1" vertex="1">
          <mxGeometry x="165" y="530" width="445" height="60" as="geometry"/>
        </mxCell>
        <mxCell id="Smt2OXMbTNINIB3azjr3-22" value="UMS" style="rounded=1;whiteSpace=wrap;html=1;" parent="1" vertex="1">
          <mxGeometry x="175" y="550" width="120" height="30" as="geometry"/>
        </mxCell>
        <mxCell id="Smt2OXMbTNINIB3azjr3-24" value="Base Service" style="text;html=1;strokeColor=none;fillColor=none;align=center;verticalAlign=middle;whiteSpace=wrap;rounded=0;" parent="1" vertex="1">
          <mxGeometry x="305" y="530" width="80" height="20" as="geometry"/>
        </mxCell>
        <mxCell id="Smt2OXMbTNINIB3azjr3-25" value="Email" style="rounded=1;whiteSpace=wrap;html=1;" parent="1" vertex="1">
          <mxGeometry x="480" y="550" width="120" height="30" as="geometry"/>
        </mxCell>
        <mxCell id="Smt2OXMbTNINIB3azjr3-26" value="SMS" style="rounded=1;whiteSpace=wrap;html=1;" parent="1" vertex="1">
          <mxGeometry x="330" y="550" width="120" height="30" as="geometry"/>
        </mxCell>
        <mxCell id="Smt2OXMbTNINIB3azjr3-29" value="node+&lt;br&gt;mongodb" style="shape=cylinder;whiteSpace=wrap;html=1;boundedLbl=1;backgroundOutline=1;" parent="1" vertex="1">
          <mxGeometry x="120" y="370" width="80" height="80" as="geometry"/>
        </mxCell>
        <mxCell id="Smt2OXMbTNINIB3azjr3-30" value="php+&lt;br&gt;mysql" style="shape=cylinder;whiteSpace=wrap;html=1;boundedLbl=1;backgroundOutline=1;" parent="1" vertex="1">
          <mxGeometry x="495" y="370" width="80" height="80" as="geometry"/>
        </mxCell>
        <mxCell id="a5F_TbWvil2wc0R8VG2--1" value="" style="rounded=1;whiteSpace=wrap;html=1;" vertex="1" parent="1">
          <mxGeometry x="168" y="605" width="443" height="100" as="geometry"/>
        </mxCell>
        <mxCell id="a5F_TbWvil2wc0R8VG2--2" value="VMS" style="rounded=1;whiteSpace=wrap;html=1;" vertex="1" parent="1">
          <mxGeometry x="175" y="610" width="120" height="30" as="geometry"/>
        </mxCell>
        <mxCell id="a5F_TbWvil2wc0R8VG2--3" value="valet" style="rounded=1;whiteSpace=wrap;html=1;" vertex="1" parent="1">
          <mxGeometry x="331" y="610" width="120" height="30" as="geometry"/>
        </mxCell>
        <mxCell id="a5F_TbWvil2wc0R8VG2--4" value="LPR" style="rounded=1;whiteSpace=wrap;html=1;" vertex="1" parent="1">
          <mxGeometry x="175" y="650" width="120" height="30" as="geometry"/>
        </mxCell>
        <mxCell id="a5F_TbWvil2wc0R8VG2--5" value="membership" style="rounded=1;whiteSpace=wrap;html=1;" vertex="1" parent="1">
          <mxGeometry x="331" y="650" width="120" height="30" as="geometry"/>
        </mxCell>
        <mxCell id="a5F_TbWvil2wc0R8VG2--6" value="product" style="rounded=1;whiteSpace=wrap;html=1;" vertex="1" parent="1">
          <mxGeometry x="480" y="610" width="120" height="30" as="geometry"/>
        </mxCell>
        <mxCell id="a5F_TbWvil2wc0R8VG2--7" value="" style="rounded=1;whiteSpace=wrap;html=1;" vertex="1" parent="1">
          <mxGeometry x="168" y="720" width="445" height="60" as="geometry"/>
        </mxCell>
        <mxCell id="a5F_TbWvil2wc0R8VG2--8" value="wallet" style="rounded=1;whiteSpace=wrap;html=1;" vertex="1" parent="1">
          <mxGeometry x="180" y="735" width="120" height="30" as="geometry"/>
        </mxCell>
        <mxCell id="a5F_TbWvil2wc0R8VG2--9" value="payment" style="rounded=1;whiteSpace=wrap;html=1;" vertex="1" parent="1">
          <mxGeometry x="331" y="735" width="120" height="30" as="geometry"/>
        </mxCell>
        <mxCell id="a5F_TbWvil2wc0R8VG2--10" value="MQ" style="rounded=1;whiteSpace=wrap;html=1;" vertex="1" parent="1">
          <mxGeometry x="99" y="540" width="60" height="75" as="geometry"/>
        </mxCell>
        <mxCell id="a5F_TbWvil2wc0R8VG2--11" value="SC" style="rounded=1;whiteSpace=wrap;html=1;" vertex="1" parent="1">
          <mxGeometry x="99" y="620" width="60" height="75" as="geometry"/>
        </mxCell>
        <mxCell id="a5F_TbWvil2wc0R8VG2--12" style="edgeStyle=orthogonalEdgeStyle;rounded=0;orthogonalLoop=1;jettySize=auto;html=1;entryX=0.5;entryY=0;entryDx=0;entryDy=0;" edge="1" parent="1" source="Smt2OXMbTNINIB3azjr3-1" target="Smt2OXMbTNINIB3azjr3-22">
          <mxGeometry relative="1" as="geometry"/>
        </mxCell>
        <mxCell id="XXIgKBg9-xO7Tj9xIoMe-1" value="①" style="text;html=1;strokeColor=none;fillColor=none;align=center;verticalAlign=middle;whiteSpace=wrap;rounded=0;labelBackgroundColor=none;fontColor=#000000;" vertex="1" parent="1">
          <mxGeometry x="200" y="440" width="18" height="20" as="geometry"/>
        </mxCell>
      </root>
    </mxGraphModel>
  </diagram>
  <diagram id="cUeJUDqJahE6cD4y8AzB" name="第 2 页">
    <mxGraphModel dx="2660" dy="1662" grid="1" gridSize="10" guides="1" tooltips="1" connect="1" arrows="1" fold="1" page="1" pageScale="1" pageWidth="827" pageHeight="1169" math="0" shadow="0">
      <root>
        <mxCell id="eZUKuvoRVgsEIbDF9PON-0"/>
        <mxCell id="eZUKuvoRVgsEIbDF9PON-1" parent="eZUKuvoRVgsEIbDF9PON-0"/>
        <mxCell id="J-Ejjq3flIcWrOYrAO9b-125" value="" style="rounded=0;whiteSpace=wrap;html=1;labelBackgroundColor=none;strokeColor=#000000;fontColor=#000000;" vertex="1" parent="eZUKuvoRVgsEIbDF9PON-1">
          <mxGeometry x="-1310" y="445" width="930" height="245" as="geometry"/>
        </mxCell>
        <mxCell id="J-Ejjq3flIcWrOYrAO9b-80" style="edgeStyle=orthogonalEdgeStyle;rounded=0;orthogonalLoop=1;jettySize=auto;html=1;entryX=0.417;entryY=0.2;entryDx=0;entryDy=0;entryPerimeter=0;fontColor=#000000;fillColor=#0050ef;strokeColor=#001DBC;" edge="1" parent="eZUKuvoRVgsEIbDF9PON-1" source="J-Ejjq3flIcWrOYrAO9b-60" target="J-Ejjq3flIcWrOYrAO9b-79">
          <mxGeometry relative="1" as="geometry"/>
        </mxCell>
        <mxCell id="J-Ejjq3flIcWrOYrAO9b-102" style="edgeStyle=orthogonalEdgeStyle;rounded=0;orthogonalLoop=1;jettySize=auto;html=1;entryX=1;entryY=0.5;entryDx=0;entryDy=0;fontColor=#000000;" edge="1" parent="eZUKuvoRVgsEIbDF9PON-1" source="J-Ejjq3flIcWrOYrAO9b-60" target="J-Ejjq3flIcWrOYrAO9b-61">
          <mxGeometry relative="1" as="geometry"/>
        </mxCell>
        <mxCell id="J-Ejjq3flIcWrOYrAO9b-60" value="" style="rounded=1;whiteSpace=wrap;html=1;labelBackgroundColor=none;strokeColor=#666666;fontColor=#333333;fillColor=#f5f5f5;" vertex="1" parent="eZUKuvoRVgsEIbDF9PON-1">
          <mxGeometry x="-920" y="370" width="480" height="70" as="geometry"/>
        </mxCell>
        <mxCell id="eZUKuvoRVgsEIbDF9PON-11" style="edgeStyle=orthogonalEdgeStyle;rounded=0;orthogonalLoop=1;jettySize=auto;html=1;exitX=0.5;exitY=1;exitDx=0;exitDy=0;" parent="eZUKuvoRVgsEIbDF9PON-1" source="eZUKuvoRVgsEIbDF9PON-2" target="eZUKuvoRVgsEIbDF9PON-3" edge="1">
          <mxGeometry relative="1" as="geometry"/>
        </mxCell>
        <mxCell id="eZUKuvoRVgsEIbDF9PON-12" style="edgeStyle=orthogonalEdgeStyle;rounded=0;orthogonalLoop=1;jettySize=auto;html=1;entryX=0.5;entryY=0;entryDx=0;entryDy=0;" parent="eZUKuvoRVgsEIbDF9PON-1" edge="1">
          <mxGeometry relative="1" as="geometry">
            <mxPoint x="310" y="205" as="sourcePoint"/>
            <mxPoint x="499.66666666666674" y="274.66666666666674" as="targetPoint"/>
            <Array as="points">
              <mxPoint x="310" y="235"/>
              <mxPoint x="500" y="235"/>
            </Array>
          </mxGeometry>
        </mxCell>
        <mxCell id="eZUKuvoRVgsEIbDF9PON-13" style="edgeStyle=orthogonalEdgeStyle;rounded=0;orthogonalLoop=1;jettySize=auto;html=1;" parent="eZUKuvoRVgsEIbDF9PON-1" source="eZUKuvoRVgsEIbDF9PON-2" target="eZUKuvoRVgsEIbDF9PON-4" edge="1">
          <mxGeometry relative="1" as="geometry"/>
        </mxCell>
        <mxCell id="eZUKuvoRVgsEIbDF9PON-14" style="edgeStyle=orthogonalEdgeStyle;rounded=0;orthogonalLoop=1;jettySize=auto;html=1;entryX=0.5;entryY=0;entryDx=0;entryDy=0;" parent="eZUKuvoRVgsEIbDF9PON-1" source="eZUKuvoRVgsEIbDF9PON-2" target="eZUKuvoRVgsEIbDF9PON-5" edge="1">
          <mxGeometry relative="1" as="geometry"/>
        </mxCell>
        <mxCell id="eZUKuvoRVgsEIbDF9PON-41" style="edgeStyle=orthogonalEdgeStyle;rounded=0;orthogonalLoop=1;jettySize=auto;html=1;entryX=1;entryY=0.5;entryDx=0;entryDy=0;" parent="eZUKuvoRVgsEIbDF9PON-1" source="eZUKuvoRVgsEIbDF9PON-2" target="eZUKuvoRVgsEIbDF9PON-39" edge="1">
          <mxGeometry relative="1" as="geometry"/>
        </mxCell>
        <mxCell id="J-Ejjq3flIcWrOYrAO9b-177" style="edgeStyle=orthogonalEdgeStyle;rounded=0;orthogonalLoop=1;jettySize=auto;html=1;fontColor=#000000;" edge="1" parent="eZUKuvoRVgsEIbDF9PON-1">
          <mxGeometry relative="1" as="geometry">
            <mxPoint x="310.1034482758623" y="196" as="sourcePoint"/>
            <mxPoint x="699.7586206896553" y="266" as="targetPoint"/>
            <Array as="points">
              <mxPoint x="310" y="236"/>
              <mxPoint x="700" y="236"/>
            </Array>
          </mxGeometry>
        </mxCell>
        <mxCell id="J-Ejjq3flIcWrOYrAO9b-178" style="edgeStyle=orthogonalEdgeStyle;rounded=0;orthogonalLoop=1;jettySize=auto;html=1;entryX=0.558;entryY=0.033;entryDx=0;entryDy=0;entryPerimeter=0;fontColor=#000000;" edge="1" parent="eZUKuvoRVgsEIbDF9PON-1">
          <mxGeometry relative="1" as="geometry">
            <mxPoint x="310.1034482758623" y="196" as="sourcePoint"/>
            <mxPoint x="906.655172413793" y="267.2068965517242" as="targetPoint"/>
            <Array as="points">
              <mxPoint x="310" y="236"/>
              <mxPoint x="907" y="236"/>
            </Array>
          </mxGeometry>
        </mxCell>
        <mxCell id="eZUKuvoRVgsEIbDF9PON-2" value="kiplebiz/webcash" style="rounded=1;whiteSpace=wrap;html=1;fillColor=#fff2cc;strokeColor=#d6b656;" parent="eZUKuvoRVgsEIbDF9PON-1" vertex="1">
          <mxGeometry x="250" y="140" width="120" height="60" as="geometry"/>
        </mxCell>
        <mxCell id="J-Ejjq3flIcWrOYrAO9b-53" style="edgeStyle=orthogonalEdgeStyle;rounded=0;orthogonalLoop=1;jettySize=auto;html=1;fontColor=#000000;" edge="1" parent="eZUKuvoRVgsEIbDF9PON-1" source="eZUKuvoRVgsEIbDF9PON-3" target="J-Ejjq3flIcWrOYrAO9b-52">
          <mxGeometry relative="1" as="geometry">
            <Array as="points">
              <mxPoint x="80" y="340"/>
              <mxPoint x="220" y="340"/>
            </Array>
          </mxGeometry>
        </mxCell>
        <mxCell id="J-Ejjq3flIcWrOYrAO9b-54" style="edgeStyle=orthogonalEdgeStyle;rounded=0;orthogonalLoop=1;jettySize=auto;html=1;entryX=0.5;entryY=0;entryDx=0;entryDy=0;fontColor=#000000;" edge="1" parent="eZUKuvoRVgsEIbDF9PON-1" source="eZUKuvoRVgsEIbDF9PON-3" target="J-Ejjq3flIcWrOYrAO9b-51">
          <mxGeometry relative="1" as="geometry"/>
        </mxCell>
        <mxCell id="J-Ejjq3flIcWrOYrAO9b-55" style="edgeStyle=orthogonalEdgeStyle;rounded=0;orthogonalLoop=1;jettySize=auto;html=1;fontColor=#000000;" edge="1" parent="eZUKuvoRVgsEIbDF9PON-1" source="eZUKuvoRVgsEIbDF9PON-3" target="J-Ejjq3flIcWrOYrAO9b-50">
          <mxGeometry relative="1" as="geometry">
            <Array as="points">
              <mxPoint x="80" y="340"/>
              <mxPoint x="-90" y="340"/>
            </Array>
          </mxGeometry>
        </mxCell>
        <mxCell id="J-Ejjq3flIcWrOYrAO9b-56" style="edgeStyle=orthogonalEdgeStyle;rounded=0;orthogonalLoop=1;jettySize=auto;html=1;entryX=0.5;entryY=0;entryDx=0;entryDy=0;fontColor=#000000;" edge="1" parent="eZUKuvoRVgsEIbDF9PON-1" source="eZUKuvoRVgsEIbDF9PON-3" target="J-Ejjq3flIcWrOYrAO9b-48">
          <mxGeometry relative="1" as="geometry">
            <Array as="points">
              <mxPoint x="80" y="341"/>
              <mxPoint x="-230" y="341"/>
            </Array>
          </mxGeometry>
        </mxCell>
        <mxCell id="J-Ejjq3flIcWrOYrAO9b-57" style="edgeStyle=orthogonalEdgeStyle;rounded=0;orthogonalLoop=1;jettySize=auto;html=1;entryX=0.5;entryY=0;entryDx=0;entryDy=0;fontColor=#000000;" edge="1" parent="eZUKuvoRVgsEIbDF9PON-1" source="eZUKuvoRVgsEIbDF9PON-3" target="J-Ejjq3flIcWrOYrAO9b-45">
          <mxGeometry relative="1" as="geometry">
            <Array as="points">
              <mxPoint x="80" y="341"/>
              <mxPoint x="-520" y="341"/>
            </Array>
          </mxGeometry>
        </mxCell>
        <mxCell id="J-Ejjq3flIcWrOYrAO9b-58" style="edgeStyle=orthogonalEdgeStyle;rounded=0;orthogonalLoop=1;jettySize=auto;html=1;entryX=0.5;entryY=0;entryDx=0;entryDy=0;fontColor=#000000;" edge="1" parent="eZUKuvoRVgsEIbDF9PON-1" source="eZUKuvoRVgsEIbDF9PON-3" target="J-Ejjq3flIcWrOYrAO9b-44">
          <mxGeometry relative="1" as="geometry">
            <Array as="points">
              <mxPoint x="80" y="341"/>
              <mxPoint x="-670" y="341"/>
            </Array>
          </mxGeometry>
        </mxCell>
        <mxCell id="J-Ejjq3flIcWrOYrAO9b-59" style="edgeStyle=orthogonalEdgeStyle;rounded=0;orthogonalLoop=1;jettySize=auto;html=1;entryX=0.586;entryY=-0.119;entryDx=0;entryDy=0;entryPerimeter=0;fontColor=#000000;" edge="1" parent="eZUKuvoRVgsEIbDF9PON-1" source="eZUKuvoRVgsEIbDF9PON-3" target="J-Ejjq3flIcWrOYrAO9b-43">
          <mxGeometry relative="1" as="geometry">
            <Array as="points">
              <mxPoint x="80" y="341"/>
              <mxPoint x="-820" y="341"/>
            </Array>
          </mxGeometry>
        </mxCell>
        <mxCell id="xtoQ5N4eppurA6Tmhk-k-16" style="edgeStyle=orthogonalEdgeStyle;rounded=0;orthogonalLoop=1;jettySize=auto;html=1;entryX=0.578;entryY=-0.057;entryDx=0;entryDy=0;entryPerimeter=0;fontColor=#000000;" edge="1" parent="eZUKuvoRVgsEIbDF9PON-1" source="eZUKuvoRVgsEIbDF9PON-3" target="J-Ejjq3flIcWrOYrAO9b-46">
          <mxGeometry relative="1" as="geometry">
            <Array as="points">
              <mxPoint x="80" y="340"/>
              <mxPoint x="-350" y="340"/>
            </Array>
          </mxGeometry>
        </mxCell>
        <mxCell id="eZUKuvoRVgsEIbDF9PON-3" value="waas" style="rounded=1;whiteSpace=wrap;html=1;fillColor=#d5e8d4;strokeColor=#82b366;" parent="eZUKuvoRVgsEIbDF9PON-1" vertex="1">
          <mxGeometry x="20" y="270" width="120" height="30" as="geometry"/>
        </mxCell>
        <mxCell id="J-Ejjq3flIcWrOYrAO9b-70" style="edgeStyle=orthogonalEdgeStyle;rounded=0;orthogonalLoop=1;jettySize=auto;html=1;fontColor=#000000;entryX=0.5;entryY=0;entryDx=0;entryDy=0;" edge="1" parent="eZUKuvoRVgsEIbDF9PON-1" source="eZUKuvoRVgsEIbDF9PON-4" target="J-Ejjq3flIcWrOYrAO9b-64">
          <mxGeometry relative="1" as="geometry">
            <mxPoint x="170" y="510" as="targetPoint"/>
            <Array as="points">
              <mxPoint x="220" y="330"/>
              <mxPoint x="300" y="330"/>
            </Array>
          </mxGeometry>
        </mxCell>
        <mxCell id="eZUKuvoRVgsEIbDF9PON-4" value="user portal" style="rounded=1;whiteSpace=wrap;html=1;fillColor=#d5e8d4;strokeColor=#82b366;" parent="eZUKuvoRVgsEIbDF9PON-1" vertex="1">
          <mxGeometry x="160" y="270" width="120" height="30" as="geometry"/>
        </mxCell>
        <mxCell id="J-Ejjq3flIcWrOYrAO9b-77" style="edgeStyle=orthogonalEdgeStyle;rounded=0;orthogonalLoop=1;jettySize=auto;html=1;fontColor=#000000;" edge="1" parent="eZUKuvoRVgsEIbDF9PON-1" source="eZUKuvoRVgsEIbDF9PON-5" target="J-Ejjq3flIcWrOYrAO9b-71">
          <mxGeometry relative="1" as="geometry"/>
        </mxCell>
        <mxCell id="eZUKuvoRVgsEIbDF9PON-5" value="merchant portal" style="rounded=1;whiteSpace=wrap;html=1;fillColor=#d5e8d4;strokeColor=#82b366;" parent="eZUKuvoRVgsEIbDF9PON-1" vertex="1">
          <mxGeometry x="300" y="270" width="120" height="30" as="geometry"/>
        </mxCell>
        <mxCell id="J-Ejjq3flIcWrOYrAO9b-18" style="edgeStyle=orthogonalEdgeStyle;rounded=0;orthogonalLoop=1;jettySize=auto;html=1;entryX=0;entryY=0.5;entryDx=0;entryDy=0;fontColor=#000000;" edge="1" parent="eZUKuvoRVgsEIbDF9PON-1" source="eZUKuvoRVgsEIbDF9PON-6" target="J-Ejjq3flIcWrOYrAO9b-3">
          <mxGeometry relative="1" as="geometry"/>
        </mxCell>
        <mxCell id="J-Ejjq3flIcWrOYrAO9b-19" style="edgeStyle=orthogonalEdgeStyle;rounded=0;orthogonalLoop=1;jettySize=auto;html=1;entryX=0;entryY=0.5;entryDx=0;entryDy=0;fontColor=#000000;" edge="1" parent="eZUKuvoRVgsEIbDF9PON-1" source="eZUKuvoRVgsEIbDF9PON-6" target="J-Ejjq3flIcWrOYrAO9b-0">
          <mxGeometry relative="1" as="geometry"/>
        </mxCell>
        <mxCell id="J-Ejjq3flIcWrOYrAO9b-25" style="edgeStyle=orthogonalEdgeStyle;rounded=0;orthogonalLoop=1;jettySize=auto;html=1;entryX=0;entryY=0.5;entryDx=0;entryDy=0;fontColor=#000000;" edge="1" parent="eZUKuvoRVgsEIbDF9PON-1" source="eZUKuvoRVgsEIbDF9PON-6" target="J-Ejjq3flIcWrOYrAO9b-22">
          <mxGeometry relative="1" as="geometry"/>
        </mxCell>
        <mxCell id="xtoQ5N4eppurA6Tmhk-k-10" style="edgeStyle=orthogonalEdgeStyle;rounded=0;orthogonalLoop=1;jettySize=auto;html=1;entryX=0;entryY=0.75;entryDx=0;entryDy=0;fontColor=#000000;" edge="1" parent="eZUKuvoRVgsEIbDF9PON-1" source="eZUKuvoRVgsEIbDF9PON-6" target="J-Ejjq3flIcWrOYrAO9b-26">
          <mxGeometry relative="1" as="geometry">
            <Array as="points">
              <mxPoint x="500" y="750"/>
            </Array>
          </mxGeometry>
        </mxCell>
        <mxCell id="xtoQ5N4eppurA6Tmhk-k-11" style="edgeStyle=orthogonalEdgeStyle;rounded=0;orthogonalLoop=1;jettySize=auto;html=1;entryX=0;entryY=0.5;entryDx=0;entryDy=0;fontColor=#000000;" edge="1" parent="eZUKuvoRVgsEIbDF9PON-1" source="eZUKuvoRVgsEIbDF9PON-6" target="J-Ejjq3flIcWrOYrAO9b-28">
          <mxGeometry relative="1" as="geometry">
            <Array as="points">
              <mxPoint x="500" y="853"/>
            </Array>
          </mxGeometry>
        </mxCell>
        <mxCell id="xtoQ5N4eppurA6Tmhk-k-12" style="edgeStyle=orthogonalEdgeStyle;rounded=0;orthogonalLoop=1;jettySize=auto;html=1;entryX=0;entryY=0.5;entryDx=0;entryDy=0;fontColor=#000000;" edge="1" parent="eZUKuvoRVgsEIbDF9PON-1" source="eZUKuvoRVgsEIbDF9PON-6" target="J-Ejjq3flIcWrOYrAO9b-31">
          <mxGeometry relative="1" as="geometry">
            <Array as="points">
              <mxPoint x="500" y="963"/>
            </Array>
          </mxGeometry>
        </mxCell>
        <mxCell id="xtoQ5N4eppurA6Tmhk-k-13" style="edgeStyle=orthogonalEdgeStyle;rounded=0;orthogonalLoop=1;jettySize=auto;html=1;entryX=0;entryY=0.5;entryDx=0;entryDy=0;fontColor=#000000;" edge="1" parent="eZUKuvoRVgsEIbDF9PON-1" source="eZUKuvoRVgsEIbDF9PON-6" target="J-Ejjq3flIcWrOYrAO9b-34">
          <mxGeometry relative="1" as="geometry">
            <Array as="points">
              <mxPoint x="500" y="1073"/>
            </Array>
          </mxGeometry>
        </mxCell>
        <mxCell id="xtoQ5N4eppurA6Tmhk-k-14" style="edgeStyle=orthogonalEdgeStyle;rounded=0;orthogonalLoop=1;jettySize=auto;html=1;entryX=0;entryY=0.75;entryDx=0;entryDy=0;fontColor=#000000;" edge="1" parent="eZUKuvoRVgsEIbDF9PON-1" source="eZUKuvoRVgsEIbDF9PON-6" target="J-Ejjq3flIcWrOYrAO9b-37">
          <mxGeometry relative="1" as="geometry">
            <Array as="points">
              <mxPoint x="500" y="1191"/>
            </Array>
          </mxGeometry>
        </mxCell>
        <mxCell id="xtoQ5N4eppurA6Tmhk-k-15" style="edgeStyle=orthogonalEdgeStyle;rounded=0;orthogonalLoop=1;jettySize=auto;html=1;entryX=0;entryY=0.75;entryDx=0;entryDy=0;fontColor=#000000;" edge="1" parent="eZUKuvoRVgsEIbDF9PON-1" source="eZUKuvoRVgsEIbDF9PON-6" target="J-Ejjq3flIcWrOYrAO9b-40">
          <mxGeometry relative="1" as="geometry">
            <Array as="points">
              <mxPoint x="500" y="1301"/>
            </Array>
          </mxGeometry>
        </mxCell>
        <mxCell id="eZUKuvoRVgsEIbDF9PON-6" value="admin/finance portal" style="rounded=1;whiteSpace=wrap;html=1;fillColor=#d5e8d4;strokeColor=#82b366;" parent="eZUKuvoRVgsEIbDF9PON-1" vertex="1">
          <mxGeometry x="440" y="270" width="120" height="30" as="geometry"/>
        </mxCell>
        <mxCell id="eZUKuvoRVgsEIbDF9PON-10" value="" style="edgeStyle=orthogonalEdgeStyle;rounded=0;orthogonalLoop=1;jettySize=auto;html=1;" parent="eZUKuvoRVgsEIbDF9PON-1" source="eZUKuvoRVgsEIbDF9PON-7" target="eZUKuvoRVgsEIbDF9PON-2" edge="1">
          <mxGeometry relative="1" as="geometry"/>
        </mxCell>
        <mxCell id="eZUKuvoRVgsEIbDF9PON-40" style="edgeStyle=orthogonalEdgeStyle;rounded=0;orthogonalLoop=1;jettySize=auto;html=1;entryX=1;entryY=0.5;entryDx=0;entryDy=0;" parent="eZUKuvoRVgsEIbDF9PON-1" source="eZUKuvoRVgsEIbDF9PON-7" target="eZUKuvoRVgsEIbDF9PON-39" edge="1">
          <mxGeometry relative="1" as="geometry"/>
        </mxCell>
        <mxCell id="eZUKuvoRVgsEIbDF9PON-7" value="ums" style="rounded=1;whiteSpace=wrap;html=1;fillColor=#ffff88;strokeColor=#36393d;" parent="eZUKuvoRVgsEIbDF9PON-1" vertex="1">
          <mxGeometry x="250" width="120" height="60" as="geometry"/>
        </mxCell>
        <mxCell id="eZUKuvoRVgsEIbDF9PON-9" value="" style="edgeStyle=orthogonalEdgeStyle;rounded=0;orthogonalLoop=1;jettySize=auto;html=1;" parent="eZUKuvoRVgsEIbDF9PON-1" source="eZUKuvoRVgsEIbDF9PON-8" target="eZUKuvoRVgsEIbDF9PON-7" edge="1">
          <mxGeometry relative="1" as="geometry"/>
        </mxCell>
        <mxCell id="eZUKuvoRVgsEIbDF9PON-8" value="kiplepay" style="rounded=1;whiteSpace=wrap;html=1;fillColor=#d5e8d4;strokeColor=#82b366;" parent="eZUKuvoRVgsEIbDF9PON-1" vertex="1">
          <mxGeometry x="250" y="-130" width="120" height="60" as="geometry"/>
        </mxCell>
        <mxCell id="eZUKuvoRVgsEIbDF9PON-33" style="edgeStyle=orthogonalEdgeStyle;rounded=0;orthogonalLoop=1;jettySize=auto;html=1;entryX=0;entryY=0.5;entryDx=0;entryDy=0;" parent="eZUKuvoRVgsEIbDF9PON-1" source="eZUKuvoRVgsEIbDF9PON-15" target="eZUKuvoRVgsEIbDF9PON-16" edge="1">
          <mxGeometry relative="1" as="geometry"/>
        </mxCell>
        <mxCell id="eZUKuvoRVgsEIbDF9PON-34" style="edgeStyle=orthogonalEdgeStyle;rounded=0;orthogonalLoop=1;jettySize=auto;html=1;entryX=0;entryY=0.5;entryDx=0;entryDy=0;" parent="eZUKuvoRVgsEIbDF9PON-1" source="eZUKuvoRVgsEIbDF9PON-15" target="eZUKuvoRVgsEIbDF9PON-17" edge="1">
          <mxGeometry relative="1" as="geometry"/>
        </mxCell>
        <mxCell id="eZUKuvoRVgsEIbDF9PON-35" style="edgeStyle=orthogonalEdgeStyle;rounded=0;orthogonalLoop=1;jettySize=auto;html=1;entryX=0;entryY=0.5;entryDx=0;entryDy=0;" parent="eZUKuvoRVgsEIbDF9PON-1" source="eZUKuvoRVgsEIbDF9PON-15" target="eZUKuvoRVgsEIbDF9PON-18" edge="1">
          <mxGeometry relative="1" as="geometry"/>
        </mxCell>
        <mxCell id="eZUKuvoRVgsEIbDF9PON-36" style="edgeStyle=orthogonalEdgeStyle;rounded=0;orthogonalLoop=1;jettySize=auto;html=1;entryX=0;entryY=0.5;entryDx=0;entryDy=0;" parent="eZUKuvoRVgsEIbDF9PON-1" source="eZUKuvoRVgsEIbDF9PON-15" target="eZUKuvoRVgsEIbDF9PON-19" edge="1">
          <mxGeometry relative="1" as="geometry"/>
        </mxCell>
        <mxCell id="eZUKuvoRVgsEIbDF9PON-38" style="edgeStyle=orthogonalEdgeStyle;rounded=0;orthogonalLoop=1;jettySize=auto;html=1;entryX=0;entryY=0.5;entryDx=0;entryDy=0;" parent="eZUKuvoRVgsEIbDF9PON-1" source="eZUKuvoRVgsEIbDF9PON-15" target="eZUKuvoRVgsEIbDF9PON-20" edge="1">
          <mxGeometry relative="1" as="geometry"/>
        </mxCell>
        <mxCell id="eZUKuvoRVgsEIbDF9PON-15" value="GateWay" style="rounded=1;whiteSpace=wrap;html=1;fillColor=#cdeb8b;strokeColor=#36393d;" parent="eZUKuvoRVgsEIbDF9PON-1" vertex="1">
          <mxGeometry x="1654" y="709.5" width="120" height="60" as="geometry"/>
        </mxCell>
        <mxCell id="eZUKuvoRVgsEIbDF9PON-16" value="fpx/支付网关&lt;br&gt;[银行网关]" style="rounded=1;whiteSpace=wrap;html=1;fillColor=#cdeb8b;strokeColor=#36393d;" parent="eZUKuvoRVgsEIbDF9PON-1" vertex="1">
          <mxGeometry x="1841" y="579.5" width="120" height="30" as="geometry"/>
        </mxCell>
        <mxCell id="eZUKuvoRVgsEIbDF9PON-17" value="wechat" style="rounded=1;whiteSpace=wrap;html=1;fillColor=#cdeb8b;strokeColor=#36393d;" parent="eZUKuvoRVgsEIbDF9PON-1" vertex="1">
          <mxGeometry x="1841" y="644.5" width="120" height="30" as="geometry"/>
        </mxCell>
        <mxCell id="eZUKuvoRVgsEIbDF9PON-18" value="alipay" style="rounded=1;whiteSpace=wrap;html=1;fillColor=#cdeb8b;strokeColor=#36393d;" parent="eZUKuvoRVgsEIbDF9PON-1" vertex="1">
          <mxGeometry x="1841" y="724.5" width="120" height="30" as="geometry"/>
        </mxCell>
        <mxCell id="eZUKuvoRVgsEIbDF9PON-19" value="kiplepaying" style="rounded=1;whiteSpace=wrap;html=1;fillColor=#cdeb8b;strokeColor=#36393d;" parent="eZUKuvoRVgsEIbDF9PON-1" vertex="1">
          <mxGeometry x="1841" y="814.5" width="120" height="30" as="geometry"/>
        </mxCell>
        <mxCell id="eZUKuvoRVgsEIbDF9PON-24" value="" style="edgeStyle=orthogonalEdgeStyle;rounded=0;orthogonalLoop=1;jettySize=auto;html=1;" parent="eZUKuvoRVgsEIbDF9PON-1" source="eZUKuvoRVgsEIbDF9PON-20" target="eZUKuvoRVgsEIbDF9PON-23" edge="1">
          <mxGeometry relative="1" as="geometry"/>
        </mxCell>
        <mxCell id="eZUKuvoRVgsEIbDF9PON-20" value="&lt;span style=&quot;color: rgb(153, 153, 153); font-family: arial, &amp;quot;microsoft yahei&amp;quot;, &amp;quot;\\5fae软雅黑&amp;quot;, &amp;quot;\\5b8b体&amp;quot;, &amp;quot;malgun gothic&amp;quot;, meiryo, sans-serif; font-size: 14px; line-height: 21px;&quot;&gt;&lt;span class=&quot;Apple-converted-space&quot;&gt;&amp;nbsp;&lt;/span&gt;&lt;/span&gt;&lt;span class=&quot;typo&quot; style=&quot;box-sizing: border-box; color: rgb(51, 51, 51); font-family: arial, &amp;quot;microsoft yahei&amp;quot;, &amp;quot;\\5fae软雅黑&amp;quot;, &amp;quot;\\5b8b体&amp;quot;, &amp;quot;malgun gothic&amp;quot;, meiryo, sans-serif; font-size: 14px; line-height: 21px;&quot;&gt;credit card&lt;/span&gt;" style="rounded=1;whiteSpace=wrap;html=1;fillColor=#fa6800;strokeColor=#C73500;labelBackgroundColor=none;fontColor=#ffffff;" parent="eZUKuvoRVgsEIbDF9PON-1" vertex="1">
          <mxGeometry x="1841" y="879.5" width="120" height="30" as="geometry"/>
        </mxCell>
        <mxCell id="eZUKuvoRVgsEIbDF9PON-29" style="edgeStyle=orthogonalEdgeStyle;rounded=0;orthogonalLoop=1;jettySize=auto;html=1;entryX=0;entryY=0.75;entryDx=0;entryDy=0;" parent="eZUKuvoRVgsEIbDF9PON-1" source="eZUKuvoRVgsEIbDF9PON-23" target="eZUKuvoRVgsEIbDF9PON-25" edge="1">
          <mxGeometry relative="1" as="geometry"/>
        </mxCell>
        <mxCell id="eZUKuvoRVgsEIbDF9PON-30" style="edgeStyle=orthogonalEdgeStyle;rounded=0;orthogonalLoop=1;jettySize=auto;html=1;entryX=0;entryY=0.75;entryDx=0;entryDy=0;" parent="eZUKuvoRVgsEIbDF9PON-1" source="eZUKuvoRVgsEIbDF9PON-23" target="eZUKuvoRVgsEIbDF9PON-26" edge="1">
          <mxGeometry relative="1" as="geometry"/>
        </mxCell>
        <mxCell id="eZUKuvoRVgsEIbDF9PON-31" style="edgeStyle=orthogonalEdgeStyle;rounded=0;orthogonalLoop=1;jettySize=auto;html=1;entryX=0;entryY=0.5;entryDx=0;entryDy=0;" parent="eZUKuvoRVgsEIbDF9PON-1" source="eZUKuvoRVgsEIbDF9PON-23" target="eZUKuvoRVgsEIbDF9PON-27" edge="1">
          <mxGeometry relative="1" as="geometry"/>
        </mxCell>
        <mxCell id="eZUKuvoRVgsEIbDF9PON-32" style="edgeStyle=orthogonalEdgeStyle;rounded=0;orthogonalLoop=1;jettySize=auto;html=1;entryX=0;entryY=0.25;entryDx=0;entryDy=0;" parent="eZUKuvoRVgsEIbDF9PON-1" source="eZUKuvoRVgsEIbDF9PON-23" target="eZUKuvoRVgsEIbDF9PON-28" edge="1">
          <mxGeometry relative="1" as="geometry"/>
        </mxCell>
        <mxCell id="eZUKuvoRVgsEIbDF9PON-23" value="&lt;font face=&quot;arial, microsoft yahei, \\5fae软雅黑, \\5b8b体, malgun gothic, meiryo, sans-serif&quot;&gt;&lt;span style=&quot;font-size: 14px&quot;&gt;cc-gateway&lt;/span&gt;&lt;/font&gt;" style="rounded=1;whiteSpace=wrap;html=1;fillColor=#fa6800;strokeColor=#C73500;labelBackgroundColor=none;fontColor=#ffffff;" parent="eZUKuvoRVgsEIbDF9PON-1" vertex="1">
          <mxGeometry x="2041" y="879.5" width="120" height="30" as="geometry"/>
        </mxCell>
        <mxCell id="eZUKuvoRVgsEIbDF9PON-25" value="&lt;font face=&quot;arial, microsoft yahei, \\5fae软雅黑, \\5b8b体, malgun gothic, meiryo, sans-serif&quot;&gt;&lt;span style=&quot;font-size: 14px&quot;&gt;ADYEN&lt;/span&gt;&lt;/font&gt;" style="rounded=1;whiteSpace=wrap;html=1;fillColor=#fa6800;strokeColor=#C73500;labelBackgroundColor=none;fontColor=#ffffff;" parent="eZUKuvoRVgsEIbDF9PON-1" vertex="1">
          <mxGeometry x="2214" y="799.5" width="120" height="30" as="geometry"/>
        </mxCell>
        <mxCell id="eZUKuvoRVgsEIbDF9PON-26" value="&lt;font face=&quot;arial, microsoft yahei, \\5fae软雅黑, \\5b8b体, malgun gothic, meiryo, sans-serif&quot;&gt;&lt;span style=&quot;font-size: 14px;&quot;&gt;ALll&lt;/span&gt;&lt;/font&gt;" style="rounded=1;whiteSpace=wrap;html=1;fillColor=#fa6800;strokeColor=#C73500;labelBackgroundColor=none;fontColor=#ffffff;" parent="eZUKuvoRVgsEIbDF9PON-1" vertex="1">
          <mxGeometry x="2214" y="849.5" width="120" height="30" as="geometry"/>
        </mxCell>
        <mxCell id="eZUKuvoRVgsEIbDF9PON-27" value="&lt;font face=&quot;arial, microsoft yahei, \\5fae软雅黑, \\5b8b体, malgun gothic, meiryo, sans-serif&quot;&gt;&lt;span style=&quot;font-size: 14px&quot;&gt;MPAS&lt;/span&gt;&lt;/font&gt;" style="rounded=1;whiteSpace=wrap;html=1;fillColor=#fa6800;strokeColor=#C73500;labelBackgroundColor=none;fontColor=#ffffff;" parent="eZUKuvoRVgsEIbDF9PON-1" vertex="1">
          <mxGeometry x="2214" y="909.5" width="120" height="30" as="geometry"/>
        </mxCell>
        <mxCell id="eZUKuvoRVgsEIbDF9PON-28" value="&lt;font face=&quot;arial, microsoft yahei, \\5fae软雅黑, \\5b8b体, malgun gothic, meiryo, sans-serif&quot;&gt;&lt;span style=&quot;font-size: 14px&quot;&gt;ipay88&lt;/span&gt;&lt;/font&gt;" style="rounded=1;whiteSpace=wrap;html=1;fillColor=#fa6800;strokeColor=#C73500;labelBackgroundColor=none;fontColor=#ffffff;" parent="eZUKuvoRVgsEIbDF9PON-1" vertex="1">
          <mxGeometry x="2214" y="959.5" width="120" height="30" as="geometry"/>
        </mxCell>
        <mxCell id="eZUKuvoRVgsEIbDF9PON-39" value="database" style="shape=cylinder;whiteSpace=wrap;html=1;boundedLbl=1;backgroundOutline=1;fillColor=#f9f7ed;strokeColor=#36393d;" parent="eZUKuvoRVgsEIbDF9PON-1" vertex="1">
          <mxGeometry x="-140" y="75" width="70" height="80" as="geometry"/>
        </mxCell>
        <mxCell id="eZUKuvoRVgsEIbDF9PON-42" value="share database" style="text;html=1;strokeColor=none;fillColor=none;align=center;verticalAlign=middle;whiteSpace=wrap;rounded=0;" parent="eZUKuvoRVgsEIbDF9PON-1" vertex="1">
          <mxGeometry x="-40" y="95" width="90" height="20" as="geometry"/>
        </mxCell>
        <mxCell id="xtoQ5N4eppurA6Tmhk-k-7" style="edgeStyle=orthogonalEdgeStyle;rounded=0;orthogonalLoop=1;jettySize=auto;html=1;entryX=0;entryY=0.5;entryDx=0;entryDy=0;fontColor=#000000;" edge="1" parent="eZUKuvoRVgsEIbDF9PON-1" source="J-Ejjq3flIcWrOYrAO9b-0" target="xtoQ5N4eppurA6Tmhk-k-6">
          <mxGeometry relative="1" as="geometry"/>
        </mxCell>
        <mxCell id="J-Ejjq3flIcWrOYrAO9b-0" value="KYC身份鉴定[进行两次核验]" style="rounded=1;whiteSpace=wrap;html=1;fillColor=#d5e8d4;strokeColor=#82b366;" vertex="1" parent="eZUKuvoRVgsEIbDF9PON-1">
          <mxGeometry x="550" y="350" width="120" height="30" as="geometry"/>
        </mxCell>
        <mxCell id="J-Ejjq3flIcWrOYrAO9b-21" value="" style="edgeStyle=orthogonalEdgeStyle;rounded=0;orthogonalLoop=1;jettySize=auto;html=1;fontColor=#000000;" edge="1" parent="eZUKuvoRVgsEIbDF9PON-1" source="J-Ejjq3flIcWrOYrAO9b-3" target="J-Ejjq3flIcWrOYrAO9b-20">
          <mxGeometry relative="1" as="geometry"/>
        </mxCell>
        <mxCell id="xtoQ5N4eppurA6Tmhk-k-31" value="" style="edgeStyle=orthogonalEdgeStyle;rounded=0;orthogonalLoop=1;jettySize=auto;html=1;fontColor=#000000;entryX=0.5;entryY=0;entryDx=0;entryDy=0;" edge="1" parent="eZUKuvoRVgsEIbDF9PON-1" source="J-Ejjq3flIcWrOYrAO9b-3" target="xtoQ5N4eppurA6Tmhk-k-30">
          <mxGeometry relative="1" as="geometry"/>
        </mxCell>
        <mxCell id="J-Ejjq3flIcWrOYrAO9b-3" value="merchant&amp;nbsp;" style="rounded=1;whiteSpace=wrap;html=1;fillColor=#d5e8d4;strokeColor=#82b366;" vertex="1" parent="eZUKuvoRVgsEIbDF9PON-1">
          <mxGeometry x="550" y="445" width="120" height="30" as="geometry"/>
        </mxCell>
        <mxCell id="J-Ejjq3flIcWrOYrAO9b-22" value="reporting" style="rounded=1;whiteSpace=wrap;html=1;fillColor=#d5e8d4;strokeColor=#82b366;" vertex="1" parent="eZUKuvoRVgsEIbDF9PON-1">
          <mxGeometry x="550" y="550" width="120" height="30" as="geometry"/>
        </mxCell>
        <mxCell id="J-Ejjq3flIcWrOYrAO9b-26" value="KISS/pp/KIDA card registions" style="rounded=1;whiteSpace=wrap;html=1;fillColor=#d5e8d4;strokeColor=#82b366;" vertex="1" parent="eZUKuvoRVgsEIbDF9PON-1">
          <mxGeometry x="670" y="727.5" width="120" height="30" as="geometry"/>
        </mxCell>
        <mxCell id="J-Ejjq3flIcWrOYrAO9b-28" value="cards registers" style="rounded=1;whiteSpace=wrap;html=1;fillColor=#d5e8d4;strokeColor=#82b366;" vertex="1" parent="eZUKuvoRVgsEIbDF9PON-1">
          <mxGeometry x="670" y="837.5" width="120" height="30" as="geometry"/>
        </mxCell>
        <mxCell id="J-Ejjq3flIcWrOYrAO9b-31" value="postback" style="rounded=1;whiteSpace=wrap;html=1;fillColor=#d5e8d4;strokeColor=#82b366;" vertex="1" parent="eZUKuvoRVgsEIbDF9PON-1">
          <mxGeometry x="670" y="947.5" width="120" height="30" as="geometry"/>
        </mxCell>
        <mxCell id="J-Ejjq3flIcWrOYrAO9b-34" value="BNM report" style="rounded=1;whiteSpace=wrap;html=1;fillColor=#d5e8d4;strokeColor=#82b366;" vertex="1" parent="eZUKuvoRVgsEIbDF9PON-1">
          <mxGeometry x="670" y="1057.5" width="120" height="30" as="geometry"/>
        </mxCell>
        <mxCell id="gQgKnn-fW28YRy9Et5Oi-1" style="edgeStyle=orthogonalEdgeStyle;rounded=0;orthogonalLoop=1;jettySize=auto;html=1;fontColor=#000000;" edge="1" parent="eZUKuvoRVgsEIbDF9PON-1" source="J-Ejjq3flIcWrOYrAO9b-37">
          <mxGeometry relative="1" as="geometry">
            <mxPoint x="870" y="1182.5" as="targetPoint"/>
          </mxGeometry>
        </mxCell>
        <mxCell id="J-Ejjq3flIcWrOYrAO9b-37" value="multi tier&lt;br&gt;根据交易量定手续费" style="rounded=1;whiteSpace=wrap;html=1;fillColor=#d5e8d4;strokeColor=#82b366;" vertex="1" parent="eZUKuvoRVgsEIbDF9PON-1">
          <mxGeometry x="670" y="1167.5" width="120" height="30" as="geometry"/>
        </mxCell>
        <mxCell id="J-Ejjq3flIcWrOYrAO9b-40" value="p2p transfer" style="rounded=1;whiteSpace=wrap;html=1;fillColor=#d5e8d4;strokeColor=#82b366;" vertex="1" parent="eZUKuvoRVgsEIbDF9PON-1">
          <mxGeometry x="670" y="1277.5" width="120" height="30" as="geometry"/>
        </mxCell>
        <mxCell id="2qiXh2zgOEdiwyk8abIJ-2" style="edgeStyle=orthogonalEdgeStyle;rounded=0;orthogonalLoop=1;jettySize=auto;html=1;entryX=0;entryY=0.25;entryDx=0;entryDy=0;fontColor=#000000;" edge="1" parent="eZUKuvoRVgsEIbDF9PON-1" source="J-Ejjq3flIcWrOYrAO9b-20" target="2qiXh2zgOEdiwyk8abIJ-1">
          <mxGeometry relative="1" as="geometry"/>
        </mxCell>
        <mxCell id="J-Ejjq3flIcWrOYrAO9b-20" value="payment options" style="rounded=1;whiteSpace=wrap;html=1;fillColor=#d5e8d4;strokeColor=#82b366;" vertex="1" parent="eZUKuvoRVgsEIbDF9PON-1">
          <mxGeometry x="750" y="445" width="120" height="30" as="geometry"/>
        </mxCell>
        <mxCell id="J-Ejjq3flIcWrOYrAO9b-43" value="KISS[智慧母婴]" style="rounded=1;whiteSpace=wrap;html=1;fillColor=#e51400;strokeColor=#B20000;fontColor=#ffffff;" vertex="1" parent="eZUKuvoRVgsEIbDF9PON-1">
          <mxGeometry x="-890" y="380" width="120" height="30" as="geometry"/>
        </mxCell>
        <mxCell id="J-Ejjq3flIcWrOYrAO9b-44" value="PP" style="rounded=1;whiteSpace=wrap;html=1;fillColor=#d5e8d4;strokeColor=#82b366;" vertex="1" parent="eZUKuvoRVgsEIbDF9PON-1">
          <mxGeometry x="-730" y="380" width="120" height="30" as="geometry"/>
        </mxCell>
        <mxCell id="J-Ejjq3flIcWrOYrAO9b-45" value="KIDA" style="rounded=1;whiteSpace=wrap;html=1;fillColor=#d5e8d4;strokeColor=#82b366;" vertex="1" parent="eZUKuvoRVgsEIbDF9PON-1">
          <mxGeometry x="-580" y="380" width="120" height="30" as="geometry"/>
        </mxCell>
        <mxCell id="J-Ejjq3flIcWrOYrAO9b-172" style="edgeStyle=orthogonalEdgeStyle;rounded=0;orthogonalLoop=1;jettySize=auto;html=1;fontColor=#000000;" edge="1" parent="eZUKuvoRVgsEIbDF9PON-1" source="J-Ejjq3flIcWrOYrAO9b-46" target="J-Ejjq3flIcWrOYrAO9b-142">
          <mxGeometry relative="1" as="geometry">
            <Array as="points">
              <mxPoint x="-360" y="720"/>
              <mxPoint x="-607" y="720"/>
            </Array>
          </mxGeometry>
        </mxCell>
        <mxCell id="J-Ejjq3flIcWrOYrAO9b-46" value="i3s school" style="rounded=1;whiteSpace=wrap;html=1;fillColor=#d5e8d4;strokeColor=#82b366;" vertex="1" parent="eZUKuvoRVgsEIbDF9PON-1">
          <mxGeometry x="-420" y="380" width="120" height="30" as="geometry"/>
        </mxCell>
        <mxCell id="J-Ejjq3flIcWrOYrAO9b-170" style="edgeStyle=orthogonalEdgeStyle;rounded=0;orthogonalLoop=1;jettySize=auto;html=1;fontColor=#000000;" edge="1" parent="eZUKuvoRVgsEIbDF9PON-1" source="J-Ejjq3flIcWrOYrAO9b-48" target="J-Ejjq3flIcWrOYrAO9b-164">
          <mxGeometry relative="1" as="geometry">
            <Array as="points">
              <mxPoint x="-230" y="460"/>
              <mxPoint x="-350" y="460"/>
            </Array>
          </mxGeometry>
        </mxCell>
        <mxCell id="J-Ejjq3flIcWrOYrAO9b-48" value="Domino Express card[达美乐pizz]" style="rounded=1;whiteSpace=wrap;html=1;fillColor=#d5e8d4;strokeColor=#82b366;" vertex="1" parent="eZUKuvoRVgsEIbDF9PON-1">
          <mxGeometry x="-290" y="380" width="120" height="30" as="geometry"/>
        </mxCell>
        <mxCell id="J-Ejjq3flIcWrOYrAO9b-163" style="edgeStyle=orthogonalEdgeStyle;rounded=0;orthogonalLoop=1;jettySize=auto;html=1;fontColor=#000000;" edge="1" parent="eZUKuvoRVgsEIbDF9PON-1" source="J-Ejjq3flIcWrOYrAO9b-50" target="J-Ejjq3flIcWrOYrAO9b-134">
          <mxGeometry relative="1" as="geometry"/>
        </mxCell>
        <mxCell id="J-Ejjq3flIcWrOYrAO9b-50" value="kiplepay" style="rounded=1;whiteSpace=wrap;html=1;fillColor=#d5e8d4;strokeColor=#82b366;" vertex="1" parent="eZUKuvoRVgsEIbDF9PON-1">
          <mxGeometry x="-150" y="380" width="120" height="30" as="geometry"/>
        </mxCell>
        <mxCell id="J-Ejjq3flIcWrOYrAO9b-133" style="edgeStyle=orthogonalEdgeStyle;rounded=0;orthogonalLoop=1;jettySize=auto;html=1;entryX=0.577;entryY=-0.018;entryDx=0;entryDy=0;entryPerimeter=0;fontColor=#000000;" edge="1" parent="eZUKuvoRVgsEIbDF9PON-1" source="J-Ejjq3flIcWrOYrAO9b-51" target="J-Ejjq3flIcWrOYrAO9b-127">
          <mxGeometry relative="1" as="geometry"/>
        </mxCell>
        <mxCell id="J-Ejjq3flIcWrOYrAO9b-51" value="kiplepark" style="rounded=1;whiteSpace=wrap;html=1;fillColor=#d5e8d4;strokeColor=#82b366;" vertex="1" parent="eZUKuvoRVgsEIbDF9PON-1">
          <mxGeometry x="-10" y="380" width="120" height="30" as="geometry"/>
        </mxCell>
        <mxCell id="J-Ejjq3flIcWrOYrAO9b-160" style="edgeStyle=orthogonalEdgeStyle;rounded=0;orthogonalLoop=1;jettySize=auto;html=1;fontColor=#000000;" edge="1" parent="eZUKuvoRVgsEIbDF9PON-1" source="J-Ejjq3flIcWrOYrAO9b-52">
          <mxGeometry relative="1" as="geometry">
            <mxPoint x="120" y="500" as="targetPoint"/>
          </mxGeometry>
        </mxCell>
        <mxCell id="xtoQ5N4eppurA6Tmhk-k-8" style="edgeStyle=orthogonalEdgeStyle;rounded=0;orthogonalLoop=1;jettySize=auto;html=1;fontColor=#000000;entryX=0.5;entryY=1;entryDx=0;entryDy=0;" edge="1" parent="eZUKuvoRVgsEIbDF9PON-1" target="eZUKuvoRVgsEIbDF9PON-20">
          <mxGeometry relative="1" as="geometry">
            <mxPoint x="1599.999999999999" y="1130.0000000000005" as="targetPoint"/>
            <mxPoint x="290" y="480" as="sourcePoint"/>
            <Array as="points">
              <mxPoint x="400" y="480"/>
              <mxPoint x="400" y="540"/>
              <mxPoint x="1450" y="540"/>
              <mxPoint x="1450" y="1111"/>
              <mxPoint x="1902" y="1111"/>
              <mxPoint x="1902" y="910"/>
            </Array>
          </mxGeometry>
        </mxCell>
        <mxCell id="J-Ejjq3flIcWrOYrAO9b-52" value="auto top up&lt;br&gt;[自动充值,不会收商家的钱]" style="rounded=1;whiteSpace=wrap;html=1;fillColor=#d5e8d4;strokeColor=#82b366;" vertex="1" parent="eZUKuvoRVgsEIbDF9PON-1">
          <mxGeometry x="160" y="380" width="120" height="30" as="geometry"/>
        </mxCell>
        <mxCell id="J-Ejjq3flIcWrOYrAO9b-108" style="edgeStyle=orthogonalEdgeStyle;rounded=0;orthogonalLoop=1;jettySize=auto;html=1;fontColor=#000000;" edge="1" parent="eZUKuvoRVgsEIbDF9PON-1" source="J-Ejjq3flIcWrOYrAO9b-61" target="J-Ejjq3flIcWrOYrAO9b-105">
          <mxGeometry relative="1" as="geometry"/>
        </mxCell>
        <mxCell id="-u0liNc7cSLWuUvfFJDH-5" style="edgeStyle=orthogonalEdgeStyle;rounded=0;orthogonalLoop=1;jettySize=auto;html=1;fontColor=#000000;" edge="1" parent="eZUKuvoRVgsEIbDF9PON-1" source="J-Ejjq3flIcWrOYrAO9b-61" target="-u0liNc7cSLWuUvfFJDH-3">
          <mxGeometry relative="1" as="geometry">
            <Array as="points">
              <mxPoint x="-1140" y="405"/>
              <mxPoint x="-1140" y="160"/>
            </Array>
          </mxGeometry>
        </mxCell>
        <mxCell id="J-Ejjq3flIcWrOYrAO9b-61" value="SMS gateWay" style="rounded=1;whiteSpace=wrap;html=1;fillColor=#d5e8d4;strokeColor=#82b366;" vertex="1" parent="eZUKuvoRVgsEIbDF9PON-1">
          <mxGeometry x="-1120" y="390" width="120" height="30" as="geometry"/>
        </mxCell>
        <mxCell id="J-Ejjq3flIcWrOYrAO9b-64" value="" style="rounded=1;whiteSpace=wrap;html=1;labelBackgroundColor=none;strokeColor=#000000;fontColor=#000000;" vertex="1" parent="eZUKuvoRVgsEIbDF9PON-1">
          <mxGeometry x="190" y="580" width="220" height="215" as="geometry"/>
        </mxCell>
        <mxCell id="J-Ejjq3flIcWrOYrAO9b-65" value="Login/Login Out" style="rounded=1;whiteSpace=wrap;html=1;fillColor=#d5e8d4;strokeColor=#82b366;" vertex="1" parent="eZUKuvoRVgsEIbDF9PON-1">
          <mxGeometry x="200" y="595" width="200" height="30" as="geometry"/>
        </mxCell>
        <mxCell id="J-Ejjq3flIcWrOYrAO9b-66" value="Account" style="rounded=1;whiteSpace=wrap;html=1;fillColor=#d5e8d4;strokeColor=#82b366;" vertex="1" parent="eZUKuvoRVgsEIbDF9PON-1">
          <mxGeometry x="200" y="635" width="200" height="30" as="geometry"/>
        </mxCell>
        <mxCell id="J-Ejjq3flIcWrOYrAO9b-67" value="Dashboard" style="rounded=1;whiteSpace=wrap;html=1;fillColor=#d5e8d4;strokeColor=#82b366;" vertex="1" parent="eZUKuvoRVgsEIbDF9PON-1">
          <mxGeometry x="200" y="672.5" width="200" height="30" as="geometry"/>
        </mxCell>
        <mxCell id="J-Ejjq3flIcWrOYrAO9b-68" value="Statement" style="rounded=1;whiteSpace=wrap;html=1;fillColor=#d5e8d4;strokeColor=#82b366;" vertex="1" parent="eZUKuvoRVgsEIbDF9PON-1">
          <mxGeometry x="200" y="710" width="200" height="30" as="geometry"/>
        </mxCell>
        <mxCell id="J-Ejjq3flIcWrOYrAO9b-69" value="Close Account[注销账号]" style="rounded=1;whiteSpace=wrap;html=1;fillColor=#d5e8d4;strokeColor=#82b366;" vertex="1" parent="eZUKuvoRVgsEIbDF9PON-1">
          <mxGeometry x="200" y="755" width="200" height="30" as="geometry"/>
        </mxCell>
        <mxCell id="J-Ejjq3flIcWrOYrAO9b-71" value="" style="rounded=1;whiteSpace=wrap;html=1;labelBackgroundColor=none;strokeColor=#000000;fontColor=#000000;" vertex="1" parent="eZUKuvoRVgsEIbDF9PON-1">
          <mxGeometry x="320" y="817.5" width="220" height="250" as="geometry"/>
        </mxCell>
        <mxCell id="J-Ejjq3flIcWrOYrAO9b-96" style="edgeStyle=orthogonalEdgeStyle;rounded=0;orthogonalLoop=1;jettySize=auto;html=1;fontColor=#000000;" edge="1" parent="eZUKuvoRVgsEIbDF9PON-1" source="J-Ejjq3flIcWrOYrAO9b-72" target="J-Ejjq3flIcWrOYrAO9b-94">
          <mxGeometry relative="1" as="geometry"/>
        </mxCell>
        <mxCell id="J-Ejjq3flIcWrOYrAO9b-97" style="edgeStyle=orthogonalEdgeStyle;rounded=0;orthogonalLoop=1;jettySize=auto;html=1;entryX=1;entryY=0.5;entryDx=0;entryDy=0;fontColor=#000000;" edge="1" parent="eZUKuvoRVgsEIbDF9PON-1" source="J-Ejjq3flIcWrOYrAO9b-72" target="J-Ejjq3flIcWrOYrAO9b-95">
          <mxGeometry relative="1" as="geometry"/>
        </mxCell>
        <mxCell id="J-Ejjq3flIcWrOYrAO9b-72" value="Settlement" style="rounded=1;whiteSpace=wrap;html=1;fillColor=#d5e8d4;strokeColor=#82b366;" vertex="1" parent="eZUKuvoRVgsEIbDF9PON-1">
          <mxGeometry x="330" y="832.5" width="200" height="30" as="geometry"/>
        </mxCell>
        <mxCell id="J-Ejjq3flIcWrOYrAO9b-73" value="Transaction" style="rounded=1;whiteSpace=wrap;html=1;fillColor=#d5e8d4;strokeColor=#82b366;" vertex="1" parent="eZUKuvoRVgsEIbDF9PON-1">
          <mxGeometry x="330" y="872.5" width="200" height="30" as="geometry"/>
        </mxCell>
        <mxCell id="J-Ejjq3flIcWrOYrAO9b-74" value="Refund/void" style="rounded=1;whiteSpace=wrap;html=1;fillColor=#d5e8d4;strokeColor=#82b366;" vertex="1" parent="eZUKuvoRVgsEIbDF9PON-1">
          <mxGeometry x="330" y="910" width="200" height="30" as="geometry"/>
        </mxCell>
        <mxCell id="xtoQ5N4eppurA6Tmhk-k-25" style="edgeStyle=orthogonalEdgeStyle;rounded=0;orthogonalLoop=1;jettySize=auto;html=1;entryX=0;entryY=0.5;entryDx=0;entryDy=0;fontColor=#000000;" edge="1" parent="eZUKuvoRVgsEIbDF9PON-1" source="J-Ejjq3flIcWrOYrAO9b-75" target="eZUKuvoRVgsEIbDF9PON-15">
          <mxGeometry relative="1" as="geometry"/>
        </mxCell>
        <mxCell id="J-Ejjq3flIcWrOYrAO9b-75" value="1-link payment[链接购物生成URL，支付根据URL支付]" style="rounded=1;whiteSpace=wrap;html=1;fillColor=#d5e8d4;strokeColor=#82b366;" vertex="1" parent="eZUKuvoRVgsEIbDF9PON-1">
          <mxGeometry x="330" y="947.5" width="200" height="30" as="geometry"/>
        </mxCell>
        <mxCell id="J-Ejjq3flIcWrOYrAO9b-76" value="e-invoice" style="rounded=1;whiteSpace=wrap;html=1;fillColor=#d5e8d4;strokeColor=#82b366;" vertex="1" parent="eZUKuvoRVgsEIbDF9PON-1">
          <mxGeometry x="330" y="985" width="200" height="30" as="geometry"/>
        </mxCell>
        <mxCell id="J-Ejjq3flIcWrOYrAO9b-78" value="tax invoice[30days]&lt;br&gt;30天 税收" style="rounded=1;whiteSpace=wrap;html=1;fillColor=#d5e8d4;strokeColor=#82b366;" vertex="1" parent="eZUKuvoRVgsEIbDF9PON-1">
          <mxGeometry x="330" y="1022.5" width="200" height="30" as="geometry"/>
        </mxCell>
        <mxCell id="J-Ejjq3flIcWrOYrAO9b-89" style="edgeStyle=orthogonalEdgeStyle;rounded=0;orthogonalLoop=1;jettySize=auto;html=1;entryX=0.5;entryY=0;entryDx=0;entryDy=0;fontColor=#000000;" edge="1" parent="eZUKuvoRVgsEIbDF9PON-1" source="J-Ejjq3flIcWrOYrAO9b-79" target="J-Ejjq3flIcWrOYrAO9b-85">
          <mxGeometry relative="1" as="geometry"/>
        </mxCell>
        <mxCell id="J-Ejjq3flIcWrOYrAO9b-90" style="edgeStyle=orthogonalEdgeStyle;rounded=0;orthogonalLoop=1;jettySize=auto;html=1;entryX=0.5;entryY=0;entryDx=0;entryDy=0;fontColor=#000000;" edge="1" parent="eZUKuvoRVgsEIbDF9PON-1" source="J-Ejjq3flIcWrOYrAO9b-79" target="J-Ejjq3flIcWrOYrAO9b-86">
          <mxGeometry relative="1" as="geometry"/>
        </mxCell>
        <mxCell id="J-Ejjq3flIcWrOYrAO9b-91" style="edgeStyle=orthogonalEdgeStyle;rounded=0;orthogonalLoop=1;jettySize=auto;html=1;fontColor=#000000;" edge="1" parent="eZUKuvoRVgsEIbDF9PON-1" source="J-Ejjq3flIcWrOYrAO9b-79" target="J-Ejjq3flIcWrOYrAO9b-87">
          <mxGeometry relative="1" as="geometry">
            <Array as="points">
              <mxPoint x="-670" y="610"/>
              <mxPoint x="-447" y="610"/>
            </Array>
          </mxGeometry>
        </mxCell>
        <mxCell id="J-Ejjq3flIcWrOYrAO9b-92" style="edgeStyle=orthogonalEdgeStyle;rounded=0;orthogonalLoop=1;jettySize=auto;html=1;entryX=0.5;entryY=0;entryDx=0;entryDy=0;fontColor=#000000;" edge="1" parent="eZUKuvoRVgsEIbDF9PON-1" source="J-Ejjq3flIcWrOYrAO9b-79" target="J-Ejjq3flIcWrOYrAO9b-84">
          <mxGeometry relative="1" as="geometry">
            <Array as="points">
              <mxPoint x="-670" y="610"/>
              <mxPoint x="-897" y="610"/>
            </Array>
          </mxGeometry>
        </mxCell>
        <mxCell id="J-Ejjq3flIcWrOYrAO9b-79" value="SELGNFE&lt;br&gt;[地区名称]" style="rounded=1;whiteSpace=wrap;html=1;fillColor=#0050ef;strokeColor=#001DBC;fontColor=#ffffff;" vertex="1" parent="eZUKuvoRVgsEIbDF9PON-1">
          <mxGeometry x="-730" y="554" width="120" height="30" as="geometry"/>
        </mxCell>
        <mxCell id="J-Ejjq3flIcWrOYrAO9b-81" value="API Interface" style="text;html=1;strokeColor=#001DBC;fillColor=#0050ef;align=center;verticalAlign=middle;whiteSpace=wrap;rounded=0;labelBackgroundColor=none;fontColor=#ffffff;" vertex="1" parent="eZUKuvoRVgsEIbDF9PON-1">
          <mxGeometry x="-717" y="490" width="90" height="20" as="geometry"/>
        </mxCell>
        <mxCell id="J-Ejjq3flIcWrOYrAO9b-84" value="99sm【商店名称】" style="rounded=1;whiteSpace=wrap;html=1;fillColor=#0050ef;strokeColor=#001DBC;fontColor=#ffffff;" vertex="1" parent="eZUKuvoRVgsEIbDF9PON-1">
          <mxGeometry x="-957" y="635" width="120" height="30" as="geometry"/>
        </mxCell>
        <mxCell id="J-Ejjq3flIcWrOYrAO9b-85" value="mydm【商店名称】" style="rounded=1;whiteSpace=wrap;html=1;fillColor=#0050ef;strokeColor=#001DBC;fontColor=#ffffff;" vertex="1" parent="eZUKuvoRVgsEIbDF9PON-1">
          <mxGeometry x="-797" y="635" width="120" height="30" as="geometry"/>
        </mxCell>
        <mxCell id="J-Ejjq3flIcWrOYrAO9b-86" value="tk【商店名称】" style="rounded=1;whiteSpace=wrap;html=1;fillColor=#0050ef;strokeColor=#001DBC;fontColor=#ffffff;" vertex="1" parent="eZUKuvoRVgsEIbDF9PON-1">
          <mxGeometry x="-657" y="635" width="120" height="30" as="geometry"/>
        </mxCell>
        <mxCell id="J-Ejjq3flIcWrOYrAO9b-87" value="atr【商店名称】" style="rounded=1;whiteSpace=wrap;html=1;fillColor=#0050ef;strokeColor=#001DBC;fontColor=#ffffff;" vertex="1" parent="eZUKuvoRVgsEIbDF9PON-1">
          <mxGeometry x="-507" y="635" width="120" height="30" as="geometry"/>
        </mxCell>
        <mxCell id="J-Ejjq3flIcWrOYrAO9b-93" value="Customer&lt;br&gt;User" style="shape=umlActor;verticalLabelPosition=bottom;labelBackgroundColor=#ffffff;verticalAlign=top;html=1;outlineConnect=0;strokeColor=#000000;fontColor=#000000;" vertex="1" parent="eZUKuvoRVgsEIbDF9PON-1">
          <mxGeometry x="-1080" y="60" width="30" height="60" as="geometry"/>
        </mxCell>
        <mxCell id="J-Ejjq3flIcWrOYrAO9b-100" style="edgeStyle=orthogonalEdgeStyle;rounded=0;orthogonalLoop=1;jettySize=auto;html=1;entryX=1;entryY=0.5;entryDx=0;entryDy=0;fontColor=#000000;" edge="1" parent="eZUKuvoRVgsEIbDF9PON-1" source="J-Ejjq3flIcWrOYrAO9b-94" target="J-Ejjq3flIcWrOYrAO9b-99">
          <mxGeometry relative="1" as="geometry">
            <Array as="points">
              <mxPoint x="70" y="840"/>
              <mxPoint x="70" y="838"/>
            </Array>
          </mxGeometry>
        </mxCell>
        <mxCell id="J-Ejjq3flIcWrOYrAO9b-94" value="TPA【third party acquirier】]&lt;br&gt;revenue share 分红" style="rounded=1;whiteSpace=wrap;html=1;fillColor=#d5e8d4;strokeColor=#82b366;" vertex="1" parent="eZUKuvoRVgsEIbDF9PON-1">
          <mxGeometry x="110" y="825" width="120" height="30" as="geometry"/>
        </mxCell>
        <mxCell id="J-Ejjq3flIcWrOYrAO9b-101" style="edgeStyle=orthogonalEdgeStyle;rounded=0;orthogonalLoop=1;jettySize=auto;html=1;fontColor=#000000;" edge="1" parent="eZUKuvoRVgsEIbDF9PON-1" source="J-Ejjq3flIcWrOYrAO9b-95" target="uEpgI8H6LDzpi5NkqIfr-0">
          <mxGeometry relative="1" as="geometry"/>
        </mxCell>
        <mxCell id="J-Ejjq3flIcWrOYrAO9b-95" value="Regular" style="rounded=1;whiteSpace=wrap;html=1;fillColor=#d5e8d4;strokeColor=#82b366;" vertex="1" parent="eZUKuvoRVgsEIbDF9PON-1">
          <mxGeometry x="110" y="875" width="120" height="30" as="geometry"/>
        </mxCell>
        <mxCell id="J-Ejjq3flIcWrOYrAO9b-99" value="&lt;table border=&quot;1&quot; width=&quot;100%&quot; cellpadding=&quot;4&quot; style=&quot;width: 100% ; height: 100% ; border-collapse: collapse&quot;&gt;&lt;tbody&gt;&lt;tr style=&quot;background-color: #a7c942 ; color: #ffffff ; border: 1px solid #98bf21&quot;&gt;&lt;th align=&quot;left&quot;&gt;Level&lt;/th&gt;&lt;th align=&quot;left&quot;&gt;merchant&lt;/th&gt;&lt;th align=&quot;left&quot;&gt;MDR&lt;br&gt;&lt;/th&gt;&lt;/tr&gt;&lt;tr style=&quot;border: 1px solid #98bf21&quot;&gt;&lt;td&gt;1&lt;/td&gt;&lt;td&gt;TPA1&lt;/td&gt;&lt;td&gt;1.5%&lt;/td&gt;&lt;/tr&gt;&lt;tr style=&quot;background-color: #eaf2d3 ; border: 1px solid #98bf21&quot;&gt;&lt;td&gt;2&lt;/td&gt;&lt;td&gt;merchant A&lt;/td&gt;&lt;td&gt;2.0%&lt;br&gt;&lt;/td&gt;&lt;/tr&gt;&lt;tr style=&quot;border: 1px solid #98bf21&quot;&gt;&lt;td&gt;2&lt;/td&gt;&lt;td&gt;merchant B&lt;br&gt;&lt;/td&gt;&lt;td&gt;2.0%&lt;/td&gt;&lt;/tr&gt;&lt;tr style=&quot;background-color: #eaf2d3 ; border: 1px solid #98bf21&quot;&gt;&lt;td&gt;2&lt;/td&gt;&lt;td&gt;merchant C&lt;br&gt;&lt;/td&gt;&lt;td&gt;3.0%&lt;/td&gt;&lt;/tr&gt;&lt;/tbody&gt;&lt;/table&gt;" style="text;html=1;strokeColor=#c0c0c0;fillColor=#ffffff;overflow=fill;rounded=0;labelBackgroundColor=none;fontColor=#000000;" vertex="1" parent="eZUKuvoRVgsEIbDF9PON-1">
          <mxGeometry x="-250" y="758" width="280" height="160" as="geometry"/>
        </mxCell>
        <mxCell id="J-Ejjq3flIcWrOYrAO9b-126" style="edgeStyle=orthogonalEdgeStyle;rounded=0;orthogonalLoop=1;jettySize=auto;html=1;fontColor=#000000;" edge="1" parent="eZUKuvoRVgsEIbDF9PON-1" source="J-Ejjq3flIcWrOYrAO9b-105">
          <mxGeometry relative="1" as="geometry">
            <mxPoint x="-1020" y="400" as="targetPoint"/>
            <Array as="points">
              <mxPoint x="-1020" y="320"/>
              <mxPoint x="-1020" y="320"/>
            </Array>
          </mxGeometry>
        </mxCell>
        <mxCell id="xtoQ5N4eppurA6Tmhk-k-5" style="edgeStyle=orthogonalEdgeStyle;rounded=0;orthogonalLoop=1;jettySize=auto;html=1;fontColor=#000000;" edge="1" parent="eZUKuvoRVgsEIbDF9PON-1" source="J-Ejjq3flIcWrOYrAO9b-105">
          <mxGeometry relative="1" as="geometry">
            <mxPoint x="-1060" y="160" as="targetPoint"/>
          </mxGeometry>
        </mxCell>
        <mxCell id="J-Ejjq3flIcWrOYrAO9b-105" value="shmd&lt;br&gt;【电信运营商】" style="rounded=1;whiteSpace=wrap;html=1;fillColor=#6a00ff;strokeColor=#3700CC;fontColor=#ffffff;" vertex="1" parent="eZUKuvoRVgsEIbDF9PON-1">
          <mxGeometry x="-1120" y="270" width="120" height="30" as="geometry"/>
        </mxCell>
        <mxCell id="J-Ejjq3flIcWrOYrAO9b-110" value="sms" style="text;html=1;strokeColor=none;fillColor=none;align=center;verticalAlign=middle;whiteSpace=wrap;rounded=0;labelBackgroundColor=none;fontColor=#000000;" vertex="1" parent="eZUKuvoRVgsEIbDF9PON-1">
          <mxGeometry x="-1060" y="200" width="40" height="20" as="geometry"/>
        </mxCell>
        <mxCell id="J-Ejjq3flIcWrOYrAO9b-190" style="edgeStyle=orthogonalEdgeStyle;rounded=0;orthogonalLoop=1;jettySize=auto;html=1;fontColor=#000000;" edge="1" parent="eZUKuvoRVgsEIbDF9PON-1" source="J-Ejjq3flIcWrOYrAO9b-114">
          <mxGeometry relative="1" as="geometry">
            <mxPoint x="-1500" y="250" as="targetPoint"/>
          </mxGeometry>
        </mxCell>
        <mxCell id="J-Ejjq3flIcWrOYrAO9b-114" value="Customer&lt;br&gt;User" style="shape=umlActor;verticalLabelPosition=bottom;labelBackgroundColor=#ffffff;verticalAlign=top;html=1;outlineConnect=0;strokeColor=#000000;fontColor=#000000;" vertex="1" parent="eZUKuvoRVgsEIbDF9PON-1">
          <mxGeometry x="-1620" y="220" width="30" height="60" as="geometry"/>
        </mxCell>
        <mxCell id="J-Ejjq3flIcWrOYrAO9b-124" style="edgeStyle=orthogonalEdgeStyle;rounded=0;orthogonalLoop=1;jettySize=auto;html=1;entryX=0.5;entryY=0;entryDx=0;entryDy=0;fontColor=#000000;" edge="1" parent="eZUKuvoRVgsEIbDF9PON-1" source="J-Ejjq3flIcWrOYrAO9b-185" target="J-Ejjq3flIcWrOYrAO9b-117">
          <mxGeometry relative="1" as="geometry">
            <mxPoint x="-1360" y="260" as="sourcePoint"/>
            <Array as="points">
              <mxPoint x="-1160" y="260"/>
            </Array>
          </mxGeometry>
        </mxCell>
        <mxCell id="J-Ejjq3flIcWrOYrAO9b-117" value="" style="rounded=1;whiteSpace=wrap;html=1;labelBackgroundColor=none;strokeColor=#000000;fontColor=#000000;" vertex="1" parent="eZUKuvoRVgsEIbDF9PON-1">
          <mxGeometry x="-1270" y="465" width="220" height="210" as="geometry"/>
        </mxCell>
        <mxCell id="J-Ejjq3flIcWrOYrAO9b-118" value="Register" style="rounded=1;whiteSpace=wrap;html=1;fillColor=#6a00ff;strokeColor=#3700CC;fontColor=#ffffff;" vertex="1" parent="eZUKuvoRVgsEIbDF9PON-1">
          <mxGeometry x="-1245" y="485" width="180" height="30" as="geometry"/>
        </mxCell>
        <mxCell id="J-Ejjq3flIcWrOYrAO9b-119" value="Balance" style="rounded=1;whiteSpace=wrap;html=1;fillColor=#6a00ff;strokeColor=#3700CC;fontColor=#ffffff;" vertex="1" parent="eZUKuvoRVgsEIbDF9PON-1">
          <mxGeometry x="-1245" y="519" width="180" height="30" as="geometry"/>
        </mxCell>
        <mxCell id="J-Ejjq3flIcWrOYrAO9b-120" value="Merchants" style="rounded=1;whiteSpace=wrap;html=1;fillColor=#6a00ff;strokeColor=#3700CC;fontColor=#ffffff;" vertex="1" parent="eZUKuvoRVgsEIbDF9PON-1">
          <mxGeometry x="-1245" y="552.5" width="180" height="30" as="geometry"/>
        </mxCell>
        <mxCell id="J-Ejjq3flIcWrOYrAO9b-121" value="Transactions" style="rounded=1;whiteSpace=wrap;html=1;fillColor=#6a00ff;strokeColor=#3700CC;fontColor=#ffffff;" vertex="1" parent="eZUKuvoRVgsEIbDF9PON-1">
          <mxGeometry x="-1245" y="589" width="180" height="30" as="geometry"/>
        </mxCell>
        <mxCell id="J-Ejjq3flIcWrOYrAO9b-122" value="Payment API" style="rounded=1;whiteSpace=wrap;html=1;fillColor=#6a00ff;strokeColor=#3700CC;fontColor=#ffffff;" vertex="1" parent="eZUKuvoRVgsEIbDF9PON-1">
          <mxGeometry x="-1245" y="625" width="180" height="30" as="geometry"/>
        </mxCell>
        <mxCell id="J-Ejjq3flIcWrOYrAO9b-127" value="" style="rounded=1;whiteSpace=wrap;html=1;labelBackgroundColor=none;strokeColor=#000000;fontColor=#000000;" vertex="1" parent="eZUKuvoRVgsEIbDF9PON-1">
          <mxGeometry x="-85" y="499" width="110" height="161" as="geometry"/>
        </mxCell>
        <mxCell id="J-Ejjq3flIcWrOYrAO9b-128" value="V2.1" style="rounded=1;whiteSpace=wrap;html=1;fillColor=#d5e8d4;strokeColor=#82b366;" vertex="1" parent="eZUKuvoRVgsEIbDF9PON-1">
          <mxGeometry x="-75" y="514" width="90" height="30" as="geometry"/>
        </mxCell>
        <mxCell id="J-Ejjq3flIcWrOYrAO9b-129" value="x-api-key" style="rounded=1;whiteSpace=wrap;html=1;fillColor=#d5e8d4;strokeColor=#82b366;" vertex="1" parent="eZUKuvoRVgsEIbDF9PON-1">
          <mxGeometry x="-72.5" y="588" width="80" height="30" as="geometry"/>
        </mxCell>
        <mxCell id="J-Ejjq3flIcWrOYrAO9b-134" value="" style="rounded=1;whiteSpace=wrap;html=1;labelBackgroundColor=none;strokeColor=#000000;fontColor=#000000;" vertex="1" parent="eZUKuvoRVgsEIbDF9PON-1">
          <mxGeometry x="-320" y="519" width="220" height="220" as="geometry"/>
        </mxCell>
        <mxCell id="J-Ejjq3flIcWrOYrAO9b-135" value="registertion[注册]" style="rounded=1;whiteSpace=wrap;html=1;fillColor=#d5e8d4;strokeColor=#82b366;" vertex="1" parent="eZUKuvoRVgsEIbDF9PON-1">
          <mxGeometry x="-310" y="534" width="200" height="30" as="geometry"/>
        </mxCell>
        <mxCell id="J-Ejjq3flIcWrOYrAO9b-136" value="login in" style="rounded=1;whiteSpace=wrap;html=1;fillColor=#d5e8d4;strokeColor=#82b366;" vertex="1" parent="eZUKuvoRVgsEIbDF9PON-1">
          <mxGeometry x="-310" y="574" width="200" height="30" as="geometry"/>
        </mxCell>
        <mxCell id="J-Ejjq3flIcWrOYrAO9b-139" value="pin management" style="rounded=1;whiteSpace=wrap;html=1;fillColor=#d5e8d4;strokeColor=#82b366;" vertex="1" parent="eZUKuvoRVgsEIbDF9PON-1">
          <mxGeometry x="-310" y="614" width="200" height="30" as="geometry"/>
        </mxCell>
        <mxCell id="J-Ejjq3flIcWrOYrAO9b-140" value="payment" style="rounded=1;whiteSpace=wrap;html=1;fillColor=#d5e8d4;strokeColor=#82b366;" vertex="1" parent="eZUKuvoRVgsEIbDF9PON-1">
          <mxGeometry x="-310" y="659" width="200" height="30" as="geometry"/>
        </mxCell>
        <mxCell id="J-Ejjq3flIcWrOYrAO9b-141" value="refund?????" style="rounded=1;whiteSpace=wrap;html=1;fillColor=#e51400;strokeColor=#B20000;fontColor=#ffffff;" vertex="1" parent="eZUKuvoRVgsEIbDF9PON-1">
          <mxGeometry x="-314.5" y="696.5" width="200" height="30" as="geometry"/>
        </mxCell>
        <mxCell id="xtoQ5N4eppurA6Tmhk-k-19" style="edgeStyle=orthogonalEdgeStyle;rounded=0;orthogonalLoop=1;jettySize=auto;html=1;fontColor=#000000;" edge="1" parent="eZUKuvoRVgsEIbDF9PON-1" source="J-Ejjq3flIcWrOYrAO9b-142" target="xtoQ5N4eppurA6Tmhk-k-17">
          <mxGeometry relative="1" as="geometry"/>
        </mxCell>
        <mxCell id="J-Ejjq3flIcWrOYrAO9b-142" value="" style="rounded=1;whiteSpace=wrap;html=1;labelBackgroundColor=none;strokeColor=#000000;fontColor=#000000;" vertex="1" parent="eZUKuvoRVgsEIbDF9PON-1">
          <mxGeometry x="-717" y="760" width="220" height="220" as="geometry"/>
        </mxCell>
        <mxCell id="J-Ejjq3flIcWrOYrAO9b-143" value="registertion[注册]" style="rounded=1;whiteSpace=wrap;html=1;fillColor=#d5e8d4;strokeColor=#82b366;" vertex="1" parent="eZUKuvoRVgsEIbDF9PON-1">
          <mxGeometry x="-707" y="775" width="200" height="30" as="geometry"/>
        </mxCell>
        <mxCell id="J-Ejjq3flIcWrOYrAO9b-144" value="&lt;span style=&quot;color: rgb(0 , 0 , 0)&quot;&gt;card replacement/block&lt;/span&gt;" style="rounded=1;whiteSpace=wrap;html=1;fillColor=#d5e8d4;strokeColor=#82b366;" vertex="1" parent="eZUKuvoRVgsEIbDF9PON-1">
          <mxGeometry x="-707" y="815" width="200" height="30" as="geometry"/>
        </mxCell>
        <mxCell id="J-Ejjq3flIcWrOYrAO9b-145" value="payment" style="rounded=1;whiteSpace=wrap;html=1;fillColor=#d5e8d4;strokeColor=#82b366;" vertex="1" parent="eZUKuvoRVgsEIbDF9PON-1">
          <mxGeometry x="-707" y="855" width="200" height="30" as="geometry"/>
        </mxCell>
        <mxCell id="J-Ejjq3flIcWrOYrAO9b-146" value="????" style="rounded=1;whiteSpace=wrap;html=1;fillColor=#e51400;strokeColor=#B20000;fontColor=#ffffff;" vertex="1" parent="eZUKuvoRVgsEIbDF9PON-1">
          <mxGeometry x="-710" y="896.5" width="200" height="30" as="geometry"/>
        </mxCell>
        <mxCell id="J-Ejjq3flIcWrOYrAO9b-154" value="" style="rounded=1;whiteSpace=wrap;html=1;labelBackgroundColor=none;strokeColor=#000000;fontColor=#000000;" vertex="1" parent="eZUKuvoRVgsEIbDF9PON-1">
          <mxGeometry x="50" y="503" width="130" height="177" as="geometry"/>
        </mxCell>
        <mxCell id="J-Ejjq3flIcWrOYrAO9b-155" value="kiplepark" style="rounded=1;whiteSpace=wrap;html=1;fillColor=#d5e8d4;strokeColor=#82b366;" vertex="1" parent="eZUKuvoRVgsEIbDF9PON-1">
          <mxGeometry x="60" y="518" width="110" height="30" as="geometry"/>
        </mxCell>
        <mxCell id="J-Ejjq3flIcWrOYrAO9b-156" value="bank issam" style="rounded=1;whiteSpace=wrap;html=1;fillColor=#e51400;strokeColor=#B20000;fontColor=#ffffff;" vertex="1" parent="eZUKuvoRVgsEIbDF9PON-1">
          <mxGeometry x="60" y="558" width="110" height="30" as="geometry"/>
        </mxCell>
        <mxCell id="J-Ejjq3flIcWrOYrAO9b-157" value="value go" style="rounded=1;whiteSpace=wrap;html=1;fillColor=#d5e8d4;strokeColor=#82b366;" vertex="1" parent="eZUKuvoRVgsEIbDF9PON-1">
          <mxGeometry x="60" y="595" width="110" height="30" as="geometry"/>
        </mxCell>
        <mxCell id="J-Ejjq3flIcWrOYrAO9b-161" value="token" style="rounded=1;whiteSpace=wrap;html=1;fillColor=#d5e8d4;strokeColor=#82b366;" vertex="1" parent="eZUKuvoRVgsEIbDF9PON-1">
          <mxGeometry x="-75" y="550" width="85" height="30" as="geometry"/>
        </mxCell>
        <mxCell id="J-Ejjq3flIcWrOYrAO9b-162" value="hp hotol？？？" style="rounded=1;whiteSpace=wrap;html=1;fillColor=#e51400;strokeColor=#B20000;fontColor=#ffffff;" vertex="1" parent="eZUKuvoRVgsEIbDF9PON-1">
          <mxGeometry x="-75" y="625" width="80" height="30" as="geometry"/>
        </mxCell>
        <mxCell id="J-Ejjq3flIcWrOYrAO9b-164" value="" style="rounded=1;whiteSpace=wrap;html=1;labelBackgroundColor=none;strokeColor=#000000;fontColor=#000000;" vertex="1" parent="eZUKuvoRVgsEIbDF9PON-1">
          <mxGeometry x="-460" y="943" width="220" height="178" as="geometry"/>
        </mxCell>
        <mxCell id="J-Ejjq3flIcWrOYrAO9b-165" value="card&amp;nbsp;&lt;span style=&quot;color: rgb(0 , 0 , 0)&quot;&gt;registertion&lt;/span&gt;" style="rounded=1;whiteSpace=wrap;html=1;fillColor=#d5e8d4;strokeColor=#82b366;" vertex="1" parent="eZUKuvoRVgsEIbDF9PON-1">
          <mxGeometry x="-450" y="957.5" width="200" height="30" as="geometry"/>
        </mxCell>
        <mxCell id="J-Ejjq3flIcWrOYrAO9b-166" value="balance" style="rounded=1;whiteSpace=wrap;html=1;fillColor=#d5e8d4;strokeColor=#82b366;" vertex="1" parent="eZUKuvoRVgsEIbDF9PON-1">
          <mxGeometry x="-450" y="997.5" width="200" height="30" as="geometry"/>
        </mxCell>
        <mxCell id="J-Ejjq3flIcWrOYrAO9b-167" value="card replacement" style="rounded=1;whiteSpace=wrap;html=1;fillColor=#d5e8d4;strokeColor=#82b366;" vertex="1" parent="eZUKuvoRVgsEIbDF9PON-1">
          <mxGeometry x="-450" y="1037.5" width="200" height="30" as="geometry"/>
        </mxCell>
        <mxCell id="J-Ejjq3flIcWrOYrAO9b-168" value="block[挂失/冻结]" style="rounded=1;whiteSpace=wrap;html=1;fillColor=#d5e8d4;strokeColor=#82b366;" vertex="1" parent="eZUKuvoRVgsEIbDF9PON-1">
          <mxGeometry x="-450" y="1077.5" width="200" height="30" as="geometry"/>
        </mxCell>
        <mxCell id="J-Ejjq3flIcWrOYrAO9b-171" value="settlement" style="rounded=1;whiteSpace=wrap;html=1;fillColor=#d5e8d4;strokeColor=#82b366;" vertex="1" parent="eZUKuvoRVgsEIbDF9PON-1">
          <mxGeometry x="-707" y="937.5" width="200" height="30" as="geometry"/>
        </mxCell>
        <mxCell id="J-Ejjq3flIcWrOYrAO9b-173" value="service &lt;br&gt;third part" style="rounded=1;whiteSpace=wrap;html=1;fillColor=#d5e8d4;strokeColor=#82b366;" vertex="1" parent="eZUKuvoRVgsEIbDF9PON-1">
          <mxGeometry x="640" y="270" width="120" height="30" as="geometry"/>
        </mxCell>
        <mxCell id="J-Ejjq3flIcWrOYrAO9b-175" value="scheduing" style="rounded=1;whiteSpace=wrap;html=1;fillColor=#d5e8d4;strokeColor=#82b366;" vertex="1" parent="eZUKuvoRVgsEIbDF9PON-1">
          <mxGeometry x="840" y="270" width="120" height="30" as="geometry"/>
        </mxCell>
        <mxCell id="J-Ejjq3flIcWrOYrAO9b-185" value="" style="rounded=1;whiteSpace=wrap;html=1;fillColor=#d5e8d4;strokeColor=#82b366;" vertex="1" parent="eZUKuvoRVgsEIbDF9PON-1">
          <mxGeometry x="-1490" y="225" width="120" height="95" as="geometry"/>
        </mxCell>
        <mxCell id="J-Ejjq3flIcWrOYrAO9b-186" value="terminal" style="rounded=1;whiteSpace=wrap;html=1;labelBackgroundColor=none;strokeColor=#d79b00;fillColor=#ffe6cc;" vertex="1" parent="eZUKuvoRVgsEIbDF9PON-1">
          <mxGeometry x="-1475" y="257.5" width="90" height="30" as="geometry"/>
        </mxCell>
        <mxCell id="J-Ejjq3flIcWrOYrAO9b-187" value="shop" style="text;html=1;strokeColor=none;fillColor=none;align=center;verticalAlign=middle;whiteSpace=wrap;rounded=0;labelBackgroundColor=none;fontColor=#000000;" vertex="1" parent="eZUKuvoRVgsEIbDF9PON-1">
          <mxGeometry x="-1450" y="230" width="40" height="20" as="geometry"/>
        </mxCell>
        <mxCell id="J-Ejjq3flIcWrOYrAO9b-188" value="KISS/PP/KIDA" style="rounded=1;whiteSpace=wrap;html=1;labelBackgroundColor=none;strokeColor=#d79b00;fillColor=#ffe6cc;" vertex="1" parent="eZUKuvoRVgsEIbDF9PON-1">
          <mxGeometry x="-1640" y="330" width="90" height="30" as="geometry"/>
        </mxCell>
        <mxCell id="J-Ejjq3flIcWrOYrAO9b-189" value="RM 50-RM30=RM20" style="text;html=1;strokeColor=none;fillColor=none;align=center;verticalAlign=middle;whiteSpace=wrap;rounded=0;labelBackgroundColor=none;fontColor=#000000;" vertex="1" parent="eZUKuvoRVgsEIbDF9PON-1">
          <mxGeometry x="-1350" y="235" width="130" height="20" as="geometry"/>
        </mxCell>
        <mxCell id="ezSkspiKmhy9rRP_RRu9-0" value="当用户钱包小于一定的自己设定的值的时候自动充值" style="text;html=1;strokeColor=none;fillColor=none;align=center;verticalAlign=middle;whiteSpace=wrap;rounded=0;labelBackgroundColor=none;fontColor=#000000;" vertex="1" parent="eZUKuvoRVgsEIbDF9PON-1">
          <mxGeometry x="60" y="640" width="100" height="20" as="geometry"/>
        </mxCell>
        <mxCell id="gQgKnn-fW28YRy9Et5Oi-0" value="&lt;table border=&quot;1&quot; width=&quot;100%&quot; cellpadding=&quot;4&quot; style=&quot;width: 100% ; height: 100% ; border-collapse: collapse&quot;&gt;&lt;tbody&gt;&lt;tr style=&quot;background-color: #a7c942 ; color: #ffffff ; border: 1px solid #98bf21&quot;&gt;&lt;th align=&quot;left&quot;&gt;&lt;br&gt;&lt;/th&gt;&lt;th align=&quot;left&quot;&gt;&lt;br&gt;&lt;/th&gt;&lt;th align=&quot;left&quot;&gt;fee&lt;/th&gt;&lt;/tr&gt;&lt;tr style=&quot;border: 1px solid #98bf21&quot;&gt;&lt;td&gt;1.num&lt;/td&gt;&lt;td&gt;0-10000&lt;/td&gt;&lt;td&gt;2%&lt;/td&gt;&lt;/tr&gt;&lt;tr style=&quot;background-color: #eaf2d3 ; border: 1px solid #98bf21&quot;&gt;&lt;td&gt;2.num&lt;/td&gt;&lt;td&gt;10000-20000&lt;/td&gt;&lt;td&gt;1.8%&lt;/td&gt;&lt;/tr&gt;&lt;tr style=&quot;border: 1px solid #98bf21&quot;&gt;&lt;td&gt;3.num&lt;/td&gt;&lt;td&gt;20000-30000&lt;/td&gt;&lt;td&gt;1.5%&lt;/td&gt;&lt;/tr&gt;&lt;tr style=&quot;background-color: #eaf2d3 ; border: 1px solid #98bf21&quot;&gt;&lt;td&gt;4.num&lt;/td&gt;&lt;td&gt;&amp;gt;400000&lt;/td&gt;&lt;td&gt;1.2%&lt;/td&gt;&lt;/tr&gt;&lt;/tbody&gt;&lt;/table&gt;" style="text;html=1;strokeColor=#c0c0c0;fillColor=#ffffff;overflow=fill;rounded=0;labelBackgroundColor=none;fontColor=#000000;" vertex="1" parent="eZUKuvoRVgsEIbDF9PON-1">
          <mxGeometry x="880" y="1100" width="280" height="160" as="geometry"/>
        </mxCell>
        <mxCell id="uEpgI8H6LDzpi5NkqIfr-0" value="&lt;h1&gt;normal[结算]&lt;/h1&gt;&lt;p&gt;MDR(gros-fee-fee tax = net) fee 2%&lt;/p&gt;&lt;p&gt;transaction&amp;nbsp; &amp;nbsp; gros&amp;nbsp; &amp;nbsp; &amp;nbsp; &amp;nbsp; &amp;nbsp; &amp;nbsp; &amp;nbsp; &amp;nbsp; &amp;nbsp; fee&amp;nbsp; &amp;nbsp; &amp;nbsp; &amp;nbsp; net&amp;nbsp; &amp;nbsp; &amp;nbsp;&lt;/p&gt;&lt;p&gt;item1:&amp;nbsp; &amp;nbsp; &amp;nbsp; &amp;nbsp;RM100:00&amp;nbsp; &amp;nbsp; &amp;nbsp; &amp;nbsp; &amp;nbsp; RM2:00&amp;nbsp; &amp;nbsp;RM98&lt;/p&gt;&lt;p&gt;item2:&amp;nbsp; &amp;nbsp; &amp;nbsp; &amp;nbsp; RM:50:00&amp;nbsp; &amp;nbsp; &amp;nbsp; &amp;nbsp; &amp;nbsp; RM1:00&amp;nbsp; &amp;nbsp; RM49&lt;/p&gt;&lt;p&gt;&amp;nbsp; &amp;nbsp; &amp;nbsp; &amp;nbsp; &amp;nbsp; &amp;nbsp; &amp;nbsp; &amp;nbsp; &amp;nbsp;RM 150&amp;nbsp; &amp;nbsp; &amp;nbsp; &amp;nbsp; &amp;nbsp; &amp;nbsp; &amp;nbsp; &amp;nbsp; &amp;nbsp; &amp;nbsp; &amp;nbsp; &amp;nbsp; &amp;nbsp; &amp;nbsp; &amp;nbsp; &amp;nbsp;RM 98+49&amp;nbsp; &amp;nbsp; &amp;nbsp; &amp;nbsp; &amp;nbsp; &amp;nbsp; &amp;nbsp; &amp;nbsp;&amp;nbsp;&lt;/p&gt;" style="text;html=1;strokeColor=#666666;fillColor=#f5f5f5;spacing=5;spacingTop=-20;whiteSpace=wrap;overflow=hidden;rounded=0;labelBackgroundColor=none;fontColor=#333333;" vertex="1" parent="eZUKuvoRVgsEIbDF9PON-1">
          <mxGeometry x="-160" y="972.5" width="300" height="180" as="geometry"/>
        </mxCell>
        <mxCell id="2qiXh2zgOEdiwyk8abIJ-1" value="&lt;h1&gt;&lt;br&gt;&lt;/h1&gt;&lt;p&gt;&lt;span&gt;type&amp;nbsp; &amp;nbsp; &amp;nbsp;settlement&amp;nbsp; &amp;nbsp; &amp;nbsp;fee&amp;nbsp; &amp;nbsp; &amp;nbsp;enable&amp;nbsp;&lt;/span&gt;&lt;/p&gt;&lt;p&gt;&lt;span&gt;kiple&amp;nbsp; &amp;nbsp; &amp;nbsp; &amp;nbsp; T+1&amp;nbsp; &amp;nbsp; &amp;nbsp; &amp;nbsp; &amp;nbsp; &amp;nbsp;1%&amp;nbsp; &amp;nbsp; &amp;nbsp; &amp;nbsp; &amp;nbsp;true&lt;/span&gt;&lt;/p&gt;&lt;p&gt;&lt;span&gt;fpx&amp;nbsp; &amp;nbsp; &amp;nbsp; &amp;nbsp; &amp;nbsp; &amp;nbsp; T+2&amp;nbsp; &amp;nbsp; &amp;nbsp; &amp;nbsp; &amp;nbsp; 1%&amp;nbsp; &amp;nbsp; &amp;nbsp; true&lt;/span&gt;&lt;/p&gt;&lt;p&gt;&lt;span&gt;cc&amp;nbsp; &amp;nbsp; &amp;nbsp; &amp;nbsp; &amp;nbsp; &amp;nbsp; &amp;nbsp;T+3&amp;nbsp; &amp;nbsp; &amp;nbsp; &amp;nbsp; &amp;nbsp; 1%&amp;nbsp; &amp;nbsp; &amp;nbsp; &amp;nbsp; false&lt;/span&gt;&lt;/p&gt;&lt;p&gt;&lt;span&gt;wechat&amp;nbsp; &amp;nbsp; &amp;nbsp;T+4&amp;nbsp; &amp;nbsp; &amp;nbsp; &amp;nbsp; &amp;nbsp; &amp;nbsp;1%&amp;nbsp; &amp;nbsp; &amp;nbsp; &amp;nbsp;true&lt;/span&gt;&lt;/p&gt;&lt;p&gt;&lt;span&gt;alipay&amp;nbsp; &amp;nbsp; &amp;nbsp; &amp;nbsp; T+1&amp;nbsp; &amp;nbsp; &amp;nbsp; &amp;nbsp; &amp;nbsp; ...&amp;nbsp; &amp;nbsp; &amp;nbsp; &amp;nbsp; &amp;nbsp;false&lt;/span&gt;&lt;/p&gt;&lt;p&gt;&lt;span&gt;touch&#39;i go&amp;nbsp; &amp;nbsp;T+1&amp;nbsp; &amp;nbsp; &amp;nbsp; &amp;nbsp; &amp;nbsp;...&amp;nbsp; &amp;nbsp; &amp;nbsp; &amp;nbsp; &amp;nbsp; false&lt;/span&gt;&lt;/p&gt;&lt;p&gt;&lt;span&gt;&amp;nbsp; boost&amp;nbsp; &amp;nbsp; &amp;nbsp; &amp;nbsp;T+4&amp;nbsp; &amp;nbsp; &amp;nbsp; &amp;nbsp; &amp;nbsp;...&amp;nbsp; &amp;nbsp; &amp;nbsp; &amp;nbsp; &amp;nbsp; &amp;nbsp; &amp;nbsp;false&amp;nbsp; &amp;nbsp; &amp;nbsp; &amp;nbsp; &amp;nbsp; &amp;nbsp; &amp;nbsp; &amp;nbsp;&lt;/span&gt;&lt;br&gt;&lt;/p&gt;" style="text;html=1;strokeColor=#666666;fillColor=#f5f5f5;spacing=5;spacingTop=-20;whiteSpace=wrap;overflow=hidden;rounded=0;labelBackgroundColor=none;fontColor=#333333;" vertex="1" parent="eZUKuvoRVgsEIbDF9PON-1">
          <mxGeometry x="980" y="400" width="300" height="260" as="geometry"/>
        </mxCell>
        <mxCell id="xtoQ5N4eppurA6Tmhk-k-3" style="edgeStyle=orthogonalEdgeStyle;rounded=0;orthogonalLoop=1;jettySize=auto;html=1;fontColor=#000000;" edge="1" parent="eZUKuvoRVgsEIbDF9PON-1" source="xtoQ5N4eppurA6Tmhk-k-2" target="J-Ejjq3flIcWrOYrAO9b-93">
          <mxGeometry relative="1" as="geometry"/>
        </mxCell>
        <mxCell id="xtoQ5N4eppurA6Tmhk-k-2" value="可以通过发短信注册，查询余额等功能" style="text;html=1;strokeColor=none;fillColor=none;align=center;verticalAlign=middle;whiteSpace=wrap;rounded=0;labelBackgroundColor=none;fontColor=#000000;" vertex="1" parent="eZUKuvoRVgsEIbDF9PON-1">
          <mxGeometry x="-1257.5" y="-30" width="180" height="20" as="geometry"/>
        </mxCell>
        <mxCell id="xtoQ5N4eppurA6Tmhk-k-6" value="记录商户的客户信息??" style="text;html=1;strokeColor=#B20000;fillColor=#e51400;align=center;verticalAlign=middle;whiteSpace=wrap;rounded=0;labelBackgroundColor=none;fontColor=#ffffff;" vertex="1" parent="eZUKuvoRVgsEIbDF9PON-1">
          <mxGeometry x="720" y="355" width="140" height="20" as="geometry"/>
        </mxCell>
        <mxCell id="xtoQ5N4eppurA6Tmhk-k-17" value="架构和政府的比较类似" style="text;html=1;strokeColor=none;fillColor=none;align=center;verticalAlign=middle;whiteSpace=wrap;rounded=0;labelBackgroundColor=none;fontColor=#000000;" vertex="1" parent="eZUKuvoRVgsEIbDF9PON-1">
          <mxGeometry x="-710.5" y="1047.5" width="227" height="25" as="geometry"/>
        </mxCell>
        <mxCell id="xtoQ5N4eppurA6Tmhk-k-21" value="&amp;lt;20充值&lt;br&gt;100&lt;br&gt;credit/debit" style="text;html=1;align=center;verticalAlign=middle;resizable=0;points=[];;autosize=1;fontColor=#000000;" vertex="1" parent="eZUKuvoRVgsEIbDF9PON-1">
          <mxGeometry x="200" y="455" width="80" height="50" as="geometry"/>
        </mxCell>
        <mxCell id="xtoQ5N4eppurA6Tmhk-k-24" style="edgeStyle=orthogonalEdgeStyle;rounded=0;orthogonalLoop=1;jettySize=auto;html=1;entryX=0;entryY=0.5;entryDx=0;entryDy=0;fontColor=#000000;" edge="1" parent="eZUKuvoRVgsEIbDF9PON-1" source="xtoQ5N4eppurA6Tmhk-k-22" target="xtoQ5N4eppurA6Tmhk-k-23">
          <mxGeometry relative="1" as="geometry"/>
        </mxCell>
        <mxCell id="xtoQ5N4eppurA6Tmhk-k-22" value="Actor" style="shape=umlActor;verticalLabelPosition=bottom;labelBackgroundColor=#ffffff;verticalAlign=top;html=1;outlineConnect=0;strokeColor=#000000;fontColor=#000000;" vertex="1" parent="eZUKuvoRVgsEIbDF9PON-1">
          <mxGeometry x="140" y="437" width="30" height="39" as="geometry"/>
        </mxCell>
        <mxCell id="xtoQ5N4eppurA6Tmhk-k-23" value="walet" style="rounded=1;whiteSpace=wrap;html=1;labelBackgroundColor=none;strokeColor=#000000;fontColor=#000000;" vertex="1" parent="eZUKuvoRVgsEIbDF9PON-1">
          <mxGeometry x="210" y="430" width="60" height="20" as="geometry"/>
        </mxCell>
        <mxCell id="xtoQ5N4eppurA6Tmhk-k-30" value="TPA" style="rounded=1;whiteSpace=wrap;html=1;fillColor=#d5e8d4;strokeColor=#82b366;" vertex="1" parent="eZUKuvoRVgsEIbDF9PON-1">
          <mxGeometry x="550" y="497.5" width="120" height="30" as="geometry"/>
        </mxCell>
        <mxCell id="-u0liNc7cSLWuUvfFJDH-2" value="&lt;h1&gt;first of every month&lt;/h1&gt;&lt;p&gt;scheduer&lt;/p&gt;&lt;p&gt;&amp;nbsp; &amp;nbsp; Debit money in cards ====&amp;gt;DR&lt;/p&gt;&lt;p&gt;---&amp;gt;credit the money&amp;nbsp; &amp;nbsp; &amp;nbsp; ========&amp;gt;CR&lt;/p&gt;&lt;p&gt;&amp;nbsp; &amp;nbsp;--&amp;gt;kiss ---&amp;gt;800&lt;/p&gt;&lt;p&gt;&amp;nbsp; ---&amp;gt;pp&amp;nbsp; ---&amp;gt; 80&lt;/p&gt;&lt;p&gt;&amp;nbsp;----&amp;gt;kida ---&amp;gt;250&lt;/p&gt;" style="text;html=1;strokeColor=none;fillColor=none;spacing=5;spacingTop=-20;whiteSpace=wrap;overflow=hidden;rounded=0;labelBackgroundColor=none;fontColor=#000000;" vertex="1" parent="eZUKuvoRVgsEIbDF9PON-1">
          <mxGeometry x="-1577.5" y="-550" width="410" height="230" as="geometry"/>
        </mxCell>
        <mxCell id="-u0liNc7cSLWuUvfFJDH-3" value="&lt;h1&gt;&lt;br&gt;&lt;/h1&gt;&lt;p&gt;WBC RXG&lt;/p&gt;&lt;p&gt;&amp;nbsp; &amp;nbsp; &amp;nbsp; &amp;nbsp; &amp;nbsp; 63000&lt;/p&gt;&lt;p&gt;WBC&amp;nbsp; &amp;nbsp; BAL&amp;nbsp; &amp;nbsp; &amp;nbsp; &amp;nbsp; &amp;nbsp; &amp;nbsp; &amp;nbsp; &amp;nbsp;car num&amp;nbsp; &amp;nbsp; &amp;nbsp;PIN&lt;/p&gt;&lt;p&gt;WBC&amp;nbsp; &amp;nbsp; &amp;nbsp; BLOCK&lt;/p&gt;" style="text;html=1;strokeColor=none;fillColor=none;spacing=5;spacingTop=-20;whiteSpace=wrap;overflow=hidden;rounded=0;labelBackgroundColor=none;fontColor=#000000;" vertex="1" parent="eZUKuvoRVgsEIbDF9PON-1">
          <mxGeometry x="-1615" y="-20" width="335" height="230" as="geometry"/>
        </mxCell>
      </root>
    </mxGraphModel>
  </diagram>
  <diagram id="3zGYNLCw96s2aYM6XRIp" name="第 3 页">
    <mxGraphModel dx="1257" dy="526" grid="1" gridSize="10" guides="1" tooltips="1" connect="1" arrows="1" fold="1" page="1" pageScale="1" pageWidth="827" pageHeight="1169" math="0" shadow="0">
      <root>
        <mxCell id="UgizBGsDC4K0p9YgKnSn-0"/>
        <mxCell id="UgizBGsDC4K0p9YgKnSn-1" parent="UgizBGsDC4K0p9YgKnSn-0"/>
        <mxCell id="QpGRPqhAUSW6SKlbl3wY-0" value="&lt;h1&gt;normal&lt;/h1&gt;&lt;p&gt;&lt;span&gt;type&amp;nbsp; &amp;nbsp; &amp;nbsp;settlement&amp;nbsp; &amp;nbsp; &amp;nbsp;fee&amp;nbsp; &amp;nbsp; &amp;nbsp;enable&amp;nbsp;&lt;/span&gt;&lt;/p&gt;&lt;p&gt;&lt;span&gt;kiple&amp;nbsp; &amp;nbsp; &amp;nbsp; &amp;nbsp; T+1&amp;nbsp; &amp;nbsp; &amp;nbsp; &amp;nbsp; &amp;nbsp; &amp;nbsp;1%&amp;nbsp; &amp;nbsp; &amp;nbsp; &amp;nbsp; &amp;nbsp;true&lt;/span&gt;&lt;/p&gt;&lt;p&gt;&lt;span&gt;fpx&amp;nbsp; &amp;nbsp; &amp;nbsp; &amp;nbsp; &amp;nbsp; &amp;nbsp; T+2&amp;nbsp; &amp;nbsp; &amp;nbsp; &amp;nbsp; &amp;nbsp; 1%&amp;nbsp; &amp;nbsp; &amp;nbsp; true&lt;/span&gt;&lt;/p&gt;&lt;p&gt;&lt;span&gt;cc&amp;nbsp; &amp;nbsp; &amp;nbsp; &amp;nbsp; &amp;nbsp; &amp;nbsp; &amp;nbsp;T+3&amp;nbsp; &amp;nbsp; &amp;nbsp; &amp;nbsp; &amp;nbsp; 1%&amp;nbsp; &amp;nbsp; &amp;nbsp; &amp;nbsp; no&lt;/span&gt;&lt;/p&gt;&lt;p&gt;&lt;span&gt;wechat&amp;nbsp; &amp;nbsp; &amp;nbsp;T+4&amp;nbsp; &amp;nbsp; &amp;nbsp; &amp;nbsp; &amp;nbsp; &amp;nbsp;1%&amp;nbsp; &amp;nbsp; &amp;nbsp; &amp;nbsp;true&lt;/span&gt;&lt;/p&gt;&lt;p&gt;&lt;span&gt;billpay&amp;nbsp; &amp;nbsp; &amp;nbsp; &amp;nbsp; T+1&amp;nbsp; &amp;nbsp; &amp;nbsp; &amp;nbsp; &amp;nbsp; ...&amp;nbsp; &amp;nbsp; &amp;nbsp; &amp;nbsp; &amp;nbsp;no&lt;/span&gt;&lt;/p&gt;&lt;p&gt;&lt;span&gt;touch&#39;i go&amp;nbsp; &amp;nbsp;T+1&amp;nbsp; &amp;nbsp; &amp;nbsp; &amp;nbsp; &amp;nbsp;...&amp;nbsp; &amp;nbsp; &amp;nbsp; &amp;nbsp; &amp;nbsp; no&lt;/span&gt;&lt;/p&gt;&lt;p&gt;&lt;span&gt;&amp;nbsp; &amp;nbsp; &amp;nbsp; &amp;nbsp; &amp;nbsp; &amp;nbsp; &amp;nbsp; &amp;nbsp;&amp;nbsp;&lt;/span&gt;&lt;br&gt;&lt;/p&gt;" style="text;html=1;strokeColor=#666666;fillColor=#f5f5f5;spacing=5;spacingTop=-20;whiteSpace=wrap;overflow=hidden;rounded=0;labelBackgroundColor=none;fontColor=#333333;" vertex="1" parent="UgizBGsDC4K0p9YgKnSn-1">
          <mxGeometry x="240" y="344" width="300" height="240" as="geometry"/>
        </mxCell>
        <mxCell id="DvQ1miLZ7kvh_ShP1wwF-0" value="&lt;h1&gt;结算&lt;/h1&gt;&lt;p&gt;&lt;span&gt;type&amp;nbsp; &amp;nbsp; &amp;nbsp;settlement&amp;nbsp; &amp;nbsp; &amp;nbsp;fee&amp;nbsp; &amp;nbsp; &amp;nbsp;enable&amp;nbsp;&lt;/span&gt;&lt;/p&gt;&lt;p&gt;&lt;span&gt;kiple&amp;nbsp; &amp;nbsp; &amp;nbsp; &amp;nbsp; T+1&amp;nbsp; &amp;nbsp; &amp;nbsp; &amp;nbsp; &amp;nbsp; &amp;nbsp;1%&amp;nbsp; &amp;nbsp; &amp;nbsp; &amp;nbsp; &amp;nbsp;true&lt;/span&gt;&lt;/p&gt;&lt;p&gt;&lt;span&gt;fpx&amp;nbsp; &amp;nbsp; &amp;nbsp; &amp;nbsp; &amp;nbsp; &amp;nbsp; T+2&amp;nbsp; &amp;nbsp; &amp;nbsp; &amp;nbsp; &amp;nbsp; 1%&amp;nbsp; &amp;nbsp; &amp;nbsp; true&lt;/span&gt;&lt;/p&gt;&lt;p&gt;&lt;span&gt;cc&amp;nbsp; &amp;nbsp; &amp;nbsp; &amp;nbsp; &amp;nbsp; &amp;nbsp; &amp;nbsp;T+3&amp;nbsp; &amp;nbsp; &amp;nbsp; &amp;nbsp; &amp;nbsp; 1%&amp;nbsp; &amp;nbsp; &amp;nbsp; &amp;nbsp; no&lt;/span&gt;&lt;/p&gt;&lt;p&gt;&lt;span&gt;wechat&amp;nbsp; &amp;nbsp; &amp;nbsp;T+4&amp;nbsp; &amp;nbsp; &amp;nbsp; &amp;nbsp; &amp;nbsp; &amp;nbsp;1%&amp;nbsp; &amp;nbsp; &amp;nbsp; &amp;nbsp;true&lt;/span&gt;&lt;/p&gt;&lt;p&gt;&lt;span&gt;billpay&amp;nbsp; &amp;nbsp; &amp;nbsp; &amp;nbsp; T+1&amp;nbsp; &amp;nbsp; &amp;nbsp; &amp;nbsp; &amp;nbsp; ...&amp;nbsp; &amp;nbsp; &amp;nbsp; &amp;nbsp; &amp;nbsp;no&lt;/span&gt;&lt;/p&gt;&lt;p&gt;&lt;span&gt;touch&#39;i go&amp;nbsp; &amp;nbsp;T+1&amp;nbsp; &amp;nbsp; &amp;nbsp; &amp;nbsp; &amp;nbsp;...&amp;nbsp; &amp;nbsp; &amp;nbsp; &amp;nbsp; &amp;nbsp; no&lt;/span&gt;&lt;/p&gt;&lt;p&gt;&lt;span&gt;&amp;nbsp; &amp;nbsp; &amp;nbsp; &amp;nbsp; &amp;nbsp; &amp;nbsp; &amp;nbsp; &amp;nbsp;&amp;nbsp;&lt;/span&gt;&lt;br&gt;&lt;/p&gt;" style="text;html=1;strokeColor=#666666;fillColor=#f5f5f5;spacing=5;spacingTop=-20;whiteSpace=wrap;overflow=hidden;rounded=0;labelBackgroundColor=none;fontColor=#333333;" vertex="1" parent="UgizBGsDC4K0p9YgKnSn-1">
          <mxGeometry x="210" y="700" width="300" height="240" as="geometry"/>
        </mxCell>
      </root>
    </mxGraphModel>
  </diagram>
  <diagram id="tpiHKCBlbG8kmrS4xuyk" name="第 4 页">
    <mxGraphModel dx="1479" dy="619" grid="1" gridSize="10" guides="1" tooltips="1" connect="1" arrows="1" fold="1" page="1" pageScale="1" pageWidth="827" pageHeight="1169" math="0" shadow="0">
      <root>
        <mxCell id="UF1ZXIA7zIRzBSTpUH8o-0"/>
        <mxCell id="UF1ZXIA7zIRzBSTpUH8o-1" parent="UF1ZXIA7zIRzBSTpUH8o-0"/>
        <mxCell id="oZaHY52OytGmV67nLyRM-0" value="" style="rounded=0;whiteSpace=wrap;html=1;labelBackgroundColor=none;strokeColor=#000000;fontColor=#000000;" vertex="1" parent="UF1ZXIA7zIRzBSTpUH8o-1">
          <mxGeometry x="460" y="855" width="930" height="245" as="geometry"/>
        </mxCell>
        <mxCell id="oZaHY52OytGmV67nLyRM-1" style="edgeStyle=orthogonalEdgeStyle;rounded=0;orthogonalLoop=1;jettySize=auto;html=1;entryX=0.417;entryY=0.2;entryDx=0;entryDy=0;entryPerimeter=0;fontColor=#000000;fillColor=#0050ef;strokeColor=#001DBC;" edge="1" source="oZaHY52OytGmV67nLyRM-3" target="oZaHY52OytGmV67nLyRM-114" parent="UF1ZXIA7zIRzBSTpUH8o-1">
          <mxGeometry relative="1" as="geometry"/>
        </mxCell>
        <mxCell id="oZaHY52OytGmV67nLyRM-2" style="edgeStyle=orthogonalEdgeStyle;rounded=0;orthogonalLoop=1;jettySize=auto;html=1;entryX=1;entryY=0.5;entryDx=0;entryDy=0;fontColor=#000000;" edge="1" source="oZaHY52OytGmV67nLyRM-3" target="oZaHY52OytGmV67nLyRM-93" parent="UF1ZXIA7zIRzBSTpUH8o-1">
          <mxGeometry relative="1" as="geometry"/>
        </mxCell>
        <mxCell id="oZaHY52OytGmV67nLyRM-3" value="" style="rounded=1;whiteSpace=wrap;html=1;labelBackgroundColor=none;strokeColor=#666666;fontColor=#333333;fillColor=#f5f5f5;" vertex="1" parent="UF1ZXIA7zIRzBSTpUH8o-1">
          <mxGeometry x="850" y="780" width="480" height="70" as="geometry"/>
        </mxCell>
        <mxCell id="oZaHY52OytGmV67nLyRM-4" style="edgeStyle=orthogonalEdgeStyle;rounded=0;orthogonalLoop=1;jettySize=auto;html=1;exitX=0.5;exitY=1;exitDx=0;exitDy=0;" edge="1" source="oZaHY52OytGmV67nLyRM-11" target="oZaHY52OytGmV67nLyRM-20" parent="UF1ZXIA7zIRzBSTpUH8o-1">
          <mxGeometry relative="1" as="geometry"/>
        </mxCell>
        <mxCell id="oZaHY52OytGmV67nLyRM-5" style="edgeStyle=orthogonalEdgeStyle;rounded=0;orthogonalLoop=1;jettySize=auto;html=1;entryX=0.5;entryY=0;entryDx=0;entryDy=0;" edge="1" parent="UF1ZXIA7zIRzBSTpUH8o-1">
          <mxGeometry relative="1" as="geometry">
            <mxPoint x="2079.3333333333335" y="615.666666666667" as="sourcePoint"/>
            <mxPoint x="2269.333333333334" y="684" as="targetPoint"/>
            <Array as="points">
              <mxPoint x="2080" y="645"/>
              <mxPoint x="2270" y="645"/>
            </Array>
          </mxGeometry>
        </mxCell>
        <mxCell id="oZaHY52OytGmV67nLyRM-6" style="edgeStyle=orthogonalEdgeStyle;rounded=0;orthogonalLoop=1;jettySize=auto;html=1;" edge="1" source="oZaHY52OytGmV67nLyRM-11" target="oZaHY52OytGmV67nLyRM-22" parent="UF1ZXIA7zIRzBSTpUH8o-1">
          <mxGeometry relative="1" as="geometry"/>
        </mxCell>
        <mxCell id="oZaHY52OytGmV67nLyRM-7" style="edgeStyle=orthogonalEdgeStyle;rounded=0;orthogonalLoop=1;jettySize=auto;html=1;entryX=0.5;entryY=0;entryDx=0;entryDy=0;" edge="1" source="oZaHY52OytGmV67nLyRM-11" target="oZaHY52OytGmV67nLyRM-24" parent="UF1ZXIA7zIRzBSTpUH8o-1">
          <mxGeometry relative="1" as="geometry"/>
        </mxCell>
        <mxCell id="oZaHY52OytGmV67nLyRM-8" style="edgeStyle=orthogonalEdgeStyle;rounded=0;orthogonalLoop=1;jettySize=auto;html=1;entryX=1;entryY=0.5;entryDx=0;entryDy=0;" edge="1" source="oZaHY52OytGmV67nLyRM-11" target="oZaHY52OytGmV67nLyRM-61" parent="UF1ZXIA7zIRzBSTpUH8o-1">
          <mxGeometry relative="1" as="geometry"/>
        </mxCell>
        <mxCell id="oZaHY52OytGmV67nLyRM-9" style="edgeStyle=orthogonalEdgeStyle;rounded=0;orthogonalLoop=1;jettySize=auto;html=1;fontColor=#000000;" edge="1" parent="UF1ZXIA7zIRzBSTpUH8o-1">
          <mxGeometry relative="1" as="geometry">
            <mxPoint x="2079.3333333333335" y="605.666666666667" as="sourcePoint"/>
            <mxPoint x="2469.333333333334" y="675.666666666667" as="targetPoint"/>
            <Array as="points">
              <mxPoint x="2080" y="646"/>
              <mxPoint x="2470" y="646"/>
            </Array>
          </mxGeometry>
        </mxCell>
        <mxCell id="oZaHY52OytGmV67nLyRM-10" style="edgeStyle=orthogonalEdgeStyle;rounded=0;orthogonalLoop=1;jettySize=auto;html=1;entryX=0.558;entryY=0.033;entryDx=0;entryDy=0;entryPerimeter=0;fontColor=#000000;" edge="1" parent="UF1ZXIA7zIRzBSTpUH8o-1">
          <mxGeometry relative="1" as="geometry">
            <mxPoint x="2079.3333333333335" y="605.666666666667" as="sourcePoint"/>
            <mxPoint x="2676" y="677.3333333333335" as="targetPoint"/>
            <Array as="points">
              <mxPoint x="2080" y="646"/>
              <mxPoint x="2677" y="646"/>
            </Array>
          </mxGeometry>
        </mxCell>
        <mxCell id="oZaHY52OytGmV67nLyRM-11" value="kiplebiz/webcash" style="rounded=1;whiteSpace=wrap;html=1;fillColor=#fff2cc;strokeColor=#d6b656;" vertex="1" parent="UF1ZXIA7zIRzBSTpUH8o-1">
          <mxGeometry x="2020" y="550" width="120" height="60" as="geometry"/>
        </mxCell>
        <mxCell id="oZaHY52OytGmV67nLyRM-12" style="edgeStyle=orthogonalEdgeStyle;rounded=0;orthogonalLoop=1;jettySize=auto;html=1;fontColor=#000000;" edge="1" source="oZaHY52OytGmV67nLyRM-20" target="oZaHY52OytGmV67nLyRM-91" parent="UF1ZXIA7zIRzBSTpUH8o-1">
          <mxGeometry relative="1" as="geometry">
            <Array as="points">
              <mxPoint x="1850" y="750"/>
              <mxPoint x="1990" y="750"/>
            </Array>
          </mxGeometry>
        </mxCell>
        <mxCell id="oZaHY52OytGmV67nLyRM-13" style="edgeStyle=orthogonalEdgeStyle;rounded=0;orthogonalLoop=1;jettySize=auto;html=1;entryX=0.5;entryY=0;entryDx=0;entryDy=0;fontColor=#000000;" edge="1" source="oZaHY52OytGmV67nLyRM-20" target="oZaHY52OytGmV67nLyRM-88" parent="UF1ZXIA7zIRzBSTpUH8o-1">
          <mxGeometry relative="1" as="geometry"/>
        </mxCell>
        <mxCell id="oZaHY52OytGmV67nLyRM-14" style="edgeStyle=orthogonalEdgeStyle;rounded=0;orthogonalLoop=1;jettySize=auto;html=1;fontColor=#000000;" edge="1" source="oZaHY52OytGmV67nLyRM-20" target="oZaHY52OytGmV67nLyRM-86" parent="UF1ZXIA7zIRzBSTpUH8o-1">
          <mxGeometry relative="1" as="geometry">
            <Array as="points">
              <mxPoint x="1850" y="750"/>
              <mxPoint x="1680" y="750"/>
            </Array>
          </mxGeometry>
        </mxCell>
        <mxCell id="oZaHY52OytGmV67nLyRM-15" style="edgeStyle=orthogonalEdgeStyle;rounded=0;orthogonalLoop=1;jettySize=auto;html=1;entryX=0.5;entryY=0;entryDx=0;entryDy=0;fontColor=#000000;" edge="1" source="oZaHY52OytGmV67nLyRM-20" target="oZaHY52OytGmV67nLyRM-84" parent="UF1ZXIA7zIRzBSTpUH8o-1">
          <mxGeometry relative="1" as="geometry">
            <Array as="points">
              <mxPoint x="1850" y="751"/>
              <mxPoint x="1540" y="751"/>
            </Array>
          </mxGeometry>
        </mxCell>
        <mxCell id="oZaHY52OytGmV67nLyRM-16" style="edgeStyle=orthogonalEdgeStyle;rounded=0;orthogonalLoop=1;jettySize=auto;html=1;entryX=0.5;entryY=0;entryDx=0;entryDy=0;fontColor=#000000;" edge="1" source="oZaHY52OytGmV67nLyRM-20" target="oZaHY52OytGmV67nLyRM-80" parent="UF1ZXIA7zIRzBSTpUH8o-1">
          <mxGeometry relative="1" as="geometry">
            <Array as="points">
              <mxPoint x="1850" y="751"/>
              <mxPoint x="1250" y="751"/>
            </Array>
          </mxGeometry>
        </mxCell>
        <mxCell id="oZaHY52OytGmV67nLyRM-17" style="edgeStyle=orthogonalEdgeStyle;rounded=0;orthogonalLoop=1;jettySize=auto;html=1;entryX=0.5;entryY=0;entryDx=0;entryDy=0;fontColor=#000000;" edge="1" source="oZaHY52OytGmV67nLyRM-20" target="oZaHY52OytGmV67nLyRM-79" parent="UF1ZXIA7zIRzBSTpUH8o-1">
          <mxGeometry relative="1" as="geometry">
            <Array as="points">
              <mxPoint x="1850" y="751"/>
              <mxPoint x="1100" y="751"/>
            </Array>
          </mxGeometry>
        </mxCell>
        <mxCell id="oZaHY52OytGmV67nLyRM-18" style="edgeStyle=orthogonalEdgeStyle;rounded=0;orthogonalLoop=1;jettySize=auto;html=1;entryX=0.586;entryY=-0.119;entryDx=0;entryDy=0;entryPerimeter=0;fontColor=#000000;" edge="1" source="oZaHY52OytGmV67nLyRM-20" target="oZaHY52OytGmV67nLyRM-78" parent="UF1ZXIA7zIRzBSTpUH8o-1">
          <mxGeometry relative="1" as="geometry">
            <Array as="points">
              <mxPoint x="1850" y="751"/>
              <mxPoint x="950" y="751"/>
            </Array>
          </mxGeometry>
        </mxCell>
        <mxCell id="oZaHY52OytGmV67nLyRM-19" style="edgeStyle=orthogonalEdgeStyle;rounded=0;orthogonalLoop=1;jettySize=auto;html=1;entryX=0.578;entryY=-0.057;entryDx=0;entryDy=0;entryPerimeter=0;fontColor=#000000;" edge="1" source="oZaHY52OytGmV67nLyRM-20" target="oZaHY52OytGmV67nLyRM-82" parent="UF1ZXIA7zIRzBSTpUH8o-1">
          <mxGeometry relative="1" as="geometry">
            <Array as="points">
              <mxPoint x="1850" y="750"/>
              <mxPoint x="1420" y="750"/>
            </Array>
          </mxGeometry>
        </mxCell>
        <mxCell id="oZaHY52OytGmV67nLyRM-20" value="waas" style="rounded=1;whiteSpace=wrap;html=1;fillColor=#d5e8d4;strokeColor=#82b366;" vertex="1" parent="UF1ZXIA7zIRzBSTpUH8o-1">
          <mxGeometry x="1790" y="680" width="120" height="30" as="geometry"/>
        </mxCell>
        <mxCell id="oZaHY52OytGmV67nLyRM-21" style="edgeStyle=orthogonalEdgeStyle;rounded=0;orthogonalLoop=1;jettySize=auto;html=1;fontColor=#000000;entryX=0.5;entryY=0;entryDx=0;entryDy=0;" edge="1" source="oZaHY52OytGmV67nLyRM-22" target="oZaHY52OytGmV67nLyRM-94" parent="UF1ZXIA7zIRzBSTpUH8o-1">
          <mxGeometry relative="1" as="geometry">
            <mxPoint x="1940" y="920" as="targetPoint"/>
            <Array as="points">
              <mxPoint x="1990" y="740"/>
              <mxPoint x="2070" y="740"/>
            </Array>
          </mxGeometry>
        </mxCell>
        <mxCell id="oZaHY52OytGmV67nLyRM-22" value="user portal" style="rounded=1;whiteSpace=wrap;html=1;fillColor=#d5e8d4;strokeColor=#82b366;" vertex="1" parent="UF1ZXIA7zIRzBSTpUH8o-1">
          <mxGeometry x="1930" y="680" width="120" height="30" as="geometry"/>
        </mxCell>
        <mxCell id="oZaHY52OytGmV67nLyRM-23" style="edgeStyle=orthogonalEdgeStyle;rounded=0;orthogonalLoop=1;jettySize=auto;html=1;fontColor=#000000;" edge="1" source="oZaHY52OytGmV67nLyRM-24" target="oZaHY52OytGmV67nLyRM-100" parent="UF1ZXIA7zIRzBSTpUH8o-1">
          <mxGeometry relative="1" as="geometry"/>
        </mxCell>
        <mxCell id="oZaHY52OytGmV67nLyRM-24" value="merchant portal" style="rounded=1;whiteSpace=wrap;html=1;fillColor=#d5e8d4;strokeColor=#82b366;" vertex="1" parent="UF1ZXIA7zIRzBSTpUH8o-1">
          <mxGeometry x="2070" y="680" width="120" height="30" as="geometry"/>
        </mxCell>
        <mxCell id="oZaHY52OytGmV67nLyRM-25" style="edgeStyle=orthogonalEdgeStyle;rounded=0;orthogonalLoop=1;jettySize=auto;html=1;entryX=0;entryY=0.5;entryDx=0;entryDy=0;fontColor=#000000;" edge="1" source="oZaHY52OytGmV67nLyRM-34" target="oZaHY52OytGmV67nLyRM-67" parent="UF1ZXIA7zIRzBSTpUH8o-1">
          <mxGeometry relative="1" as="geometry"/>
        </mxCell>
        <mxCell id="oZaHY52OytGmV67nLyRM-26" style="edgeStyle=orthogonalEdgeStyle;rounded=0;orthogonalLoop=1;jettySize=auto;html=1;entryX=0;entryY=0.5;entryDx=0;entryDy=0;fontColor=#000000;" edge="1" source="oZaHY52OytGmV67nLyRM-34" target="oZaHY52OytGmV67nLyRM-64" parent="UF1ZXIA7zIRzBSTpUH8o-1">
          <mxGeometry relative="1" as="geometry"/>
        </mxCell>
        <mxCell id="oZaHY52OytGmV67nLyRM-27" style="edgeStyle=orthogonalEdgeStyle;rounded=0;orthogonalLoop=1;jettySize=auto;html=1;entryX=0;entryY=0.5;entryDx=0;entryDy=0;fontColor=#000000;" edge="1" source="oZaHY52OytGmV67nLyRM-34" target="oZaHY52OytGmV67nLyRM-68" parent="UF1ZXIA7zIRzBSTpUH8o-1">
          <mxGeometry relative="1" as="geometry"/>
        </mxCell>
        <mxCell id="oZaHY52OytGmV67nLyRM-28" style="edgeStyle=orthogonalEdgeStyle;rounded=0;orthogonalLoop=1;jettySize=auto;html=1;entryX=0;entryY=0.75;entryDx=0;entryDy=0;fontColor=#000000;" edge="1" source="oZaHY52OytGmV67nLyRM-34" target="oZaHY52OytGmV67nLyRM-69" parent="UF1ZXIA7zIRzBSTpUH8o-1">
          <mxGeometry relative="1" as="geometry">
            <Array as="points">
              <mxPoint x="2270" y="1160"/>
            </Array>
          </mxGeometry>
        </mxCell>
        <mxCell id="oZaHY52OytGmV67nLyRM-29" style="edgeStyle=orthogonalEdgeStyle;rounded=0;orthogonalLoop=1;jettySize=auto;html=1;entryX=0;entryY=0.5;entryDx=0;entryDy=0;fontColor=#000000;" edge="1" source="oZaHY52OytGmV67nLyRM-34" target="oZaHY52OytGmV67nLyRM-70" parent="UF1ZXIA7zIRzBSTpUH8o-1">
          <mxGeometry relative="1" as="geometry">
            <Array as="points">
              <mxPoint x="2270" y="1263"/>
            </Array>
          </mxGeometry>
        </mxCell>
        <mxCell id="oZaHY52OytGmV67nLyRM-30" style="edgeStyle=orthogonalEdgeStyle;rounded=0;orthogonalLoop=1;jettySize=auto;html=1;entryX=0;entryY=0.5;entryDx=0;entryDy=0;fontColor=#000000;" edge="1" source="oZaHY52OytGmV67nLyRM-34" target="oZaHY52OytGmV67nLyRM-71" parent="UF1ZXIA7zIRzBSTpUH8o-1">
          <mxGeometry relative="1" as="geometry">
            <Array as="points">
              <mxPoint x="2270" y="1373"/>
            </Array>
          </mxGeometry>
        </mxCell>
        <mxCell id="oZaHY52OytGmV67nLyRM-31" style="edgeStyle=orthogonalEdgeStyle;rounded=0;orthogonalLoop=1;jettySize=auto;html=1;entryX=0;entryY=0.5;entryDx=0;entryDy=0;fontColor=#000000;" edge="1" source="oZaHY52OytGmV67nLyRM-34" target="oZaHY52OytGmV67nLyRM-72" parent="UF1ZXIA7zIRzBSTpUH8o-1">
          <mxGeometry relative="1" as="geometry">
            <Array as="points">
              <mxPoint x="2270" y="1483"/>
            </Array>
          </mxGeometry>
        </mxCell>
        <mxCell id="oZaHY52OytGmV67nLyRM-32" style="edgeStyle=orthogonalEdgeStyle;rounded=0;orthogonalLoop=1;jettySize=auto;html=1;entryX=0;entryY=0.75;entryDx=0;entryDy=0;fontColor=#000000;" edge="1" source="oZaHY52OytGmV67nLyRM-34" target="oZaHY52OytGmV67nLyRM-74" parent="UF1ZXIA7zIRzBSTpUH8o-1">
          <mxGeometry relative="1" as="geometry">
            <Array as="points">
              <mxPoint x="2270" y="1601"/>
            </Array>
          </mxGeometry>
        </mxCell>
        <mxCell id="oZaHY52OytGmV67nLyRM-33" style="edgeStyle=orthogonalEdgeStyle;rounded=0;orthogonalLoop=1;jettySize=auto;html=1;entryX=0;entryY=0.75;entryDx=0;entryDy=0;fontColor=#000000;" edge="1" source="oZaHY52OytGmV67nLyRM-34" target="oZaHY52OytGmV67nLyRM-75" parent="UF1ZXIA7zIRzBSTpUH8o-1">
          <mxGeometry relative="1" as="geometry">
            <Array as="points">
              <mxPoint x="2270" y="1711"/>
            </Array>
          </mxGeometry>
        </mxCell>
        <mxCell id="oZaHY52OytGmV67nLyRM-34" value="admin/finance portal" style="rounded=1;whiteSpace=wrap;html=1;fillColor=#d5e8d4;strokeColor=#82b366;" vertex="1" parent="UF1ZXIA7zIRzBSTpUH8o-1">
          <mxGeometry x="2210" y="680" width="120" height="30" as="geometry"/>
        </mxCell>
        <mxCell id="oZaHY52OytGmV67nLyRM-35" value="" style="edgeStyle=orthogonalEdgeStyle;rounded=0;orthogonalLoop=1;jettySize=auto;html=1;" edge="1" source="oZaHY52OytGmV67nLyRM-37" target="oZaHY52OytGmV67nLyRM-11" parent="UF1ZXIA7zIRzBSTpUH8o-1">
          <mxGeometry relative="1" as="geometry"/>
        </mxCell>
        <mxCell id="oZaHY52OytGmV67nLyRM-36" style="edgeStyle=orthogonalEdgeStyle;rounded=0;orthogonalLoop=1;jettySize=auto;html=1;entryX=1;entryY=0.5;entryDx=0;entryDy=0;" edge="1" source="oZaHY52OytGmV67nLyRM-37" target="oZaHY52OytGmV67nLyRM-61" parent="UF1ZXIA7zIRzBSTpUH8o-1">
          <mxGeometry relative="1" as="geometry"/>
        </mxCell>
        <mxCell id="oZaHY52OytGmV67nLyRM-37" value="ums" style="rounded=1;whiteSpace=wrap;html=1;fillColor=#ffff88;strokeColor=#36393d;" vertex="1" parent="UF1ZXIA7zIRzBSTpUH8o-1">
          <mxGeometry x="2020" y="410" width="120" height="60" as="geometry"/>
        </mxCell>
        <mxCell id="oZaHY52OytGmV67nLyRM-38" value="" style="edgeStyle=orthogonalEdgeStyle;rounded=0;orthogonalLoop=1;jettySize=auto;html=1;" edge="1" source="oZaHY52OytGmV67nLyRM-39" target="oZaHY52OytGmV67nLyRM-37" parent="UF1ZXIA7zIRzBSTpUH8o-1">
          <mxGeometry relative="1" as="geometry"/>
        </mxCell>
        <mxCell id="oZaHY52OytGmV67nLyRM-39" value="kiplepay" style="rounded=1;whiteSpace=wrap;html=1;fillColor=#d5e8d4;strokeColor=#82b366;" vertex="1" parent="UF1ZXIA7zIRzBSTpUH8o-1">
          <mxGeometry x="2020" y="280" width="120" height="60" as="geometry"/>
        </mxCell>
        <mxCell id="oZaHY52OytGmV67nLyRM-40" style="edgeStyle=orthogonalEdgeStyle;rounded=0;orthogonalLoop=1;jettySize=auto;html=1;entryX=0;entryY=0.5;entryDx=0;entryDy=0;" edge="1" source="oZaHY52OytGmV67nLyRM-45" target="oZaHY52OytGmV67nLyRM-46" parent="UF1ZXIA7zIRzBSTpUH8o-1">
          <mxGeometry relative="1" as="geometry"/>
        </mxCell>
        <mxCell id="oZaHY52OytGmV67nLyRM-41" style="edgeStyle=orthogonalEdgeStyle;rounded=0;orthogonalLoop=1;jettySize=auto;html=1;entryX=0;entryY=0.5;entryDx=0;entryDy=0;" edge="1" source="oZaHY52OytGmV67nLyRM-45" target="oZaHY52OytGmV67nLyRM-47" parent="UF1ZXIA7zIRzBSTpUH8o-1">
          <mxGeometry relative="1" as="geometry"/>
        </mxCell>
        <mxCell id="oZaHY52OytGmV67nLyRM-42" style="edgeStyle=orthogonalEdgeStyle;rounded=0;orthogonalLoop=1;jettySize=auto;html=1;entryX=0;entryY=0.5;entryDx=0;entryDy=0;" edge="1" source="oZaHY52OytGmV67nLyRM-45" target="oZaHY52OytGmV67nLyRM-48" parent="UF1ZXIA7zIRzBSTpUH8o-1">
          <mxGeometry relative="1" as="geometry"/>
        </mxCell>
        <mxCell id="oZaHY52OytGmV67nLyRM-43" style="edgeStyle=orthogonalEdgeStyle;rounded=0;orthogonalLoop=1;jettySize=auto;html=1;entryX=0;entryY=0.5;entryDx=0;entryDy=0;" edge="1" source="oZaHY52OytGmV67nLyRM-45" target="oZaHY52OytGmV67nLyRM-49" parent="UF1ZXIA7zIRzBSTpUH8o-1">
          <mxGeometry relative="1" as="geometry"/>
        </mxCell>
        <mxCell id="oZaHY52OytGmV67nLyRM-44" style="edgeStyle=orthogonalEdgeStyle;rounded=0;orthogonalLoop=1;jettySize=auto;html=1;entryX=0;entryY=0.5;entryDx=0;entryDy=0;" edge="1" source="oZaHY52OytGmV67nLyRM-45" target="oZaHY52OytGmV67nLyRM-51" parent="UF1ZXIA7zIRzBSTpUH8o-1">
          <mxGeometry relative="1" as="geometry"/>
        </mxCell>
        <mxCell id="oZaHY52OytGmV67nLyRM-45" value="GateWay" style="rounded=1;whiteSpace=wrap;html=1;fillColor=#cdeb8b;strokeColor=#36393d;" vertex="1" parent="UF1ZXIA7zIRzBSTpUH8o-1">
          <mxGeometry x="3424" y="1119.5" width="120" height="60" as="geometry"/>
        </mxCell>
        <mxCell id="oZaHY52OytGmV67nLyRM-46" value="fpx/支付网关&lt;br&gt;[银行网关]" style="rounded=1;whiteSpace=wrap;html=1;fillColor=#cdeb8b;strokeColor=#36393d;" vertex="1" parent="UF1ZXIA7zIRzBSTpUH8o-1">
          <mxGeometry x="3611" y="989.5" width="120" height="30" as="geometry"/>
        </mxCell>
        <mxCell id="oZaHY52OytGmV67nLyRM-47" value="wechat" style="rounded=1;whiteSpace=wrap;html=1;fillColor=#cdeb8b;strokeColor=#36393d;" vertex="1" parent="UF1ZXIA7zIRzBSTpUH8o-1">
          <mxGeometry x="3611" y="1054.5" width="120" height="30" as="geometry"/>
        </mxCell>
        <mxCell id="oZaHY52OytGmV67nLyRM-48" value="alipay" style="rounded=1;whiteSpace=wrap;html=1;fillColor=#cdeb8b;strokeColor=#36393d;" vertex="1" parent="UF1ZXIA7zIRzBSTpUH8o-1">
          <mxGeometry x="3611" y="1134.5" width="120" height="30" as="geometry"/>
        </mxCell>
        <mxCell id="oZaHY52OytGmV67nLyRM-49" value="kiplepaying" style="rounded=1;whiteSpace=wrap;html=1;fillColor=#cdeb8b;strokeColor=#36393d;" vertex="1" parent="UF1ZXIA7zIRzBSTpUH8o-1">
          <mxGeometry x="3611" y="1224.5" width="120" height="30" as="geometry"/>
        </mxCell>
        <mxCell id="oZaHY52OytGmV67nLyRM-50" value="" style="edgeStyle=orthogonalEdgeStyle;rounded=0;orthogonalLoop=1;jettySize=auto;html=1;" edge="1" source="oZaHY52OytGmV67nLyRM-51" target="oZaHY52OytGmV67nLyRM-56" parent="UF1ZXIA7zIRzBSTpUH8o-1">
          <mxGeometry relative="1" as="geometry"/>
        </mxCell>
        <mxCell id="oZaHY52OytGmV67nLyRM-51" value="&lt;span style=&quot;color: rgb(153, 153, 153); font-family: arial, &amp;quot;microsoft yahei&amp;quot;, &amp;quot;\\5fae软雅黑&amp;quot;, &amp;quot;\\5b8b体&amp;quot;, &amp;quot;malgun gothic&amp;quot;, meiryo, sans-serif; font-size: 14px; line-height: 21px;&quot;&gt;&lt;span class=&quot;Apple-converted-space&quot;&gt;&amp;nbsp;&lt;/span&gt;&lt;/span&gt;&lt;span class=&quot;typo&quot; style=&quot;box-sizing: border-box; color: rgb(51, 51, 51); font-family: arial, &amp;quot;microsoft yahei&amp;quot;, &amp;quot;\\5fae软雅黑&amp;quot;, &amp;quot;\\5b8b体&amp;quot;, &amp;quot;malgun gothic&amp;quot;, meiryo, sans-serif; font-size: 14px; line-height: 21px;&quot;&gt;credit card&lt;/span&gt;" style="rounded=1;whiteSpace=wrap;html=1;fillColor=#fa6800;strokeColor=#C73500;labelBackgroundColor=none;fontColor=#ffffff;" vertex="1" parent="UF1ZXIA7zIRzBSTpUH8o-1">
          <mxGeometry x="3611" y="1289.5" width="120" height="30" as="geometry"/>
        </mxCell>
        <mxCell id="oZaHY52OytGmV67nLyRM-52" style="edgeStyle=orthogonalEdgeStyle;rounded=0;orthogonalLoop=1;jettySize=auto;html=1;entryX=0;entryY=0.75;entryDx=0;entryDy=0;" edge="1" source="oZaHY52OytGmV67nLyRM-56" target="oZaHY52OytGmV67nLyRM-57" parent="UF1ZXIA7zIRzBSTpUH8o-1">
          <mxGeometry relative="1" as="geometry"/>
        </mxCell>
        <mxCell id="oZaHY52OytGmV67nLyRM-53" style="edgeStyle=orthogonalEdgeStyle;rounded=0;orthogonalLoop=1;jettySize=auto;html=1;entryX=0;entryY=0.75;entryDx=0;entryDy=0;" edge="1" source="oZaHY52OytGmV67nLyRM-56" target="oZaHY52OytGmV67nLyRM-58" parent="UF1ZXIA7zIRzBSTpUH8o-1">
          <mxGeometry relative="1" as="geometry"/>
        </mxCell>
        <mxCell id="oZaHY52OytGmV67nLyRM-54" style="edgeStyle=orthogonalEdgeStyle;rounded=0;orthogonalLoop=1;jettySize=auto;html=1;entryX=0;entryY=0.5;entryDx=0;entryDy=0;" edge="1" source="oZaHY52OytGmV67nLyRM-56" target="oZaHY52OytGmV67nLyRM-59" parent="UF1ZXIA7zIRzBSTpUH8o-1">
          <mxGeometry relative="1" as="geometry"/>
        </mxCell>
        <mxCell id="oZaHY52OytGmV67nLyRM-55" style="edgeStyle=orthogonalEdgeStyle;rounded=0;orthogonalLoop=1;jettySize=auto;html=1;entryX=0;entryY=0.25;entryDx=0;entryDy=0;" edge="1" source="oZaHY52OytGmV67nLyRM-56" target="oZaHY52OytGmV67nLyRM-60" parent="UF1ZXIA7zIRzBSTpUH8o-1">
          <mxGeometry relative="1" as="geometry"/>
        </mxCell>
        <mxCell id="oZaHY52OytGmV67nLyRM-56" value="&lt;font face=&quot;arial, microsoft yahei, \\5fae软雅黑, \\5b8b体, malgun gothic, meiryo, sans-serif&quot;&gt;&lt;span style=&quot;font-size: 14px&quot;&gt;cc-gateway&lt;/span&gt;&lt;/font&gt;" style="rounded=1;whiteSpace=wrap;html=1;fillColor=#fa6800;strokeColor=#C73500;labelBackgroundColor=none;fontColor=#ffffff;" vertex="1" parent="UF1ZXIA7zIRzBSTpUH8o-1">
          <mxGeometry x="3811" y="1289.5" width="120" height="30" as="geometry"/>
        </mxCell>
        <mxCell id="oZaHY52OytGmV67nLyRM-57" value="&lt;font face=&quot;arial, microsoft yahei, \\5fae软雅黑, \\5b8b体, malgun gothic, meiryo, sans-serif&quot;&gt;&lt;span style=&quot;font-size: 14px&quot;&gt;ADYEN&lt;/span&gt;&lt;/font&gt;" style="rounded=1;whiteSpace=wrap;html=1;fillColor=#fa6800;strokeColor=#C73500;labelBackgroundColor=none;fontColor=#ffffff;" vertex="1" parent="UF1ZXIA7zIRzBSTpUH8o-1">
          <mxGeometry x="3984" y="1209.5" width="120" height="30" as="geometry"/>
        </mxCell>
        <mxCell id="oZaHY52OytGmV67nLyRM-58" value="&lt;font face=&quot;arial, microsoft yahei, \\5fae软雅黑, \\5b8b体, malgun gothic, meiryo, sans-serif&quot;&gt;&lt;span style=&quot;font-size: 14px;&quot;&gt;ALll&lt;/span&gt;&lt;/font&gt;" style="rounded=1;whiteSpace=wrap;html=1;fillColor=#fa6800;strokeColor=#C73500;labelBackgroundColor=none;fontColor=#ffffff;" vertex="1" parent="UF1ZXIA7zIRzBSTpUH8o-1">
          <mxGeometry x="3984" y="1259.5" width="120" height="30" as="geometry"/>
        </mxCell>
        <mxCell id="oZaHY52OytGmV67nLyRM-59" value="&lt;font face=&quot;arial, microsoft yahei, \\5fae软雅黑, \\5b8b体, malgun gothic, meiryo, sans-serif&quot;&gt;&lt;span style=&quot;font-size: 14px&quot;&gt;MPAS&lt;/span&gt;&lt;/font&gt;" style="rounded=1;whiteSpace=wrap;html=1;fillColor=#fa6800;strokeColor=#C73500;labelBackgroundColor=none;fontColor=#ffffff;" vertex="1" parent="UF1ZXIA7zIRzBSTpUH8o-1">
          <mxGeometry x="3984" y="1319.5" width="120" height="30" as="geometry"/>
        </mxCell>
        <mxCell id="oZaHY52OytGmV67nLyRM-60" value="&lt;font face=&quot;arial, microsoft yahei, \\5fae软雅黑, \\5b8b体, malgun gothic, meiryo, sans-serif&quot;&gt;&lt;span style=&quot;font-size: 14px&quot;&gt;ipay88&lt;/span&gt;&lt;/font&gt;" style="rounded=1;whiteSpace=wrap;html=1;fillColor=#fa6800;strokeColor=#C73500;labelBackgroundColor=none;fontColor=#ffffff;" vertex="1" parent="UF1ZXIA7zIRzBSTpUH8o-1">
          <mxGeometry x="3984" y="1369.5" width="120" height="30" as="geometry"/>
        </mxCell>
        <mxCell id="oZaHY52OytGmV67nLyRM-61" value="database" style="shape=cylinder;whiteSpace=wrap;html=1;boundedLbl=1;backgroundOutline=1;fillColor=#f9f7ed;strokeColor=#36393d;" vertex="1" parent="UF1ZXIA7zIRzBSTpUH8o-1">
          <mxGeometry x="1630" y="485" width="70" height="80" as="geometry"/>
        </mxCell>
        <mxCell id="oZaHY52OytGmV67nLyRM-62" value="share database" style="text;html=1;strokeColor=none;fillColor=none;align=center;verticalAlign=middle;whiteSpace=wrap;rounded=0;" vertex="1" parent="UF1ZXIA7zIRzBSTpUH8o-1">
          <mxGeometry x="1730" y="505" width="90" height="20" as="geometry"/>
        </mxCell>
        <mxCell id="oZaHY52OytGmV67nLyRM-63" style="edgeStyle=orthogonalEdgeStyle;rounded=0;orthogonalLoop=1;jettySize=auto;html=1;entryX=0;entryY=0.5;entryDx=0;entryDy=0;fontColor=#000000;" edge="1" source="oZaHY52OytGmV67nLyRM-64" target="oZaHY52OytGmV67nLyRM-179" parent="UF1ZXIA7zIRzBSTpUH8o-1">
          <mxGeometry relative="1" as="geometry"/>
        </mxCell>
        <mxCell id="oZaHY52OytGmV67nLyRM-64" value="KYC身份鉴定[进行两次核验]" style="rounded=1;whiteSpace=wrap;html=1;fillColor=#d5e8d4;strokeColor=#82b366;" vertex="1" parent="UF1ZXIA7zIRzBSTpUH8o-1">
          <mxGeometry x="2320" y="760" width="120" height="30" as="geometry"/>
        </mxCell>
        <mxCell id="oZaHY52OytGmV67nLyRM-65" value="" style="edgeStyle=orthogonalEdgeStyle;rounded=0;orthogonalLoop=1;jettySize=auto;html=1;fontColor=#000000;" edge="1" source="oZaHY52OytGmV67nLyRM-67" target="oZaHY52OytGmV67nLyRM-77" parent="UF1ZXIA7zIRzBSTpUH8o-1">
          <mxGeometry relative="1" as="geometry"/>
        </mxCell>
        <mxCell id="oZaHY52OytGmV67nLyRM-66" value="" style="edgeStyle=orthogonalEdgeStyle;rounded=0;orthogonalLoop=1;jettySize=auto;html=1;fontColor=#000000;entryX=0.5;entryY=0;entryDx=0;entryDy=0;" edge="1" source="oZaHY52OytGmV67nLyRM-67" target="oZaHY52OytGmV67nLyRM-185" parent="UF1ZXIA7zIRzBSTpUH8o-1">
          <mxGeometry relative="1" as="geometry"/>
        </mxCell>
        <mxCell id="oZaHY52OytGmV67nLyRM-67" value="merchant&amp;nbsp;" style="rounded=1;whiteSpace=wrap;html=1;fillColor=#d5e8d4;strokeColor=#82b366;" vertex="1" parent="UF1ZXIA7zIRzBSTpUH8o-1">
          <mxGeometry x="2320" y="855" width="120" height="30" as="geometry"/>
        </mxCell>
        <mxCell id="oZaHY52OytGmV67nLyRM-68" value="reporting" style="rounded=1;whiteSpace=wrap;html=1;fillColor=#d5e8d4;strokeColor=#82b366;" vertex="1" parent="UF1ZXIA7zIRzBSTpUH8o-1">
          <mxGeometry x="2320" y="960" width="120" height="30" as="geometry"/>
        </mxCell>
        <mxCell id="oZaHY52OytGmV67nLyRM-69" value="KISS/pp/KIDA card registions" style="rounded=1;whiteSpace=wrap;html=1;fillColor=#d5e8d4;strokeColor=#82b366;" vertex="1" parent="UF1ZXIA7zIRzBSTpUH8o-1">
          <mxGeometry x="2440" y="1137.5" width="120" height="30" as="geometry"/>
        </mxCell>
        <mxCell id="oZaHY52OytGmV67nLyRM-70" value="cards registers" style="rounded=1;whiteSpace=wrap;html=1;fillColor=#d5e8d4;strokeColor=#82b366;" vertex="1" parent="UF1ZXIA7zIRzBSTpUH8o-1">
          <mxGeometry x="2440" y="1247.5" width="120" height="30" as="geometry"/>
        </mxCell>
        <mxCell id="oZaHY52OytGmV67nLyRM-71" value="postback" style="rounded=1;whiteSpace=wrap;html=1;fillColor=#d5e8d4;strokeColor=#82b366;" vertex="1" parent="UF1ZXIA7zIRzBSTpUH8o-1">
          <mxGeometry x="2440" y="1357.5" width="120" height="30" as="geometry"/>
        </mxCell>
        <mxCell id="oZaHY52OytGmV67nLyRM-72" value="BNM report" style="rounded=1;whiteSpace=wrap;html=1;fillColor=#d5e8d4;strokeColor=#82b366;" vertex="1" parent="UF1ZXIA7zIRzBSTpUH8o-1">
          <mxGeometry x="2440" y="1467.5" width="120" height="30" as="geometry"/>
        </mxCell>
        <mxCell id="oZaHY52OytGmV67nLyRM-73" style="edgeStyle=orthogonalEdgeStyle;rounded=0;orthogonalLoop=1;jettySize=auto;html=1;fontColor=#000000;" edge="1" source="oZaHY52OytGmV67nLyRM-74" parent="UF1ZXIA7zIRzBSTpUH8o-1">
          <mxGeometry relative="1" as="geometry">
            <mxPoint x="2640" y="1592.5" as="targetPoint"/>
          </mxGeometry>
        </mxCell>
        <mxCell id="oZaHY52OytGmV67nLyRM-74" value="multi tier&lt;br&gt;根据交易量定手续费" style="rounded=1;whiteSpace=wrap;html=1;fillColor=#d5e8d4;strokeColor=#82b366;" vertex="1" parent="UF1ZXIA7zIRzBSTpUH8o-1">
          <mxGeometry x="2440" y="1577.5" width="120" height="30" as="geometry"/>
        </mxCell>
        <mxCell id="oZaHY52OytGmV67nLyRM-75" value="p2p transfer" style="rounded=1;whiteSpace=wrap;html=1;fillColor=#d5e8d4;strokeColor=#82b366;" vertex="1" parent="UF1ZXIA7zIRzBSTpUH8o-1">
          <mxGeometry x="2440" y="1687.5" width="120" height="30" as="geometry"/>
        </mxCell>
        <mxCell id="oZaHY52OytGmV67nLyRM-76" style="edgeStyle=orthogonalEdgeStyle;rounded=0;orthogonalLoop=1;jettySize=auto;html=1;entryX=0;entryY=0.25;entryDx=0;entryDy=0;fontColor=#000000;" edge="1" source="oZaHY52OytGmV67nLyRM-77" target="oZaHY52OytGmV67nLyRM-176" parent="UF1ZXIA7zIRzBSTpUH8o-1">
          <mxGeometry relative="1" as="geometry"/>
        </mxCell>
        <mxCell id="oZaHY52OytGmV67nLyRM-77" value="payment options" style="rounded=1;whiteSpace=wrap;html=1;fillColor=#d5e8d4;strokeColor=#82b366;" vertex="1" parent="UF1ZXIA7zIRzBSTpUH8o-1">
          <mxGeometry x="2520" y="855" width="120" height="30" as="geometry"/>
        </mxCell>
        <mxCell id="oZaHY52OytGmV67nLyRM-78" value="KISS[智慧母婴]" style="rounded=1;whiteSpace=wrap;html=1;fillColor=#d5e8d4;strokeColor=#82b366;" vertex="1" parent="UF1ZXIA7zIRzBSTpUH8o-1">
          <mxGeometry x="880" y="790" width="120" height="30" as="geometry"/>
        </mxCell>
        <mxCell id="oZaHY52OytGmV67nLyRM-79" value="PP" style="rounded=1;whiteSpace=wrap;html=1;fillColor=#d5e8d4;strokeColor=#82b366;" vertex="1" parent="UF1ZXIA7zIRzBSTpUH8o-1">
          <mxGeometry x="1040" y="790" width="120" height="30" as="geometry"/>
        </mxCell>
        <mxCell id="oZaHY52OytGmV67nLyRM-80" value="KIDA" style="rounded=1;whiteSpace=wrap;html=1;fillColor=#d5e8d4;strokeColor=#82b366;" vertex="1" parent="UF1ZXIA7zIRzBSTpUH8o-1">
          <mxGeometry x="1190" y="790" width="120" height="30" as="geometry"/>
        </mxCell>
        <mxCell id="oZaHY52OytGmV67nLyRM-81" style="edgeStyle=orthogonalEdgeStyle;rounded=0;orthogonalLoop=1;jettySize=auto;html=1;fontColor=#000000;" edge="1" source="oZaHY52OytGmV67nLyRM-82" target="oZaHY52OytGmV67nLyRM-149" parent="UF1ZXIA7zIRzBSTpUH8o-1">
          <mxGeometry relative="1" as="geometry">
            <Array as="points">
              <mxPoint x="1410" y="1130"/>
              <mxPoint x="1163" y="1130"/>
            </Array>
          </mxGeometry>
        </mxCell>
        <mxCell id="oZaHY52OytGmV67nLyRM-82" value="i3s school" style="rounded=1;whiteSpace=wrap;html=1;fillColor=#d5e8d4;strokeColor=#82b366;" vertex="1" parent="UF1ZXIA7zIRzBSTpUH8o-1">
          <mxGeometry x="1350" y="790" width="120" height="30" as="geometry"/>
        </mxCell>
        <mxCell id="oZaHY52OytGmV67nLyRM-83" style="edgeStyle=orthogonalEdgeStyle;rounded=0;orthogonalLoop=1;jettySize=auto;html=1;fontColor=#000000;" edge="1" source="oZaHY52OytGmV67nLyRM-84" target="oZaHY52OytGmV67nLyRM-160" parent="UF1ZXIA7zIRzBSTpUH8o-1">
          <mxGeometry relative="1" as="geometry">
            <Array as="points">
              <mxPoint x="1540" y="870"/>
              <mxPoint x="1420" y="870"/>
            </Array>
          </mxGeometry>
        </mxCell>
        <mxCell id="oZaHY52OytGmV67nLyRM-84" value="Domino Express card[达美乐pizz]" style="rounded=1;whiteSpace=wrap;html=1;fillColor=#d5e8d4;strokeColor=#82b366;" vertex="1" parent="UF1ZXIA7zIRzBSTpUH8o-1">
          <mxGeometry x="1480" y="790" width="120" height="30" as="geometry"/>
        </mxCell>
        <mxCell id="oZaHY52OytGmV67nLyRM-85" style="edgeStyle=orthogonalEdgeStyle;rounded=0;orthogonalLoop=1;jettySize=auto;html=1;fontColor=#000000;" edge="1" source="oZaHY52OytGmV67nLyRM-86" target="oZaHY52OytGmV67nLyRM-142" parent="UF1ZXIA7zIRzBSTpUH8o-1">
          <mxGeometry relative="1" as="geometry"/>
        </mxCell>
        <mxCell id="oZaHY52OytGmV67nLyRM-86" value="kiplepay" style="rounded=1;whiteSpace=wrap;html=1;fillColor=#d5e8d4;strokeColor=#82b366;" vertex="1" parent="UF1ZXIA7zIRzBSTpUH8o-1">
          <mxGeometry x="1620" y="790" width="120" height="30" as="geometry"/>
        </mxCell>
        <mxCell id="oZaHY52OytGmV67nLyRM-87" style="edgeStyle=orthogonalEdgeStyle;rounded=0;orthogonalLoop=1;jettySize=auto;html=1;entryX=0.577;entryY=-0.018;entryDx=0;entryDy=0;entryPerimeter=0;fontColor=#000000;" edge="1" source="oZaHY52OytGmV67nLyRM-88" target="oZaHY52OytGmV67nLyRM-139" parent="UF1ZXIA7zIRzBSTpUH8o-1">
          <mxGeometry relative="1" as="geometry"/>
        </mxCell>
        <mxCell id="oZaHY52OytGmV67nLyRM-88" value="kiplepark" style="rounded=1;whiteSpace=wrap;html=1;fillColor=#d5e8d4;strokeColor=#82b366;" vertex="1" parent="UF1ZXIA7zIRzBSTpUH8o-1">
          <mxGeometry x="1760" y="790" width="120" height="30" as="geometry"/>
        </mxCell>
        <mxCell id="oZaHY52OytGmV67nLyRM-89" style="edgeStyle=orthogonalEdgeStyle;rounded=0;orthogonalLoop=1;jettySize=auto;html=1;fontColor=#000000;" edge="1" source="oZaHY52OytGmV67nLyRM-91" parent="UF1ZXIA7zIRzBSTpUH8o-1">
          <mxGeometry relative="1" as="geometry">
            <mxPoint x="1890.0000000000005" y="910" as="targetPoint"/>
          </mxGeometry>
        </mxCell>
        <mxCell id="oZaHY52OytGmV67nLyRM-90" style="edgeStyle=orthogonalEdgeStyle;rounded=0;orthogonalLoop=1;jettySize=auto;html=1;fontColor=#000000;entryX=0.5;entryY=1;entryDx=0;entryDy=0;" edge="1" target="oZaHY52OytGmV67nLyRM-51" parent="UF1ZXIA7zIRzBSTpUH8o-1">
          <mxGeometry relative="1" as="geometry">
            <mxPoint x="3369.999999999999" y="1540.0000000000005" as="targetPoint"/>
            <mxPoint x="2059.3333333333335" y="890.666666666667" as="sourcePoint"/>
            <Array as="points">
              <mxPoint x="2170" y="890"/>
              <mxPoint x="2170" y="950"/>
              <mxPoint x="3220" y="950"/>
              <mxPoint x="3220" y="1521"/>
              <mxPoint x="3672" y="1521"/>
              <mxPoint x="3672" y="1320"/>
            </Array>
          </mxGeometry>
        </mxCell>
        <mxCell id="oZaHY52OytGmV67nLyRM-91" value="auto top up&lt;br&gt;[自动充值,不会收商家的钱]" style="rounded=1;whiteSpace=wrap;html=1;fillColor=#d5e8d4;strokeColor=#82b366;" vertex="1" parent="UF1ZXIA7zIRzBSTpUH8o-1">
          <mxGeometry x="1930" y="790" width="120" height="30" as="geometry"/>
        </mxCell>
        <mxCell id="oZaHY52OytGmV67nLyRM-92" style="edgeStyle=orthogonalEdgeStyle;rounded=0;orthogonalLoop=1;jettySize=auto;html=1;fontColor=#000000;" edge="1" source="oZaHY52OytGmV67nLyRM-93" target="oZaHY52OytGmV67nLyRM-128" parent="UF1ZXIA7zIRzBSTpUH8o-1">
          <mxGeometry relative="1" as="geometry"/>
        </mxCell>
        <mxCell id="oZaHY52OytGmV67nLyRM-93" value="SMS gateWay" style="rounded=1;whiteSpace=wrap;html=1;fillColor=#d5e8d4;strokeColor=#82b366;" vertex="1" parent="UF1ZXIA7zIRzBSTpUH8o-1">
          <mxGeometry x="650" y="800" width="120" height="30" as="geometry"/>
        </mxCell>
        <mxCell id="oZaHY52OytGmV67nLyRM-94" value="" style="rounded=1;whiteSpace=wrap;html=1;labelBackgroundColor=none;strokeColor=#000000;fontColor=#000000;" vertex="1" parent="UF1ZXIA7zIRzBSTpUH8o-1">
          <mxGeometry x="1960" y="990" width="220" height="215" as="geometry"/>
        </mxCell>
        <mxCell id="oZaHY52OytGmV67nLyRM-95" value="Login/Login Out" style="rounded=1;whiteSpace=wrap;html=1;fillColor=#d5e8d4;strokeColor=#82b366;" vertex="1" parent="UF1ZXIA7zIRzBSTpUH8o-1">
          <mxGeometry x="1970" y="1005" width="200" height="30" as="geometry"/>
        </mxCell>
        <mxCell id="oZaHY52OytGmV67nLyRM-96" value="Account" style="rounded=1;whiteSpace=wrap;html=1;fillColor=#d5e8d4;strokeColor=#82b366;" vertex="1" parent="UF1ZXIA7zIRzBSTpUH8o-1">
          <mxGeometry x="1970" y="1045" width="200" height="30" as="geometry"/>
        </mxCell>
        <mxCell id="oZaHY52OytGmV67nLyRM-97" value="Dashboard" style="rounded=1;whiteSpace=wrap;html=1;fillColor=#d5e8d4;strokeColor=#82b366;" vertex="1" parent="UF1ZXIA7zIRzBSTpUH8o-1">
          <mxGeometry x="1970" y="1082.5" width="200" height="30" as="geometry"/>
        </mxCell>
        <mxCell id="oZaHY52OytGmV67nLyRM-98" value="Statement" style="rounded=1;whiteSpace=wrap;html=1;fillColor=#d5e8d4;strokeColor=#82b366;" vertex="1" parent="UF1ZXIA7zIRzBSTpUH8o-1">
          <mxGeometry x="1970" y="1120" width="200" height="30" as="geometry"/>
        </mxCell>
        <mxCell id="oZaHY52OytGmV67nLyRM-99" value="Close Account[注销账号]" style="rounded=1;whiteSpace=wrap;html=1;fillColor=#d5e8d4;strokeColor=#82b366;" vertex="1" parent="UF1ZXIA7zIRzBSTpUH8o-1">
          <mxGeometry x="1970" y="1165" width="200" height="30" as="geometry"/>
        </mxCell>
        <mxCell id="oZaHY52OytGmV67nLyRM-100" value="" style="rounded=1;whiteSpace=wrap;html=1;labelBackgroundColor=none;strokeColor=#000000;fontColor=#000000;" vertex="1" parent="UF1ZXIA7zIRzBSTpUH8o-1">
          <mxGeometry x="2090" y="1227.5" width="220" height="250" as="geometry"/>
        </mxCell>
        <mxCell id="oZaHY52OytGmV67nLyRM-101" style="edgeStyle=orthogonalEdgeStyle;rounded=0;orthogonalLoop=1;jettySize=auto;html=1;fontColor=#000000;" edge="1" source="oZaHY52OytGmV67nLyRM-103" target="oZaHY52OytGmV67nLyRM-122" parent="UF1ZXIA7zIRzBSTpUH8o-1">
          <mxGeometry relative="1" as="geometry"/>
        </mxCell>
        <mxCell id="oZaHY52OytGmV67nLyRM-102" style="edgeStyle=orthogonalEdgeStyle;rounded=0;orthogonalLoop=1;jettySize=auto;html=1;entryX=1;entryY=0.5;entryDx=0;entryDy=0;fontColor=#000000;" edge="1" source="oZaHY52OytGmV67nLyRM-103" target="oZaHY52OytGmV67nLyRM-124" parent="UF1ZXIA7zIRzBSTpUH8o-1">
          <mxGeometry relative="1" as="geometry"/>
        </mxCell>
        <mxCell id="oZaHY52OytGmV67nLyRM-103" value="Settlement" style="rounded=1;whiteSpace=wrap;html=1;fillColor=#d5e8d4;strokeColor=#82b366;" vertex="1" parent="UF1ZXIA7zIRzBSTpUH8o-1">
          <mxGeometry x="2100" y="1242.5" width="200" height="30" as="geometry"/>
        </mxCell>
        <mxCell id="oZaHY52OytGmV67nLyRM-104" value="Transaction" style="rounded=1;whiteSpace=wrap;html=1;fillColor=#d5e8d4;strokeColor=#82b366;" vertex="1" parent="UF1ZXIA7zIRzBSTpUH8o-1">
          <mxGeometry x="2100" y="1282.5" width="200" height="30" as="geometry"/>
        </mxCell>
        <mxCell id="oZaHY52OytGmV67nLyRM-105" value="Refund/void" style="rounded=1;whiteSpace=wrap;html=1;fillColor=#d5e8d4;strokeColor=#82b366;" vertex="1" parent="UF1ZXIA7zIRzBSTpUH8o-1">
          <mxGeometry x="2100" y="1320" width="200" height="30" as="geometry"/>
        </mxCell>
        <mxCell id="oZaHY52OytGmV67nLyRM-106" style="edgeStyle=orthogonalEdgeStyle;rounded=0;orthogonalLoop=1;jettySize=auto;html=1;entryX=0;entryY=0.5;entryDx=0;entryDy=0;fontColor=#000000;" edge="1" source="oZaHY52OytGmV67nLyRM-107" target="oZaHY52OytGmV67nLyRM-45" parent="UF1ZXIA7zIRzBSTpUH8o-1">
          <mxGeometry relative="1" as="geometry"/>
        </mxCell>
        <mxCell id="oZaHY52OytGmV67nLyRM-107" value="1-link payment[链接购物生成URL，支付根据URL支付]" style="rounded=1;whiteSpace=wrap;html=1;fillColor=#d5e8d4;strokeColor=#82b366;" vertex="1" parent="UF1ZXIA7zIRzBSTpUH8o-1">
          <mxGeometry x="2100" y="1357.5" width="200" height="30" as="geometry"/>
        </mxCell>
        <mxCell id="oZaHY52OytGmV67nLyRM-108" value="e-invoice" style="rounded=1;whiteSpace=wrap;html=1;fillColor=#d5e8d4;strokeColor=#82b366;" vertex="1" parent="UF1ZXIA7zIRzBSTpUH8o-1">
          <mxGeometry x="2100" y="1395" width="200" height="30" as="geometry"/>
        </mxCell>
        <mxCell id="oZaHY52OytGmV67nLyRM-109" value="tax invoice[30days]&lt;br&gt;30天 税收" style="rounded=1;whiteSpace=wrap;html=1;fillColor=#d5e8d4;strokeColor=#82b366;" vertex="1" parent="UF1ZXIA7zIRzBSTpUH8o-1">
          <mxGeometry x="2100" y="1432.5" width="200" height="30" as="geometry"/>
        </mxCell>
        <mxCell id="oZaHY52OytGmV67nLyRM-110" style="edgeStyle=orthogonalEdgeStyle;rounded=0;orthogonalLoop=1;jettySize=auto;html=1;entryX=0.5;entryY=0;entryDx=0;entryDy=0;fontColor=#000000;" edge="1" source="oZaHY52OytGmV67nLyRM-114" target="oZaHY52OytGmV67nLyRM-117" parent="UF1ZXIA7zIRzBSTpUH8o-1">
          <mxGeometry relative="1" as="geometry"/>
        </mxCell>
        <mxCell id="oZaHY52OytGmV67nLyRM-111" style="edgeStyle=orthogonalEdgeStyle;rounded=0;orthogonalLoop=1;jettySize=auto;html=1;entryX=0.5;entryY=0;entryDx=0;entryDy=0;fontColor=#000000;" edge="1" source="oZaHY52OytGmV67nLyRM-114" target="oZaHY52OytGmV67nLyRM-118" parent="UF1ZXIA7zIRzBSTpUH8o-1">
          <mxGeometry relative="1" as="geometry"/>
        </mxCell>
        <mxCell id="oZaHY52OytGmV67nLyRM-112" style="edgeStyle=orthogonalEdgeStyle;rounded=0;orthogonalLoop=1;jettySize=auto;html=1;fontColor=#000000;" edge="1" source="oZaHY52OytGmV67nLyRM-114" target="oZaHY52OytGmV67nLyRM-119" parent="UF1ZXIA7zIRzBSTpUH8o-1">
          <mxGeometry relative="1" as="geometry">
            <Array as="points">
              <mxPoint x="1100" y="1020"/>
              <mxPoint x="1323" y="1020"/>
            </Array>
          </mxGeometry>
        </mxCell>
        <mxCell id="oZaHY52OytGmV67nLyRM-113" style="edgeStyle=orthogonalEdgeStyle;rounded=0;orthogonalLoop=1;jettySize=auto;html=1;entryX=0.5;entryY=0;entryDx=0;entryDy=0;fontColor=#000000;" edge="1" source="oZaHY52OytGmV67nLyRM-114" target="oZaHY52OytGmV67nLyRM-116" parent="UF1ZXIA7zIRzBSTpUH8o-1">
          <mxGeometry relative="1" as="geometry">
            <Array as="points">
              <mxPoint x="1100" y="1020"/>
              <mxPoint x="873" y="1020"/>
            </Array>
          </mxGeometry>
        </mxCell>
        <mxCell id="oZaHY52OytGmV67nLyRM-114" value="SELGNFE&lt;br&gt;[地区名称]" style="rounded=1;whiteSpace=wrap;html=1;fillColor=#0050ef;strokeColor=#001DBC;fontColor=#ffffff;" vertex="1" parent="UF1ZXIA7zIRzBSTpUH8o-1">
          <mxGeometry x="1040" y="964" width="120" height="30" as="geometry"/>
        </mxCell>
        <mxCell id="oZaHY52OytGmV67nLyRM-115" value="API Interface" style="text;html=1;strokeColor=#001DBC;fillColor=#0050ef;align=center;verticalAlign=middle;whiteSpace=wrap;rounded=0;labelBackgroundColor=none;fontColor=#ffffff;" vertex="1" parent="UF1ZXIA7zIRzBSTpUH8o-1">
          <mxGeometry x="1053" y="900" width="90" height="20" as="geometry"/>
        </mxCell>
        <mxCell id="oZaHY52OytGmV67nLyRM-116" value="99sm【商店名称】" style="rounded=1;whiteSpace=wrap;html=1;fillColor=#0050ef;strokeColor=#001DBC;fontColor=#ffffff;" vertex="1" parent="UF1ZXIA7zIRzBSTpUH8o-1">
          <mxGeometry x="813" y="1045" width="120" height="30" as="geometry"/>
        </mxCell>
        <mxCell id="oZaHY52OytGmV67nLyRM-117" value="mydm【商店名称】" style="rounded=1;whiteSpace=wrap;html=1;fillColor=#0050ef;strokeColor=#001DBC;fontColor=#ffffff;" vertex="1" parent="UF1ZXIA7zIRzBSTpUH8o-1">
          <mxGeometry x="973" y="1045" width="120" height="30" as="geometry"/>
        </mxCell>
        <mxCell id="oZaHY52OytGmV67nLyRM-118" value="tk【商店名称】" style="rounded=1;whiteSpace=wrap;html=1;fillColor=#0050ef;strokeColor=#001DBC;fontColor=#ffffff;" vertex="1" parent="UF1ZXIA7zIRzBSTpUH8o-1">
          <mxGeometry x="1113" y="1045" width="120" height="30" as="geometry"/>
        </mxCell>
        <mxCell id="oZaHY52OytGmV67nLyRM-119" value="atr【商店名称】" style="rounded=1;whiteSpace=wrap;html=1;fillColor=#0050ef;strokeColor=#001DBC;fontColor=#ffffff;" vertex="1" parent="UF1ZXIA7zIRzBSTpUH8o-1">
          <mxGeometry x="1263" y="1045" width="120" height="30" as="geometry"/>
        </mxCell>
        <mxCell id="oZaHY52OytGmV67nLyRM-120" value="Customer&lt;br&gt;User" style="shape=umlActor;verticalLabelPosition=bottom;labelBackgroundColor=#ffffff;verticalAlign=top;html=1;outlineConnect=0;strokeColor=#000000;fontColor=#000000;" vertex="1" parent="UF1ZXIA7zIRzBSTpUH8o-1">
          <mxGeometry x="690" y="470" width="30" height="60" as="geometry"/>
        </mxCell>
        <mxCell id="oZaHY52OytGmV67nLyRM-121" style="edgeStyle=orthogonalEdgeStyle;rounded=0;orthogonalLoop=1;jettySize=auto;html=1;entryX=1;entryY=0.5;entryDx=0;entryDy=0;fontColor=#000000;" edge="1" source="oZaHY52OytGmV67nLyRM-122" target="oZaHY52OytGmV67nLyRM-125" parent="UF1ZXIA7zIRzBSTpUH8o-1">
          <mxGeometry relative="1" as="geometry">
            <Array as="points">
              <mxPoint x="1840" y="1250"/>
              <mxPoint x="1840" y="1248"/>
            </Array>
          </mxGeometry>
        </mxCell>
        <mxCell id="oZaHY52OytGmV67nLyRM-122" value="TPA【third party acquirier】]&lt;br&gt;revenue share 分红" style="rounded=1;whiteSpace=wrap;html=1;fillColor=#d5e8d4;strokeColor=#82b366;" vertex="1" parent="UF1ZXIA7zIRzBSTpUH8o-1">
          <mxGeometry x="1880" y="1235" width="120" height="30" as="geometry"/>
        </mxCell>
        <mxCell id="oZaHY52OytGmV67nLyRM-123" style="edgeStyle=orthogonalEdgeStyle;rounded=0;orthogonalLoop=1;jettySize=auto;html=1;fontColor=#000000;" edge="1" source="oZaHY52OytGmV67nLyRM-124" target="oZaHY52OytGmV67nLyRM-175" parent="UF1ZXIA7zIRzBSTpUH8o-1">
          <mxGeometry relative="1" as="geometry"/>
        </mxCell>
        <mxCell id="oZaHY52OytGmV67nLyRM-124" value="Regular" style="rounded=1;whiteSpace=wrap;html=1;fillColor=#d5e8d4;strokeColor=#82b366;" vertex="1" parent="UF1ZXIA7zIRzBSTpUH8o-1">
          <mxGeometry x="1880" y="1285" width="120" height="30" as="geometry"/>
        </mxCell>
        <mxCell id="oZaHY52OytGmV67nLyRM-125" value="&lt;table border=&quot;1&quot; width=&quot;100%&quot; cellpadding=&quot;4&quot; style=&quot;width: 100% ; height: 100% ; border-collapse: collapse&quot;&gt;&lt;tbody&gt;&lt;tr style=&quot;background-color: #a7c942 ; color: #ffffff ; border: 1px solid #98bf21&quot;&gt;&lt;th align=&quot;left&quot;&gt;Level&lt;/th&gt;&lt;th align=&quot;left&quot;&gt;merchant&lt;/th&gt;&lt;th align=&quot;left&quot;&gt;MDR&lt;br&gt;&lt;/th&gt;&lt;/tr&gt;&lt;tr style=&quot;border: 1px solid #98bf21&quot;&gt;&lt;td&gt;1&lt;/td&gt;&lt;td&gt;TPA1&lt;/td&gt;&lt;td&gt;1.5%&lt;/td&gt;&lt;/tr&gt;&lt;tr style=&quot;background-color: #eaf2d3 ; border: 1px solid #98bf21&quot;&gt;&lt;td&gt;2&lt;/td&gt;&lt;td&gt;merchant A&lt;/td&gt;&lt;td&gt;2.0%&lt;br&gt;&lt;/td&gt;&lt;/tr&gt;&lt;tr style=&quot;border: 1px solid #98bf21&quot;&gt;&lt;td&gt;2&lt;/td&gt;&lt;td&gt;merchant B&lt;br&gt;&lt;/td&gt;&lt;td&gt;2.0%&lt;/td&gt;&lt;/tr&gt;&lt;tr style=&quot;background-color: #eaf2d3 ; border: 1px solid #98bf21&quot;&gt;&lt;td&gt;2&lt;/td&gt;&lt;td&gt;merchant C&lt;br&gt;&lt;/td&gt;&lt;td&gt;3.0%&lt;/td&gt;&lt;/tr&gt;&lt;/tbody&gt;&lt;/table&gt;" style="text;html=1;strokeColor=#c0c0c0;fillColor=#ffffff;overflow=fill;rounded=0;labelBackgroundColor=none;fontColor=#000000;" vertex="1" parent="UF1ZXIA7zIRzBSTpUH8o-1">
          <mxGeometry x="1520" y="1168" width="280" height="160" as="geometry"/>
        </mxCell>
        <mxCell id="oZaHY52OytGmV67nLyRM-126" style="edgeStyle=orthogonalEdgeStyle;rounded=0;orthogonalLoop=1;jettySize=auto;html=1;fontColor=#000000;" edge="1" source="oZaHY52OytGmV67nLyRM-128" parent="UF1ZXIA7zIRzBSTpUH8o-1">
          <mxGeometry relative="1" as="geometry">
            <mxPoint x="749.3333333333335" y="810.666666666667" as="targetPoint"/>
            <Array as="points">
              <mxPoint x="750" y="730"/>
              <mxPoint x="750" y="730"/>
            </Array>
          </mxGeometry>
        </mxCell>
        <mxCell id="oZaHY52OytGmV67nLyRM-127" style="edgeStyle=orthogonalEdgeStyle;rounded=0;orthogonalLoop=1;jettySize=auto;html=1;fontColor=#000000;" edge="1" source="oZaHY52OytGmV67nLyRM-128" parent="UF1ZXIA7zIRzBSTpUH8o-1">
          <mxGeometry relative="1" as="geometry">
            <mxPoint x="710" y="570" as="targetPoint"/>
          </mxGeometry>
        </mxCell>
        <mxCell id="oZaHY52OytGmV67nLyRM-128" value="shmd&lt;br&gt;【电信运营商】" style="rounded=1;whiteSpace=wrap;html=1;fillColor=#6a00ff;strokeColor=#3700CC;fontColor=#ffffff;" vertex="1" parent="UF1ZXIA7zIRzBSTpUH8o-1">
          <mxGeometry x="650" y="680" width="120" height="30" as="geometry"/>
        </mxCell>
        <mxCell id="oZaHY52OytGmV67nLyRM-129" value="sms" style="text;html=1;strokeColor=none;fillColor=none;align=center;verticalAlign=middle;whiteSpace=wrap;rounded=0;labelBackgroundColor=none;fontColor=#000000;" vertex="1" parent="UF1ZXIA7zIRzBSTpUH8o-1">
          <mxGeometry x="710" y="610" width="40" height="20" as="geometry"/>
        </mxCell>
        <mxCell id="oZaHY52OytGmV67nLyRM-130" style="edgeStyle=orthogonalEdgeStyle;rounded=0;orthogonalLoop=1;jettySize=auto;html=1;fontColor=#000000;" edge="1" source="oZaHY52OytGmV67nLyRM-131" parent="UF1ZXIA7zIRzBSTpUH8o-1">
          <mxGeometry relative="1" as="geometry">
            <mxPoint x="270" y="660" as="targetPoint"/>
          </mxGeometry>
        </mxCell>
        <mxCell id="oZaHY52OytGmV67nLyRM-131" value="Customer&lt;br&gt;User" style="shape=umlActor;verticalLabelPosition=bottom;labelBackgroundColor=#ffffff;verticalAlign=top;html=1;outlineConnect=0;strokeColor=#000000;fontColor=#000000;" vertex="1" parent="UF1ZXIA7zIRzBSTpUH8o-1">
          <mxGeometry x="150" y="630" width="30" height="60" as="geometry"/>
        </mxCell>
        <mxCell id="oZaHY52OytGmV67nLyRM-132" style="edgeStyle=orthogonalEdgeStyle;rounded=0;orthogonalLoop=1;jettySize=auto;html=1;entryX=0.5;entryY=0;entryDx=0;entryDy=0;fontColor=#000000;" edge="1" source="oZaHY52OytGmV67nLyRM-168" target="oZaHY52OytGmV67nLyRM-133" parent="UF1ZXIA7zIRzBSTpUH8o-1">
          <mxGeometry relative="1" as="geometry">
            <mxPoint x="410" y="670" as="sourcePoint"/>
            <Array as="points">
              <mxPoint x="610" y="670"/>
            </Array>
          </mxGeometry>
        </mxCell>
        <mxCell id="oZaHY52OytGmV67nLyRM-133" value="" style="rounded=1;whiteSpace=wrap;html=1;labelBackgroundColor=none;strokeColor=#000000;fontColor=#000000;" vertex="1" parent="UF1ZXIA7zIRzBSTpUH8o-1">
          <mxGeometry x="500" y="875" width="220" height="210" as="geometry"/>
        </mxCell>
        <mxCell id="oZaHY52OytGmV67nLyRM-134" value="Register" style="rounded=1;whiteSpace=wrap;html=1;fillColor=#6a00ff;strokeColor=#3700CC;fontColor=#ffffff;" vertex="1" parent="UF1ZXIA7zIRzBSTpUH8o-1">
          <mxGeometry x="525" y="895" width="180" height="30" as="geometry"/>
        </mxCell>
        <mxCell id="oZaHY52OytGmV67nLyRM-135" value="Balance" style="rounded=1;whiteSpace=wrap;html=1;fillColor=#6a00ff;strokeColor=#3700CC;fontColor=#ffffff;" vertex="1" parent="UF1ZXIA7zIRzBSTpUH8o-1">
          <mxGeometry x="525" y="929" width="180" height="30" as="geometry"/>
        </mxCell>
        <mxCell id="oZaHY52OytGmV67nLyRM-136" value="Merchants" style="rounded=1;whiteSpace=wrap;html=1;fillColor=#6a00ff;strokeColor=#3700CC;fontColor=#ffffff;" vertex="1" parent="UF1ZXIA7zIRzBSTpUH8o-1">
          <mxGeometry x="525" y="962.5" width="180" height="30" as="geometry"/>
        </mxCell>
        <mxCell id="oZaHY52OytGmV67nLyRM-137" value="Transactions" style="rounded=1;whiteSpace=wrap;html=1;fillColor=#6a00ff;strokeColor=#3700CC;fontColor=#ffffff;" vertex="1" parent="UF1ZXIA7zIRzBSTpUH8o-1">
          <mxGeometry x="525" y="999" width="180" height="30" as="geometry"/>
        </mxCell>
        <mxCell id="oZaHY52OytGmV67nLyRM-138" value="Payment API" style="rounded=1;whiteSpace=wrap;html=1;fillColor=#6a00ff;strokeColor=#3700CC;fontColor=#ffffff;" vertex="1" parent="UF1ZXIA7zIRzBSTpUH8o-1">
          <mxGeometry x="525" y="1035" width="180" height="30" as="geometry"/>
        </mxCell>
        <mxCell id="oZaHY52OytGmV67nLyRM-139" value="" style="rounded=1;whiteSpace=wrap;html=1;labelBackgroundColor=none;strokeColor=#000000;fontColor=#000000;" vertex="1" parent="UF1ZXIA7zIRzBSTpUH8o-1">
          <mxGeometry x="1685" y="909" width="110" height="161" as="geometry"/>
        </mxCell>
        <mxCell id="oZaHY52OytGmV67nLyRM-140" value="V2.1" style="rounded=1;whiteSpace=wrap;html=1;fillColor=#d5e8d4;strokeColor=#82b366;" vertex="1" parent="UF1ZXIA7zIRzBSTpUH8o-1">
          <mxGeometry x="1695" y="924" width="90" height="30" as="geometry"/>
        </mxCell>
        <mxCell id="oZaHY52OytGmV67nLyRM-141" value="x-api-key" style="rounded=1;whiteSpace=wrap;html=1;fillColor=#d5e8d4;strokeColor=#82b366;" vertex="1" parent="UF1ZXIA7zIRzBSTpUH8o-1">
          <mxGeometry x="1697.5" y="998" width="80" height="30" as="geometry"/>
        </mxCell>
        <mxCell id="oZaHY52OytGmV67nLyRM-142" value="" style="rounded=1;whiteSpace=wrap;html=1;labelBackgroundColor=none;strokeColor=#000000;fontColor=#000000;" vertex="1" parent="UF1ZXIA7zIRzBSTpUH8o-1">
          <mxGeometry x="1450" y="929" width="220" height="220" as="geometry"/>
        </mxCell>
        <mxCell id="oZaHY52OytGmV67nLyRM-143" value="registertion[注册]" style="rounded=1;whiteSpace=wrap;html=1;fillColor=#d5e8d4;strokeColor=#82b366;" vertex="1" parent="UF1ZXIA7zIRzBSTpUH8o-1">
          <mxGeometry x="1460" y="944" width="200" height="30" as="geometry"/>
        </mxCell>
        <mxCell id="oZaHY52OytGmV67nLyRM-144" value="login in" style="rounded=1;whiteSpace=wrap;html=1;fillColor=#d5e8d4;strokeColor=#82b366;" vertex="1" parent="UF1ZXIA7zIRzBSTpUH8o-1">
          <mxGeometry x="1460" y="984" width="200" height="30" as="geometry"/>
        </mxCell>
        <mxCell id="oZaHY52OytGmV67nLyRM-145" value="pin management" style="rounded=1;whiteSpace=wrap;html=1;fillColor=#d5e8d4;strokeColor=#82b366;" vertex="1" parent="UF1ZXIA7zIRzBSTpUH8o-1">
          <mxGeometry x="1460" y="1024" width="200" height="30" as="geometry"/>
        </mxCell>
        <mxCell id="oZaHY52OytGmV67nLyRM-146" value="payment" style="rounded=1;whiteSpace=wrap;html=1;fillColor=#d5e8d4;strokeColor=#82b366;" vertex="1" parent="UF1ZXIA7zIRzBSTpUH8o-1">
          <mxGeometry x="1460" y="1069" width="200" height="30" as="geometry"/>
        </mxCell>
        <mxCell id="oZaHY52OytGmV67nLyRM-147" value="refund?????" style="rounded=1;whiteSpace=wrap;html=1;fillColor=#e51400;strokeColor=#B20000;fontColor=#ffffff;" vertex="1" parent="UF1ZXIA7zIRzBSTpUH8o-1">
          <mxGeometry x="1455.5" y="1106.5" width="200" height="30" as="geometry"/>
        </mxCell>
        <mxCell id="oZaHY52OytGmV67nLyRM-148" style="edgeStyle=orthogonalEdgeStyle;rounded=0;orthogonalLoop=1;jettySize=auto;html=1;fontColor=#000000;" edge="1" source="oZaHY52OytGmV67nLyRM-149" target="oZaHY52OytGmV67nLyRM-180" parent="UF1ZXIA7zIRzBSTpUH8o-1">
          <mxGeometry relative="1" as="geometry">
            <Array as="points">
              <mxPoint x="1163" y="1440"/>
              <mxPoint x="1163" y="1440"/>
            </Array>
          </mxGeometry>
        </mxCell>
        <mxCell id="oZaHY52OytGmV67nLyRM-149" value="" style="rounded=1;whiteSpace=wrap;html=1;labelBackgroundColor=none;strokeColor=#000000;fontColor=#000000;" vertex="1" parent="UF1ZXIA7zIRzBSTpUH8o-1">
          <mxGeometry x="1053" y="1170" width="220" height="220" as="geometry"/>
        </mxCell>
        <mxCell id="oZaHY52OytGmV67nLyRM-150" value="registertion[注册]" style="rounded=1;whiteSpace=wrap;html=1;fillColor=#d5e8d4;strokeColor=#82b366;" vertex="1" parent="UF1ZXIA7zIRzBSTpUH8o-1">
          <mxGeometry x="1063" y="1185" width="200" height="30" as="geometry"/>
        </mxCell>
        <mxCell id="oZaHY52OytGmV67nLyRM-151" value="&lt;span style=&quot;color: rgb(0 , 0 , 0)&quot;&gt;card replacement/block&lt;/span&gt;" style="rounded=1;whiteSpace=wrap;html=1;fillColor=#d5e8d4;strokeColor=#82b366;" vertex="1" parent="UF1ZXIA7zIRzBSTpUH8o-1">
          <mxGeometry x="1063" y="1225" width="200" height="30" as="geometry"/>
        </mxCell>
        <mxCell id="oZaHY52OytGmV67nLyRM-152" value="payment" style="rounded=1;whiteSpace=wrap;html=1;fillColor=#d5e8d4;strokeColor=#82b366;" vertex="1" parent="UF1ZXIA7zIRzBSTpUH8o-1">
          <mxGeometry x="1063" y="1265" width="200" height="30" as="geometry"/>
        </mxCell>
        <mxCell id="oZaHY52OytGmV67nLyRM-153" value="????" style="rounded=1;whiteSpace=wrap;html=1;fillColor=#e51400;strokeColor=#B20000;fontColor=#ffffff;" vertex="1" parent="UF1ZXIA7zIRzBSTpUH8o-1">
          <mxGeometry x="1060" y="1306.5" width="200" height="30" as="geometry"/>
        </mxCell>
        <mxCell id="oZaHY52OytGmV67nLyRM-154" value="" style="rounded=1;whiteSpace=wrap;html=1;labelBackgroundColor=none;strokeColor=#000000;fontColor=#000000;" vertex="1" parent="UF1ZXIA7zIRzBSTpUH8o-1">
          <mxGeometry x="1820" y="913" width="130" height="177" as="geometry"/>
        </mxCell>
        <mxCell id="oZaHY52OytGmV67nLyRM-155" value="kiplepark" style="rounded=1;whiteSpace=wrap;html=1;fillColor=#d5e8d4;strokeColor=#82b366;" vertex="1" parent="UF1ZXIA7zIRzBSTpUH8o-1">
          <mxGeometry x="1830" y="928" width="110" height="30" as="geometry"/>
        </mxCell>
        <mxCell id="oZaHY52OytGmV67nLyRM-156" value="bank issam" style="rounded=1;whiteSpace=wrap;html=1;fillColor=#e51400;strokeColor=#B20000;fontColor=#ffffff;" vertex="1" parent="UF1ZXIA7zIRzBSTpUH8o-1">
          <mxGeometry x="1830" y="968" width="110" height="30" as="geometry"/>
        </mxCell>
        <mxCell id="oZaHY52OytGmV67nLyRM-157" value="value go" style="rounded=1;whiteSpace=wrap;html=1;fillColor=#d5e8d4;strokeColor=#82b366;" vertex="1" parent="UF1ZXIA7zIRzBSTpUH8o-1">
          <mxGeometry x="1830" y="1005" width="110" height="30" as="geometry"/>
        </mxCell>
        <mxCell id="oZaHY52OytGmV67nLyRM-158" value="token" style="rounded=1;whiteSpace=wrap;html=1;fillColor=#d5e8d4;strokeColor=#82b366;" vertex="1" parent="UF1ZXIA7zIRzBSTpUH8o-1">
          <mxGeometry x="1695" y="960" width="85" height="30" as="geometry"/>
        </mxCell>
        <mxCell id="oZaHY52OytGmV67nLyRM-159" value="hp hotol？？？" style="rounded=1;whiteSpace=wrap;html=1;fillColor=#e51400;strokeColor=#B20000;fontColor=#ffffff;" vertex="1" parent="UF1ZXIA7zIRzBSTpUH8o-1">
          <mxGeometry x="1695" y="1035" width="80" height="30" as="geometry"/>
        </mxCell>
        <mxCell id="oZaHY52OytGmV67nLyRM-160" value="" style="rounded=1;whiteSpace=wrap;html=1;labelBackgroundColor=none;strokeColor=#000000;fontColor=#000000;" vertex="1" parent="UF1ZXIA7zIRzBSTpUH8o-1">
          <mxGeometry x="1310" y="1353" width="220" height="178" as="geometry"/>
        </mxCell>
        <mxCell id="oZaHY52OytGmV67nLyRM-161" value="card&amp;nbsp;&lt;span style=&quot;color: rgb(0 , 0 , 0)&quot;&gt;registertion&lt;/span&gt;" style="rounded=1;whiteSpace=wrap;html=1;fillColor=#d5e8d4;strokeColor=#82b366;" vertex="1" parent="UF1ZXIA7zIRzBSTpUH8o-1">
          <mxGeometry x="1320" y="1367.5" width="200" height="30" as="geometry"/>
        </mxCell>
        <mxCell id="oZaHY52OytGmV67nLyRM-162" value="balance" style="rounded=1;whiteSpace=wrap;html=1;fillColor=#d5e8d4;strokeColor=#82b366;" vertex="1" parent="UF1ZXIA7zIRzBSTpUH8o-1">
          <mxGeometry x="1320" y="1407.5" width="200" height="30" as="geometry"/>
        </mxCell>
        <mxCell id="oZaHY52OytGmV67nLyRM-163" value="card replacement" style="rounded=1;whiteSpace=wrap;html=1;fillColor=#d5e8d4;strokeColor=#82b366;" vertex="1" parent="UF1ZXIA7zIRzBSTpUH8o-1">
          <mxGeometry x="1320" y="1447.5" width="200" height="30" as="geometry"/>
        </mxCell>
        <mxCell id="oZaHY52OytGmV67nLyRM-164" value="block[挂失/冻结]" style="rounded=1;whiteSpace=wrap;html=1;fillColor=#d5e8d4;strokeColor=#82b366;" vertex="1" parent="UF1ZXIA7zIRzBSTpUH8o-1">
          <mxGeometry x="1320" y="1487.5" width="200" height="30" as="geometry"/>
        </mxCell>
        <mxCell id="oZaHY52OytGmV67nLyRM-165" value="settlement" style="rounded=1;whiteSpace=wrap;html=1;fillColor=#d5e8d4;strokeColor=#82b366;" vertex="1" parent="UF1ZXIA7zIRzBSTpUH8o-1">
          <mxGeometry x="1063" y="1347.5" width="200" height="30" as="geometry"/>
        </mxCell>
        <mxCell id="oZaHY52OytGmV67nLyRM-166" value="service &lt;br&gt;third part" style="rounded=1;whiteSpace=wrap;html=1;fillColor=#d5e8d4;strokeColor=#82b366;" vertex="1" parent="UF1ZXIA7zIRzBSTpUH8o-1">
          <mxGeometry x="2410" y="680" width="120" height="30" as="geometry"/>
        </mxCell>
        <mxCell id="oZaHY52OytGmV67nLyRM-167" value="scheduing" style="rounded=1;whiteSpace=wrap;html=1;fillColor=#d5e8d4;strokeColor=#82b366;" vertex="1" parent="UF1ZXIA7zIRzBSTpUH8o-1">
          <mxGeometry x="2610" y="680" width="120" height="30" as="geometry"/>
        </mxCell>
        <mxCell id="oZaHY52OytGmV67nLyRM-168" value="" style="rounded=1;whiteSpace=wrap;html=1;fillColor=#d5e8d4;strokeColor=#82b366;" vertex="1" parent="UF1ZXIA7zIRzBSTpUH8o-1">
          <mxGeometry x="280" y="635" width="120" height="95" as="geometry"/>
        </mxCell>
        <mxCell id="oZaHY52OytGmV67nLyRM-169" value="terminal" style="rounded=1;whiteSpace=wrap;html=1;labelBackgroundColor=none;strokeColor=#d79b00;fillColor=#ffe6cc;" vertex="1" parent="UF1ZXIA7zIRzBSTpUH8o-1">
          <mxGeometry x="295" y="660" width="90" height="30" as="geometry"/>
        </mxCell>
        <mxCell id="oZaHY52OytGmV67nLyRM-170" value="shop" style="text;html=1;strokeColor=none;fillColor=none;align=center;verticalAlign=middle;whiteSpace=wrap;rounded=0;labelBackgroundColor=none;fontColor=#000000;" vertex="1" parent="UF1ZXIA7zIRzBSTpUH8o-1">
          <mxGeometry x="320" y="640" width="40" height="20" as="geometry"/>
        </mxCell>
        <mxCell id="oZaHY52OytGmV67nLyRM-171" value="KISS/PP/KIDA" style="rounded=1;whiteSpace=wrap;html=1;labelBackgroundColor=none;strokeColor=#d79b00;fillColor=#ffe6cc;" vertex="1" parent="UF1ZXIA7zIRzBSTpUH8o-1">
          <mxGeometry x="130" y="740" width="90" height="30" as="geometry"/>
        </mxCell>
        <mxCell id="oZaHY52OytGmV67nLyRM-172" value="RM 50-RM30=RM20" style="text;html=1;strokeColor=none;fillColor=none;align=center;verticalAlign=middle;whiteSpace=wrap;rounded=0;labelBackgroundColor=none;fontColor=#000000;" vertex="1" parent="UF1ZXIA7zIRzBSTpUH8o-1">
          <mxGeometry x="420" y="645" width="130" height="20" as="geometry"/>
        </mxCell>
        <mxCell id="oZaHY52OytGmV67nLyRM-173" value="当用户钱包小于一定的自己设定的值的时候自动充值" style="text;html=1;strokeColor=none;fillColor=none;align=center;verticalAlign=middle;whiteSpace=wrap;rounded=0;labelBackgroundColor=none;fontColor=#000000;" vertex="1" parent="UF1ZXIA7zIRzBSTpUH8o-1">
          <mxGeometry x="1830" y="1050" width="100" height="20" as="geometry"/>
        </mxCell>
        <mxCell id="oZaHY52OytGmV67nLyRM-174" value="&lt;table border=&quot;1&quot; width=&quot;100%&quot; cellpadding=&quot;4&quot; style=&quot;width: 100% ; height: 100% ; border-collapse: collapse&quot;&gt;&lt;tbody&gt;&lt;tr style=&quot;background-color: #a7c942 ; color: #ffffff ; border: 1px solid #98bf21&quot;&gt;&lt;th align=&quot;left&quot;&gt;&lt;br&gt;&lt;/th&gt;&lt;th align=&quot;left&quot;&gt;&lt;br&gt;&lt;/th&gt;&lt;th align=&quot;left&quot;&gt;fee&lt;/th&gt;&lt;/tr&gt;&lt;tr style=&quot;border: 1px solid #98bf21&quot;&gt;&lt;td&gt;1.num&lt;/td&gt;&lt;td&gt;0-10000&lt;/td&gt;&lt;td&gt;2%&lt;/td&gt;&lt;/tr&gt;&lt;tr style=&quot;background-color: #eaf2d3 ; border: 1px solid #98bf21&quot;&gt;&lt;td&gt;2.num&lt;/td&gt;&lt;td&gt;10000-20000&lt;/td&gt;&lt;td&gt;1.8%&lt;/td&gt;&lt;/tr&gt;&lt;tr style=&quot;border: 1px solid #98bf21&quot;&gt;&lt;td&gt;3.num&lt;/td&gt;&lt;td&gt;20000-30000&lt;/td&gt;&lt;td&gt;1.5%&lt;/td&gt;&lt;/tr&gt;&lt;tr style=&quot;background-color: #eaf2d3 ; border: 1px solid #98bf21&quot;&gt;&lt;td&gt;4.num&lt;/td&gt;&lt;td&gt;&amp;gt;400000&lt;/td&gt;&lt;td&gt;1.2%&lt;/td&gt;&lt;/tr&gt;&lt;/tbody&gt;&lt;/table&gt;" style="text;html=1;strokeColor=#c0c0c0;fillColor=#ffffff;overflow=fill;rounded=0;labelBackgroundColor=none;fontColor=#000000;" vertex="1" parent="UF1ZXIA7zIRzBSTpUH8o-1">
          <mxGeometry x="2650" y="1510" width="280" height="160" as="geometry"/>
        </mxCell>
        <mxCell id="oZaHY52OytGmV67nLyRM-175" value="&lt;h1&gt;normal[结算]&lt;/h1&gt;&lt;p&gt;MDR(gros-fee-fee tax = net) fee 2%&lt;/p&gt;&lt;p&gt;transaction&amp;nbsp; &amp;nbsp; gros&amp;nbsp; &amp;nbsp; &amp;nbsp; &amp;nbsp; &amp;nbsp; &amp;nbsp; &amp;nbsp; &amp;nbsp; &amp;nbsp; fee&amp;nbsp; &amp;nbsp; &amp;nbsp; &amp;nbsp; net&amp;nbsp; &amp;nbsp; &amp;nbsp;&lt;/p&gt;&lt;p&gt;item1:&amp;nbsp; &amp;nbsp; &amp;nbsp; &amp;nbsp;RM100:00&amp;nbsp; &amp;nbsp; &amp;nbsp; &amp;nbsp; &amp;nbsp; RM2:00&amp;nbsp; &amp;nbsp;RM98&lt;/p&gt;&lt;p&gt;item2:&amp;nbsp; &amp;nbsp; &amp;nbsp; &amp;nbsp; RM:50:00&amp;nbsp; &amp;nbsp; &amp;nbsp; &amp;nbsp; &amp;nbsp; RM1:00&amp;nbsp; &amp;nbsp; RM49&lt;/p&gt;&lt;p&gt;&amp;nbsp; &amp;nbsp; &amp;nbsp; &amp;nbsp; &amp;nbsp; &amp;nbsp; &amp;nbsp; &amp;nbsp; &amp;nbsp;RM 150&amp;nbsp; &amp;nbsp; &amp;nbsp; &amp;nbsp; &amp;nbsp; &amp;nbsp; &amp;nbsp; &amp;nbsp; &amp;nbsp; &amp;nbsp; &amp;nbsp; &amp;nbsp; &amp;nbsp; &amp;nbsp; &amp;nbsp; &amp;nbsp;RM 98+49&amp;nbsp; &amp;nbsp; &amp;nbsp; &amp;nbsp; &amp;nbsp; &amp;nbsp; &amp;nbsp; &amp;nbsp;&amp;nbsp;&lt;/p&gt;" style="text;html=1;strokeColor=#666666;fillColor=#f5f5f5;spacing=5;spacingTop=-20;whiteSpace=wrap;overflow=hidden;rounded=0;labelBackgroundColor=none;fontColor=#333333;" vertex="1" parent="UF1ZXIA7zIRzBSTpUH8o-1">
          <mxGeometry x="1790" y="1462.5" width="300" height="180" as="geometry"/>
        </mxCell>
        <mxCell id="oZaHY52OytGmV67nLyRM-176" value="&lt;h1&gt;&lt;br&gt;&lt;/h1&gt;&lt;p&gt;&lt;span&gt;type&amp;nbsp; &amp;nbsp; &amp;nbsp;settlement&amp;nbsp; &amp;nbsp; &amp;nbsp;fee&amp;nbsp; &amp;nbsp; &amp;nbsp;enable&amp;nbsp;&lt;/span&gt;&lt;/p&gt;&lt;p&gt;&lt;span&gt;kiple&amp;nbsp; &amp;nbsp; &amp;nbsp; &amp;nbsp; T+1&amp;nbsp; &amp;nbsp; &amp;nbsp; &amp;nbsp; &amp;nbsp; &amp;nbsp;1%&amp;nbsp; &amp;nbsp; &amp;nbsp; &amp;nbsp; &amp;nbsp;true&lt;/span&gt;&lt;/p&gt;&lt;p&gt;&lt;span&gt;fpx&amp;nbsp; &amp;nbsp; &amp;nbsp; &amp;nbsp; &amp;nbsp; &amp;nbsp; T+2&amp;nbsp; &amp;nbsp; &amp;nbsp; &amp;nbsp; &amp;nbsp; 1%&amp;nbsp; &amp;nbsp; &amp;nbsp; true&lt;/span&gt;&lt;/p&gt;&lt;p&gt;&lt;span&gt;cc&amp;nbsp; &amp;nbsp; &amp;nbsp; &amp;nbsp; &amp;nbsp; &amp;nbsp; &amp;nbsp;T+3&amp;nbsp; &amp;nbsp; &amp;nbsp; &amp;nbsp; &amp;nbsp; 1%&amp;nbsp; &amp;nbsp; &amp;nbsp; &amp;nbsp; false&lt;/span&gt;&lt;/p&gt;&lt;p&gt;&lt;span&gt;wechat&amp;nbsp; &amp;nbsp; &amp;nbsp;T+4&amp;nbsp; &amp;nbsp; &amp;nbsp; &amp;nbsp; &amp;nbsp; &amp;nbsp;1%&amp;nbsp; &amp;nbsp; &amp;nbsp; &amp;nbsp;true&lt;/span&gt;&lt;/p&gt;&lt;p&gt;&lt;span&gt;alipay&amp;nbsp; &amp;nbsp; &amp;nbsp; &amp;nbsp; T+1&amp;nbsp; &amp;nbsp; &amp;nbsp; &amp;nbsp; &amp;nbsp; ...&amp;nbsp; &amp;nbsp; &amp;nbsp; &amp;nbsp; &amp;nbsp;false&lt;/span&gt;&lt;/p&gt;&lt;p&gt;&lt;span&gt;touch&#39;i go&amp;nbsp; &amp;nbsp;T+1&amp;nbsp; &amp;nbsp; &amp;nbsp; &amp;nbsp; &amp;nbsp;...&amp;nbsp; &amp;nbsp; &amp;nbsp; &amp;nbsp; &amp;nbsp; false&lt;/span&gt;&lt;/p&gt;&lt;p&gt;&lt;span&gt;&amp;nbsp; boost&amp;nbsp; &amp;nbsp; &amp;nbsp; &amp;nbsp;T+4&amp;nbsp; &amp;nbsp; &amp;nbsp; &amp;nbsp; &amp;nbsp;...&amp;nbsp; &amp;nbsp; &amp;nbsp; &amp;nbsp; &amp;nbsp; &amp;nbsp; &amp;nbsp;false&amp;nbsp; &amp;nbsp; &amp;nbsp; &amp;nbsp; &amp;nbsp; &amp;nbsp; &amp;nbsp; &amp;nbsp;&lt;/span&gt;&lt;br&gt;&lt;/p&gt;" style="text;html=1;strokeColor=#666666;fillColor=#f5f5f5;spacing=5;spacingTop=-20;whiteSpace=wrap;overflow=hidden;rounded=0;labelBackgroundColor=none;fontColor=#333333;" vertex="1" parent="UF1ZXIA7zIRzBSTpUH8o-1">
          <mxGeometry x="2750" y="810" width="300" height="260" as="geometry"/>
        </mxCell>
        <mxCell id="oZaHY52OytGmV67nLyRM-177" style="edgeStyle=orthogonalEdgeStyle;rounded=0;orthogonalLoop=1;jettySize=auto;html=1;fontColor=#000000;" edge="1" source="oZaHY52OytGmV67nLyRM-178" target="oZaHY52OytGmV67nLyRM-120" parent="UF1ZXIA7zIRzBSTpUH8o-1">
          <mxGeometry relative="1" as="geometry"/>
        </mxCell>
        <mxCell id="oZaHY52OytGmV67nLyRM-178" value="可以通过发短信注册，查询余额等功能" style="text;html=1;strokeColor=none;fillColor=none;align=center;verticalAlign=middle;whiteSpace=wrap;rounded=0;labelBackgroundColor=none;fontColor=#000000;" vertex="1" parent="UF1ZXIA7zIRzBSTpUH8o-1">
          <mxGeometry x="320" y="510" width="180" height="20" as="geometry"/>
        </mxCell>
        <mxCell id="oZaHY52OytGmV67nLyRM-179" value="记录商户的客户信息??" style="text;html=1;strokeColor=#B20000;fillColor=#e51400;align=center;verticalAlign=middle;whiteSpace=wrap;rounded=0;labelBackgroundColor=none;fontColor=#ffffff;" vertex="1" parent="UF1ZXIA7zIRzBSTpUH8o-1">
          <mxGeometry x="2490" y="765" width="140" height="20" as="geometry"/>
        </mxCell>
        <mxCell id="oZaHY52OytGmV67nLyRM-180" value="架构和政府的比较类似" style="text;html=1;strokeColor=none;fillColor=none;align=center;verticalAlign=middle;whiteSpace=wrap;rounded=0;labelBackgroundColor=none;fontColor=#000000;" vertex="1" parent="UF1ZXIA7zIRzBSTpUH8o-1">
          <mxGeometry x="1093" y="1460" width="167" height="25" as="geometry"/>
        </mxCell>
        <mxCell id="oZaHY52OytGmV67nLyRM-181" value="&amp;lt;20充值&lt;br&gt;100&lt;br&gt;credit/debit" style="text;html=1;align=center;verticalAlign=middle;resizable=0;points=[];;autosize=1;fontColor=#000000;" vertex="1" parent="UF1ZXIA7zIRzBSTpUH8o-1">
          <mxGeometry x="1970" y="865" width="80" height="50" as="geometry"/>
        </mxCell>
        <mxCell id="oZaHY52OytGmV67nLyRM-182" style="edgeStyle=orthogonalEdgeStyle;rounded=0;orthogonalLoop=1;jettySize=auto;html=1;entryX=0;entryY=0.5;entryDx=0;entryDy=0;fontColor=#000000;" edge="1" source="oZaHY52OytGmV67nLyRM-183" target="oZaHY52OytGmV67nLyRM-184" parent="UF1ZXIA7zIRzBSTpUH8o-1">
          <mxGeometry relative="1" as="geometry"/>
        </mxCell>
        <mxCell id="oZaHY52OytGmV67nLyRM-183" value="Actor" style="shape=umlActor;verticalLabelPosition=bottom;labelBackgroundColor=#ffffff;verticalAlign=top;html=1;outlineConnect=0;strokeColor=#000000;fontColor=#000000;" vertex="1" parent="UF1ZXIA7zIRzBSTpUH8o-1">
          <mxGeometry x="1910" y="847" width="30" height="39" as="geometry"/>
        </mxCell>
        <mxCell id="oZaHY52OytGmV67nLyRM-184" value="walet" style="rounded=1;whiteSpace=wrap;html=1;labelBackgroundColor=none;strokeColor=#000000;fontColor=#000000;" vertex="1" parent="UF1ZXIA7zIRzBSTpUH8o-1">
          <mxGeometry x="1980" y="840" width="60" height="20" as="geometry"/>
        </mxCell>
        <mxCell id="oZaHY52OytGmV67nLyRM-185" value="TPA" style="rounded=1;whiteSpace=wrap;html=1;fillColor=#d5e8d4;strokeColor=#82b366;" vertex="1" parent="UF1ZXIA7zIRzBSTpUH8o-1">
          <mxGeometry x="2320" y="907.5" width="120" height="30" as="geometry"/>
        </mxCell>
      </root>
    </mxGraphModel>
  </diagram>
</mxfile>
